SplineFontDB: 1.0
FontName: ArundinaSans-Bold
FullName: Arundina Sans Bold
FamilyName: Arundina Sans
Weight: Bold
Copyright: Copyright (c) 2003 by Bitstream, Inc. All Rights Reserved.\nCopyright (c) 2007 by Software Industry Promotion Agency (Public Organization). All Rights Reserved.
Version: 1.20
ItalicAngle: 0
UnderlinePosition: -75
UnderlineWidth: 50
Ascent: 800
Descent: 200
Order2: 1
XUID: [1021 375 425136265 4916284]
FSType: 0
OS2Version: 2
OS2_WeightWidthSlopeOnly: 0
OS2_UseTypoMetrics: 1
CreationTime: 1125072480
ModificationTime: 1171885069
PfmFamily: 33
TTFWeight: 700
TTFWidth: 5
LineGap: 38
VLineGap: 0
Panose: 2 11 3 0 2 2 2 2 2 4
OS2TypoAscent: 0
OS2TypoAOffset: 1
OS2TypoDescent: -200
OS2TypoDOffset: 1
OS2TypoLinegap: 0
OS2WinAscent: 28
OS2WinAOffset: 1
OS2WinDescent: 51
OS2WinDOffset: 1
HheadAscent: 28
HheadAOffset: 1
HheadDescent: -51
HheadDOffset: 1
OS2SubXSize: 700
OS2SubYSize: 650
OS2SubXOff: 0
OS2SubYOff: 140
OS2SupXSize: 700
OS2SupYSize: 650
OS2SupXOff: 0
OS2SupYOff: 477
OS2StrikeYSize: 50
OS2StrikeYPos: 250
OS2FamilyClass: 2063
OS2Vendor: 'BLWK'
ScriptLang: 2
 1 latn 1 dflt 
 0 
ChainSub: coverage 0 0 'liga' 0 0 0 1
 1 1 0
  Coverage: 7 uni0E47
  BCoverage: 12 uni0E2C.alt1
 1
  SeqLookup: 0 'L019'
EndFPST
ChainSub: coverage 0 0 'liga' 0 0 0 1
 1 0 1
  Coverage: 7 uni0E2C
  FCoverage: 39 uni0E34 uni0E35 uni0E36 uni0E37 uni0E47
 1
  SeqLookup: 0 'L019'
EndFPST
ChainSub: coverage 0 0 'liga' 0 0 0 1
 1 0 1
  Coverage: 15 uni0E0E uni0E0F
  FCoverage: 38 uni0E38.alt1 uni0E39.alt1 uni0E3A.alt1
 1
  SeqLookup: 0 'L019'
EndFPST
ChainSub: coverage 0 0 'liga' 0 0 0 1
 1 1 0
  Coverage: 5 a b c
  BCoverage: 23 uni0E1B uni0E1D uni0E1F
 1
  SeqLookup: 0 'L019'
EndFPST
ChainSub: coverage 0 0 'liga' 0 0 0 1
 1 0 1
  Coverage: 5 a b c
  FCoverage: 64 uni0E48.alt1 uni0E49.alt1 uni0E4A.alt1 uni0E4B.alt1 uni0E4C.alt1
 1
  SeqLookup: 0 'L019'
EndFPST
ChainSub: coverage 0 0 'liga' 0 0 0 1
 1 1 0

StartChar: .notdef
Encoding: 65536 -1 0
Width: 344
Flags: W
Fore
28 403 m 1,0,-1
 314 403 l 1,1,-1
 314 -101 l 1,2,-1
 28 -101 l 1,3,-1
 28 403 l 1,0,-1
283 -68 m 1,4,-1
 283 371 l 1,5,-1
 60 371 l 1,6,-1
 60 -68 l 1,7,-1
 283 -68 l 1,4,-1
EndSplineSet
EndChar
StartChar: exclam
Encoding: 33 33 4
Width: 261
Flags: W
Fore
181 417 m 1,0,-1
 181 256 l 1,1,-1
 166 141 l 1,2,-1
 95 141 l 1,3,-1
 80 256 l 1,4,-1
 80 417 l 1,5,-1
 181 417 l 1,0,-1
181 100 m 1,6,-1
 181 0 l 1,7,-1
 80 0 l 1,8,-1
 80 100 l 1,9,-1
 181 100 l 1,6,-1
EndSplineSet
EndChar
StartChar: quotedbl
Encoding: 34 34 5
Width: 298
Flags: W
Fore
244 262 m 1,0,-1
 177 262 l 1,1,-1
 177 417 l 1,2,-1
 244 417 l 1,3,-1
 244 262 l 1,0,-1
121 262 m 1,4,-1
 54 262 l 1,5,-1
 54 417 l 1,6,-1
 121 417 l 1,7,-1
 121 262 l 1,4,-1
EndSplineSet
EndChar
StartChar: numbersign
Encoding: 35 35 6
Width: 479
Flags: W
Fore
228 304 m 1,0,-1
 302 304 l 1,1,-1
 329 411 l 1,2,-1
 390 411 l 1,3,-1
 362 304 l 1,4,-1
 440 304 l 1,5,-1
 440 244 l 1,6,-1
 348 244 l 1,7,-1
 329 167 l 1,8,-1
 409 167 l 1,9,-1
 409 107 l 1,10,-1
 314 107 l 1,11,-1
 288 0 l 1,12,-1
 226 0 l 1,13,-1
 252 107 l 1,14,-1
 179 107 l 1,15,-1
 151 0 l 1,16,-1
 89 0 l 1,17,-1
 117 107 l 1,18,-1
 39 107 l 1,19,-1
 39 167 l 1,20,-1
 130 167 l 1,21,-1
 149 244 l 1,22,-1
 70 244 l 1,23,-1
 70 304 l 1,24,-1
 165 304 l 1,25,-1
 192 411 l 1,26,-1
 254 411 l 1,27,-1
 228 304 l 1,0,-1
212 244 m 1,28,-1
 193 167 l 1,29,-1
 266 167 l 1,30,-1
 286 244 l 1,31,-1
 212 244 l 1,28,-1
EndSplineSet
EndChar
StartChar: dollar
Encoding: 36 36 7
Width: 398
Flags: W
Fore
177 -84 m 1,0,-1
 177 0 l 1,1,2
 142 1 142 1 109 8 c 128,-1,3
 76 15 76 15 45 26 c 1,4,-1
 45 99 l 1,5,6
 77 82 77 82 110.5 73.5 c 128,-1,7
 144 65 144 65 177 63 c 1,8,-1
 177 150 l 1,9,-1
 167 151 l 2,10,11
 101 164 101 164 73 188.5 c 128,-1,12
 45 213 45 213 45 261 c 0,13,14
 45 312 45 312 79 340 c 128,-1,15
 113 368 113 368 177 370 c 1,16,-1
 177 435 l 1,17,-1
 222 435 l 1,18,-1
 222 371 l 1,19,20
 249 369 249 369 277.5 364 c 128,-1,21
 306 359 306 359 334 351 c 1,22,-1
 334 281 l 1,23,24
 306 292 306 292 278 299 c 128,-1,25
 250 306 250 306 222 307 c 1,26,-1
 222 227 l 1,27,-1
 231 226 l 2,28,29
 303 214 303 214 330.5 188 c 128,-1,30
 358 162 358 162 358 110 c 0,31,32
 358 7 358 7 222 0 c 1,33,-1
 222 -84 l 1,34,-1
 177 -84 l 1,0,-1
177 306 m 1,35,36
 157 305 157 305 145 295.5 c 128,-1,37
 133 286 133 286 133 271 c 0,38,39
 133 238 133 238 177 234 c 1,40,-1
 177 306 l 1,35,36
222 65 m 1,41,42
 270 65 270 65 270 102 c 0,43,44
 270 121 270 121 259 130.5 c 128,-1,45
 248 140 248 140 222 143 c 1,46,-1
 222 65 l 1,41,42
EndSplineSet
EndChar
StartChar: percent
Encoding: 37 37 8
Width: 573
Flags: W
Fore
443 172 m 0,0,1
 401 172 401 172 401 106 c 256,2,3
 401 40 401 40 443 40 c 0,4,5
 462 40 462 40 473 57 c 128,-1,6
 484 74 484 74 484 106 c 256,7,8
 484 138 484 138 473 155 c 128,-1,9
 462 172 462 172 443 172 c 0,0,1
443 219 m 256,10,11
 495 219 495 219 525 188.5 c 128,-1,12
 555 158 555 158 555 106 c 0,13,14
 555 52 555 52 525 22 c 128,-1,15
 495 -8 495 -8 443 -8 c 256,16,17
 391 -8 391 -8 361 22 c 128,-1,18
 331 52 331 52 331 106 c 0,19,20
 331 158 331 158 361 188.5 c 128,-1,21
 391 219 391 219 443 219 c 256,10,11
126 -8 m 1,22,-1
 386 424 l 1,23,-1
 448 424 l 1,24,-1
 187 -8 l 1,25,-1
 126 -8 l 1,22,-1
130 424 m 256,26,27
 182 424 182 424 212 394.5 c 128,-1,28
 242 365 242 365 242 311 c 256,29,30
 242 257 242 257 212 227.5 c 128,-1,31
 182 198 182 198 130 198 c 256,32,33
 78 198 78 198 48.5 227.5 c 128,-1,34
 19 257 19 257 19 311 c 256,35,36
 19 365 19 365 48.5 394.5 c 128,-1,37
 78 424 78 424 130 424 c 256,26,27
130 377 m 0,38,39
 87 377 87 377 87 311 c 256,40,41
 87 245 87 245 130 245 c 0,42,43
 149 245 149 245 160 261.5 c 128,-1,44
 171 278 171 278 171 311 c 256,45,46
 171 344 171 344 160 360.5 c 128,-1,47
 149 377 149 377 130 377 c 0,38,39
EndSplineSet
EndChar
StartChar: ampersand
Encoding: 38 38 9
Width: 498
Flags: W
Fore
337 151 m 1,0,1
 367 189 367 189 369 249 c 1,2,-1
 455 249 l 1,3,4
 448 151 448 151 393 89 c 1,5,-1
 475 0 l 1,6,-1
 356 0 l 1,7,-1
 329 30 l 1,8,9
 299 11 299 11 267 1.5 c 128,-1,10
 235 -8 235 -8 199 -8 c 0,11,12
 124 -8 124 -8 79.5 29.5 c 128,-1,13
 35 67 35 67 35 130 c 0,14,15
 35 172 35 172 54.5 203 c 128,-1,16
 74 234 74 234 120 263 c 1,17,18
 97 292 97 292 97 325 c 0,19,20
 97 370 97 370 132 397 c 128,-1,21
 167 424 167 424 227 424 c 0,22,23
 251 424 251 424 279 420 c 128,-1,24
 307 416 307 416 337 409 c 1,25,-1
 337 331 l 1,26,27
 311 345 311 345 287 350.5 c 128,-1,28
 263 356 263 356 242 356 c 0,29,30
 220 356 220 356 207.5 348 c 128,-1,31
 195 340 195 340 195 326 c 0,32,33
 195 316 195 316 202.5 303.5 c 128,-1,34
 210 291 210 291 223 276 c 2,35,-1
 337 151 l 1,0,1
167 208 m 1,36,37
 131 180 131 180 131 142 c 0,38,39
 131 109 131 109 154.5 86.5 c 128,-1,40
 178 64 178 64 212 64 c 0,41,42
 231 64 231 64 247 70 c 128,-1,43
 263 76 263 76 276 86 c 1,44,-1
 167 208 l 1,45,-1
 167 208 l 1,36,37
EndSplineSet
EndChar
StartChar: quotesingle
Encoding: 39 39 10
Width: 174
Flags: W
Fore
121 262 m 1,0,-1
 54 262 l 1,1,-1
 54 417 l 1,2,-1
 121 417 l 1,3,-1
 121 262 l 1,0,-1
EndSplineSet
EndChar
StartChar: parenleft
Encoding: 40 40 11
Width: 261
Flags: W
Fore
132 -76 m 1,0,1
 89 -6 89 -6 69 56 c 128,-1,2
 49 118 49 118 49 179 c 0,3,4
 49 242 49 242 69.5 303.5 c 128,-1,5
 90 365 90 365 132 434 c 1,6,-1
 216 434 l 1,7,8
 145 304 145 304 145 180 c 256,9,10
 145 56 145 56 216 -76 c 1,11,-1
 132 -76 l 1,0,1
EndSplineSet
EndChar
StartChar: parenright
Encoding: 41 41 12
Width: 261
Flags: W
Fore
46 -76 m 1,0,1
 118 58 118 58 118 180 c 256,2,3
 118 302 118 302 46 434 c 1,4,-1
 129 434 l 1,5,6
 171 365 171 365 191.5 303.5 c 128,-1,7
 212 242 212 242 212 179 c 0,8,9
 212 118 212 118 191.5 56 c 128,-1,10
 171 -6 171 -6 129 -76 c 1,11,-1
 46 -76 l 1,12,-1
 46 -76 l 1,0,1
EndSplineSet
EndChar
StartChar: asterisk
Encoding: 42 42 13
Width: 299
Flags: W
Fore
195 291 m 1,0,-1
 288 244 l 1,1,-1
 266 204 l 1,2,-1
 173 254 l 1,3,-1
 173 159 l 1,4,-1
 126 159 l 1,5,-1
 126 254 l 1,6,-1
 33 204 l 1,7,-1
 12 244 l 1,8,-1
 105 291 l 1,9,-1
 12 340 l 1,10,-1
 33 379 l 1,11,-1
 126 329 l 1,12,-1
 126 424 l 1,13,-1
 173 424 l 1,14,-1
 173 329 l 1,15,-1
 266 379 l 1,16,-1
 288 340 l 1,17,-1
 195 291 l 1,0,-1
EndSplineSet
EndChar
StartChar: plus
Encoding: 43 43 14
Width: 479
Flags: W
Fore
272 212 m 1,0,-1
 418 212 l 1,1,-1
 418 147 l 1,2,-1
 272 147 l 1,3,-1
 272 0 l 1,4,-1
 206 0 l 1,5,-1
 206 147 l 1,6,-1
 60 147 l 1,7,-1
 60 212 l 1,8,-1
 206 212 l 1,9,-1
 206 358 l 1,10,-1
 272 358 l 1,11,-1
 272 212 l 1,0,-1
EndSplineSet
EndChar
StartChar: comma
Encoding: 44 44 15
Width: 217
Flags: W
Fore
159 108 m 1,0,-1
 159 23 l 1,1,-1
 89 -81 l 1,2,-1
 30 -81 l 1,3,-1
 58 23 l 1,4,-1
 58 108 l 1,5,-1
 159 108 l 1,0,-1
EndSplineSet
EndChar
StartChar: hyphen
Encoding: 45 45 16
Width: 238
Flags: W
Fore
206 205 m 1,0,-1
 206 124 l 1,1,-1
 32 124 l 1,2,-1
 32 205 l 1,3,-1
 206 205 l 1,0,-1
EndSplineSet
EndChar
StartChar: period
Encoding: 46 46 17
Width: 217
Flags: W
Fore
159 108 m 1,0,-1
 159 0 l 1,1,-1
 58 0 l 1,2,-1
 58 108 l 1,3,-1
 159 108 l 1,0,-1
EndSplineSet
EndChar
StartChar: slash
Encoding: 47 47 18
Width: 209
Flags: W
Fore
209 417 m 1,0,-1
 62 -53 l 1,1,-1
 0 -53 l 1,2,-1
 147 417 l 1,3,-1
 209 417 l 1,0,-1
EndSplineSet
EndChar
StartChar: zero
Encoding: 48 48 19
Width: 398
Flags: W
Fore
263 209 m 0,0,1
 263 287 263 287 248.5 318.5 c 128,-1,2
 234 350 234 350 199 350 c 256,3,4
 164 350 164 350 150 318.5 c 128,-1,5
 136 287 136 287 136 209 c 0,6,7
 136 130 136 130 150 97.5 c 128,-1,8
 164 65 164 65 199 65 c 256,9,10
 234 65 234 65 248.5 97.5 c 128,-1,11
 263 130 263 130 263 209 c 0,0,1
370 208 m 0,12,13
 370 105 370 105 326.5 48.5 c 128,-1,14
 283 -8 283 -8 199 -8 c 0,15,16
 117 -8 117 -8 72 48.5 c 128,-1,17
 27 105 27 105 27 208 c 0,18,19
 27 313 27 313 72 368.5 c 128,-1,20
 117 424 117 424 199 424 c 0,21,22
 283 424 283 424 326.5 368.5 c 128,-1,23
 370 313 370 313 370 208 c 0,12,13
EndSplineSet
EndChar
StartChar: one
Encoding: 49 49 20
Width: 398
Flags: W
Fore
162 74 m 1,0,-1
 162 345 l 1,1,-1
 64 324 l 1,2,-1
 64 397 l 1,3,-1
 161 417 l 1,4,-1
 263 417 l 1,5,-1
 263 74 l 1,6,-1
 358 74 l 1,7,-1
 358 0 l 1,8,-1
 66 0 l 1,9,-1
 66 74 l 1,10,-1
 162 74 l 1,0,-1
EndSplineSet
EndChar
StartChar: two
Encoding: 50 50 21
Width: 398
Flags: W
Fore
348 79 m 1,0,-1
 348 0 l 1,1,-1
 45 0 l 1,2,-1
 45 79 l 1,3,-1
 198 213 l 2,4,5
 217 232 217 232 227.5 249.5 c 128,-1,6
 238 267 238 267 238 286 c 0,7,8
 238 315 238 315 218 332.5 c 128,-1,9
 198 350 198 350 165 350 c 0,10,11
 141 350 141 350 110.5 340 c 128,-1,12
 80 330 80 330 46 308 c 1,13,-1
 46 400 l 1,14,15
 120 424 120 424 188 424 c 0,16,17
 263 424 263 424 304.5 391.5 c 128,-1,18
 346 359 346 359 346 299 c 0,19,20
 346 265 346 265 328 236 c 0,21,22
 309 205 309 205 253 157 c 2,23,-1
 165 79 l 1,24,-1
 348 79 l 1,0,-1
EndSplineSet
EndChar
StartChar: three
Encoding: 51 51 22
Width: 398
Flags: W
Fore
266 225 m 1,0,1
 352 202 352 202 352 119 c 0,2,3
 352 56 352 56 304.5 24 c 128,-1,4
 257 -8 257 -8 166 -8 c 0,5,6
 134 -8 134 -8 101.5 -3 c 128,-1,7
 69 2 69 2 39 13 c 1,8,-1
 39 96 l 1,9,10
 97 65 97 65 157 65 c 0,11,12
 245 65 245 65 245 123 c 0,13,14
 245 150 245 150 222.5 165 c 128,-1,15
 200 180 200 180 152 180 c 2,16,-1
 109 180 l 1,17,-1
 109 249 l 1,18,-1
 154 249 l 2,19,20
 235 249 235 249 235 300 c 0,21,22
 235 326 235 326 215.5 338 c 128,-1,23
 196 350 196 350 161 350 c 0,24,25
 136 350 136 350 109 344.5 c 128,-1,26
 82 339 82 339 56 328 c 1,27,-1
 56 407 l 1,28,29
 119 424 119 424 181 424 c 0,30,31
 344 424 344 424 344 317 c 0,32,33
 344 243 344 243 266 225 c 1,0,1
EndSplineSet
EndChar
StartChar: four
Encoding: 52 52 23
Width: 398
Flags: W
Fore
92 153 m 1,0,-1
 211 153 l 1,1,-1
 211 329 l 1,2,-1
 92 153 l 1,0,-1
312 417 m 1,3,-1
 312 153 l 1,4,-1
 371 153 l 1,5,-1
 371 76 l 1,6,-1
 312 76 l 1,7,-1
 312 0 l 1,8,-1
 211 0 l 1,9,-1
 211 76 l 1,10,-1
 26 76 l 1,11,-1
 26 168 l 1,12,-1
 193 417 l 1,13,-1
 312 417 l 1,3,-1
EndSplineSet
EndChar
StartChar: five
Encoding: 53 53 24
Width: 398
Flags: W
Fore
328 417 m 1,0,-1
 328 338 l 1,1,-1
 147 338 l 1,2,-1
 147 273 l 1,3,4
 158 276 158 276 170.5 278.5 c 128,-1,5
 183 281 183 281 196 281 c 0,6,7
 274 281 274 281 315.5 242.5 c 128,-1,8
 357 204 357 204 357 137 c 0,9,10
 357 68 357 68 311 30 c 128,-1,11
 265 -8 265 -8 183 -8 c 0,12,13
 149 -8 149 -8 114 -1.5 c 128,-1,14
 79 5 79 5 44 20 c 1,15,-1
 44 104 l 1,16,17
 78 85 78 85 109 75 c 128,-1,18
 140 65 140 65 166 65 c 0,19,20
 206 65 206 65 228 84.5 c 128,-1,21
 250 104 250 104 250 137 c 0,22,23
 250 169 250 169 228 188 c 128,-1,24
 206 207 206 207 166 207 c 0,25,26
 144 207 144 207 117 201 c 128,-1,27
 90 195 90 195 60 182 c 1,28,-1
 60 417 l 1,29,-1
 328 417 l 1,0,-1
EndSplineSet
EndChar
StartChar: six
Encoding: 54 54 25
Width: 398
Flags: W
Fore
207 206 m 0,0,1
 150 206 150 206 150 132 c 0,2,3
 150 59 150 59 207 59 c 0,4,5
 263 59 263 59 263 132 c 0,6,7
 263 206 263 206 207 206 c 0,0,1
340 329 m 1,8,9
 313 342 313 342 289.5 347.5 c 128,-1,10
 266 353 266 353 245 353 c 0,11,12
 147 353 147 353 139 248 c 1,13,14
 156 261 156 261 178 268 c 128,-1,15
 200 275 200 275 225 275 c 0,16,17
 289 275 289 275 328 237.5 c 128,-1,18
 367 200 367 200 367 140 c 0,19,20
 367 73 367 73 323 32.5 c 128,-1,21
 279 -8 279 -8 206 -8 c 0,22,23
 125 -8 125 -8 80.5 46.5 c 128,-1,24
 36 101 36 101 36 203 c 0,25,26
 36 306 36 306 88 365 c 128,-1,27
 140 424 140 424 231 424 c 0,28,29
 284 424 284 424 340 407 c 1,30,-1
 340 329 l 1,8,9
EndSplineSet
EndChar
StartChar: seven
Encoding: 55 55 26
Width: 398
Flags: W
Fore
352 417 m 1,0,-1
 352 356 l 1,1,-1
 190 0 l 1,2,-1
 85 0 l 1,3,-1
 240 338 l 1,4,-1
 39 338 l 1,5,-1
 39 417 l 1,6,-1
 352 417 l 1,0,-1
EndSplineSet
EndChar
StartChar: eight
Encoding: 56 56 27
Width: 398
Flags: W
Fore
199 186 m 256,0,1
 169 186 169 186 153 169.5 c 128,-1,2
 137 153 137 153 137 123 c 0,3,4
 137 59 137 59 199 59 c 256,5,6
 261 59 261 59 261 123 c 0,7,8
 261 153 261 153 245 169.5 c 128,-1,9
 229 186 229 186 199 186 c 256,0,1
121 222 m 1,10,11
 44 246 44 246 44 316 c 0,12,13
 44 370 44 370 83.5 397 c 128,-1,14
 123 424 123 424 199 424 c 0,15,16
 274 424 274 424 313.5 397 c 128,-1,17
 353 370 353 370 353 316 c 0,18,19
 353 246 353 246 276 222 c 1,20,21
 362 198 362 198 362 118 c 0,22,23
 362 -8 362 -8 199 -8 c 256,24,25
 36 -8 36 -8 36 118 c 0,26,27
 36 198 36 198 121 222 c 1,10,11
146 306 m 0,28,29
 146 281 146 281 159.5 267 c 128,-1,30
 173 253 173 253 199 253 c 256,31,32
 225 253 225 253 238 267 c 128,-1,33
 251 281 251 281 251 306 c 0,34,35
 251 356 251 356 199 356 c 0,36,37
 146 356 146 356 146 306 c 0,28,29
EndSplineSet
EndChar
StartChar: nine
Encoding: 57 57 28
Width: 398
Flags: W
Fore
57 86 m 1,0,1
 110 62 110 62 152 62 c 0,2,3
 250 62 250 62 258 168 c 1,4,5
 241 153 241 153 218.5 147 c 128,-1,6
 196 141 196 141 172 141 c 0,7,8
 108 141 108 141 68.5 178 c 128,-1,9
 29 215 29 215 29 275 c 0,10,11
 29 344 29 344 73 384 c 128,-1,12
 117 424 117 424 190 424 c 0,13,14
 272 424 272 424 316.5 369.5 c 128,-1,15
 361 315 361 315 361 213 c 0,16,17
 361 110 361 110 308.5 51 c 128,-1,18
 256 -8 256 -8 166 -8 c 0,19,20
 107 -8 107 -8 57 9 c 1,21,-1
 57 86 l 1,0,1
190 210 m 256,22,23
 247 210 247 210 247 283 c 256,24,25
 247 356 247 356 190 356 c 256,26,27
 133 356 133 356 133 283 c 256,28,29
 133 210 133 210 190 210 c 256,22,23
EndSplineSet
EndChar
StartChar: colon
Encoding: 58 58 29
Width: 229
Flags: W
Fore
165 313 m 1,0,-1
 165 205 l 1,1,-1
 64 205 l 1,2,-1
 64 313 l 1,3,-1
 165 313 l 1,0,-1
165 108 m 1,4,-1
 165 0 l 1,5,-1
 64 0 l 1,6,-1
 64 108 l 1,7,-1
 165 108 l 1,4,-1
EndSplineSet
EndChar
StartChar: semicolon
Encoding: 59 59 30
Width: 229
Flags: W
Fore
165 108 m 1,0,-1
 165 23 l 1,1,-1
 96 -81 l 1,2,-1
 37 -81 l 1,3,-1
 64 23 l 1,4,-1
 64 108 l 1,5,-1
 165 108 l 1,0,-1
165 313 m 1,6,-1
 165 205 l 1,7,-1
 64 205 l 1,8,-1
 64 313 l 1,9,-1
 165 313 l 1,6,-1
EndSplineSet
EndChar
StartChar: less
Encoding: 60 60 31
Width: 479
Flags: W
Fore
149 179 m 1,0,-1
 418 86 l 1,1,-1
 418 18 l 1,2,-1
 60 147 l 1,3,-1
 60 212 l 1,4,-1
 418 342 l 1,5,-1
 418 271 l 1,6,-1
 149 179 l 1,0,-1
EndSplineSet
EndChar
StartChar: equal
Encoding: 61 61 32
Width: 479
Flags: W
Fore
418 275 m 1,0,-1
 418 210 l 1,1,-1
 60 210 l 1,2,-1
 60 275 l 1,3,-1
 418 275 l 1,0,-1
418 149 m 1,4,-1
 418 82 l 1,5,-1
 60 82 l 1,6,-1
 60 149 l 1,7,-1
 418 149 l 1,4,-1
EndSplineSet
EndChar
StartChar: greater
Encoding: 62 62 33
Width: 479
Flags: W
Fore
60 342 m 1,0,-1
 418 212 l 1,1,-1
 418 147 l 1,2,-1
 60 18 l 1,3,-1
 60 86 l 1,4,-1
 330 179 l 1,5,-1
 60 271 l 1,6,-1
 60 342 l 1,0,-1
EndSplineSet
EndChar
StartChar: question
Encoding: 63 63 34
Width: 332
Flags: W
Fore
97 141 m 1,0,-1
 97 153 l 2,1,2
 97 177 97 177 106.5 195 c 128,-1,3
 116 213 116 213 146 241 c 2,4,-1
 163 256 l 2,5,6
 194 286 194 286 194 309 c 0,7,8
 194 329 194 329 180.5 339.5 c 128,-1,9
 167 350 167 350 144 350 c 256,10,11
 121 350 121 350 94 341.5 c 128,-1,12
 67 333 67 333 40 314 c 1,13,-1
 40 401 l 1,14,15
 73 413 73 413 101 418.5 c 128,-1,16
 129 424 129 424 154 424 c 0,17,18
 294 424 294 424 294 316 c 0,19,20
 294 288 294 288 283 266.5 c 128,-1,21
 272 245 272 245 247 220 c 2,22,-1
 229 204 l 2,23,24
 210 187 210 187 204 176.5 c 128,-1,25
 198 166 198 166 198 152 c 2,26,-1
 198 141 l 1,27,-1
 97 141 l 1,0,-1
198 100 m 1,28,-1
 198 0 l 1,29,-1
 97 0 l 1,30,-1
 97 100 l 1,31,-1
 198 100 l 1,28,-1
EndSplineSet
EndChar
StartChar: at
Encoding: 64 64 35
Width: 572
Flags: W
Fore
232 150 m 0,0,1
 232 117 232 117 246.5 97 c 128,-1,2
 261 77 261 77 286 77 c 256,3,4
 311 77 311 77 326 97 c 128,-1,5
 341 117 341 117 341 150 c 0,6,7
 341 184 341 184 326 204 c 128,-1,8
 311 224 311 224 286 224 c 256,9,10
 261 224 261 224 246.5 204 c 128,-1,11
 232 184 232 184 232 150 c 0,0,1
347 66 m 1,12,13
 338 47 338 47 320 35.5 c 128,-1,14
 302 24 302 24 276 24 c 0,15,16
 228 24 228 24 198 59 c 128,-1,17
 168 94 168 94 168 149 c 0,18,19
 168 206 168 206 198 240.5 c 128,-1,20
 228 275 228 275 276 275 c 0,21,22
 302 275 302 275 320 264 c 128,-1,23
 338 253 338 253 347 234 c 1,24,-1
 347 270 l 1,25,-1
 406 270 l 1,26,-1
 406 77 l 1,27,28
 440 82 440 82 459.5 110.5 c 128,-1,29
 479 139 479 139 479 182 c 0,30,31
 479 236 479 236 446 278 c 0,32,33
 420 313 420 313 380 331 c 128,-1,34
 340 349 340 349 294 349 c 0,35,36
 261 349 261 349 232 341 c 128,-1,37
 203 333 203 333 177 316 c 0,38,39
 137 289 137 289 113 245.5 c 128,-1,40
 89 202 89 202 89 151 c 0,41,42
 89 69 89 69 149 9 c 0,43,44
 175 -19 175 -19 211 -33 c 128,-1,45
 247 -47 247 -47 289 -47 c 0,46,47
 325 -47 325 -47 360 -34 c 128,-1,48
 395 -21 395 -21 420 1 c 1,49,-1
 450 -44 l 1,50,51
 415 -70 415 -70 374 -85 c 128,-1,52
 333 -100 333 -100 290 -100 c 0,53,54
 185 -100 185 -100 110 -28 c 0,55,56
 75 7 75 7 56.5 53 c 128,-1,57
 38 99 38 99 38 151 c 256,58,59
 38 203 38 203 57 248.5 c 128,-1,60
 76 294 76 294 110 330 c 0,61,62
 147 364 147 364 193 383 c 128,-1,63
 239 402 239 402 290 402 c 0,64,65
 353 402 353 402 403.5 378 c 128,-1,66
 454 354 454 354 489 309 c 0,67,68
 532 254 532 254 532 183 c 0,69,70
 532 107 532 107 486.5 65 c 128,-1,71
 441 23 441 23 357 23 c 2,72,-1
 347 23 l 1,73,-1
 347 66 l 1,74,-1
 347 66 l 1,12,13
EndSplineSet
EndChar
StartChar: A
Encoding: 65 65 36
Width: 443
Flags: W
Fore
138 76 m 1,0,-1
 110 0 l 1,1,-1
 3 0 l 1,2,-1
 157 417 l 1,3,-1
 285 417 l 1,4,-1
 440 0 l 1,5,-1
 332 0 l 1,6,-1
 306 76 l 1,7,-1
 138 76 l 1,0,-1
278 152 m 1,8,-1
 222 319 l 1,9,-1
 164 152 l 1,10,-1
 278 152 l 1,8,-1
EndSplineSet
KernsSLIFO: 57 -50 0 0
EndChar
StartChar: B
Encoding: 66 66 37
Width: 436
Flags: W
Fore
220 255 m 1,0,1
 271 255 271 255 271 299 c 0,2,3
 271 345 271 345 220 345 c 2,4,-1
 160 345 l 1,5,-1
 160 255 l 1,6,-1
 220 255 l 1,7,-1
 220 255 l 1,0,1
223 73 m 1,8,9
 288 73 288 73 288 128 c 0,10,11
 288 182 288 182 223 182 c 2,12,-1
 160 182 l 1,13,-1
 160 73 l 1,14,-1
 223 73 l 1,15,-1
 223 73 l 1,8,9
324 223 m 1,16,17
 357 213 357 213 376 186 c 128,-1,18
 395 159 395 159 395 120 c 0,19,20
 395 0 395 0 231 0 c 2,21,-1
 52 0 l 1,22,-1
 52 417 l 1,23,-1
 214 417 l 2,24,25
 301 417 301 417 339.5 391 c 128,-1,26
 378 365 378 365 378 307 c 0,27,28
 378 246 378 246 324 223 c 1,16,17
EndSplineSet
EndChar
StartChar: C
Encoding: 67 67 38
Width: 420
Flags: W
Fore
383 23 m 1,0,1
 324 -8 324 -8 254 -8 c 0,2,3
 202 -8 202 -8 160 7 c 128,-1,4
 118 22 118 22 89 50 c 128,-1,5
 60 78 60 78 44 118 c 128,-1,6
 28 158 28 158 28 208 c 256,7,8
 28 258 28 258 44 298 c 128,-1,9
 60 338 60 338 89 366 c 128,-1,10
 118 394 118 394 160 409 c 128,-1,11
 202 424 202 424 254 424 c 0,12,13
 324 424 324 424 383 393 c 1,14,-1
 383 307 l 1,15,16
 353 328 353 328 324 337.5 c 128,-1,17
 295 347 295 347 263 347 c 0,18,19
 206 347 206 347 173 309.5 c 128,-1,20
 140 272 140 272 140 208 c 256,21,22
 140 144 140 144 173 106.5 c 128,-1,23
 206 69 206 69 263 69 c 0,24,25
 295 69 295 69 324 78.5 c 128,-1,26
 353 88 353 88 383 109 c 1,27,-1
 383 23 l 1,28,-1
 383 23 l 1,0,1
EndSplineSet
EndChar
StartChar: D
Encoding: 68 68 39
Width: 475
Flags: W
Fore
160 81 m 1,0,-1
 199 81 l 2,1,2
 265 81 265 81 299.5 113.5 c 128,-1,3
 334 146 334 146 334 209 c 256,4,5
 334 272 334 272 299.5 304 c 128,-1,6
 265 336 265 336 199 336 c 2,7,-1
 160 336 l 1,8,-1
 160 81 l 1,0,-1
166 417 m 2,9,10
 259 417 259 417 307 403 c 0,11,12
 353 390 353 390 387 357 c 0,13,14
 445 302 445 302 445 209 c 0,15,16
 445 114 445 114 387 59 c 0,17,18
 351 26 351 26 306 13 c 256,19,20
 261 0 261 0 166 0 c 2,21,-1
 52 0 l 1,22,-1
 52 417 l 1,23,-1
 166 417 l 2,9,10
EndSplineSet
EndChar
StartChar: E
Encoding: 69 69 40
Width: 390
Flags: W
Fore
344 417 m 1,0,-1
 344 336 l 1,1,-1
 160 336 l 1,2,-1
 160 257 l 1,3,-1
 332 257 l 1,4,-1
 332 177 l 1,5,-1
 160 177 l 1,6,-1
 160 81 l 1,7,-1
 348 81 l 1,8,-1
 348 0 l 1,9,-1
 52 0 l 1,10,-1
 52 417 l 1,11,-1
 344 417 l 1,0,-1
EndSplineSet
EndChar
StartChar: F
Encoding: 70 70 41
Width: 390
Flags: W
Fore
344 417 m 1,0,-1
 344 336 l 1,1,-1
 160 336 l 1,2,-1
 160 257 l 1,3,-1
 332 257 l 1,4,-1
 332 177 l 1,5,-1
 160 177 l 1,6,-1
 160 0 l 1,7,-1
 52 0 l 1,8,-1
 52 417 l 1,9,-1
 344 417 l 1,0,-1
EndSplineSet
EndChar
StartChar: G
Encoding: 71 71 42
Width: 470
Flags: W
Fore
428 32 m 1,0,1
 347 -8 347 -8 254 -8 c 0,2,3
 202 -8 202 -8 160 7 c 128,-1,4
 118 22 118 22 89 50 c 128,-1,5
 60 78 60 78 44 118 c 128,-1,6
 28 158 28 158 28 208 c 0,7,8
 28 310 28 310 89.5 367 c 128,-1,9
 151 424 151 424 260 424 c 0,10,11
 346 424 346 424 412 393 c 1,12,-1
 412 307 l 1,13,14
 342 347 342 347 273 347 c 0,15,16
 209 347 209 347 174.5 310.5 c 128,-1,17
 140 274 140 274 140 208 c 256,18,19
 140 142 140 142 173.5 105.5 c 128,-1,20
 207 69 207 69 268 69 c 0,21,22
 303 69 303 69 326 79 c 1,23,-1
 326 159 l 1,24,-1
 260 159 l 1,25,-1
 260 232 l 1,26,-1
 428 232 l 1,27,-1
 428 32 l 1,28,-1
 428 32 l 1,0,1
EndSplineSet
EndChar
StartChar: H
Encoding: 72 72 43
Width: 478
Flags: W
Fore
160 417 m 1,0,-1
 160 257 l 1,1,-1
 319 257 l 1,2,-1
 319 417 l 1,3,-1
 427 417 l 1,4,-1
 427 0 l 1,5,-1
 319 0 l 1,6,-1
 319 177 l 1,7,-1
 160 177 l 1,8,-1
 160 0 l 1,9,-1
 52 0 l 1,10,-1
 52 417 l 1,11,-1
 160 417 l 1,0,-1
EndSplineSet
EndChar
StartChar: I
Encoding: 73 73 44
Width: 213
Flags: W
Fore
160 417 m 1,0,-1
 160 0 l 1,1,-1
 52 0 l 1,2,-1
 52 417 l 1,3,-1
 160 417 l 1,0,-1
EndSplineSet
EndChar
StartChar: J
Encoding: 74 74 45
Width: 213
Flags: W
Fore
160 417 m 1,0,-1
 160 41 l 2,1,2
 160 -38 160 -38 118.5 -76.5 c 128,-1,3
 77 -115 77 -115 -11 -115 c 2,4,-1
 -33 -115 l 1,5,-1
 -33 -34 l 1,6,-1
 -16 -34 l 2,7,8
 52 -34 52 -34 52 41 c 2,9,-1
 52 417 l 1,10,-1
 160 417 l 1,0,-1
EndSplineSet
EndChar
StartChar: K
Encoding: 75 75 46
Width: 443
Flags: W
Fore
160 417 m 1,0,-1
 160 264 l 1,1,-1
 315 417 l 1,2,-1
 440 417 l 1,3,-1
 240 220 l 1,4,-1
 460 0 l 1,5,-1
 326 0 l 1,6,-1
 160 164 l 1,7,-1
 160 0 l 1,8,-1
 52 0 l 1,9,-1
 52 417 l 1,10,-1
 160 417 l 1,0,-1
EndSplineSet
EndChar
StartChar: L
Encoding: 76 76 47
Width: 365
Flags: W
Fore
160 417 m 1,0,-1
 160 81 l 1,1,-1
 348 81 l 1,2,-1
 348 0 l 1,3,-1
 52 0 l 1,4,-1
 52 417 l 1,5,-1
 160 417 l 1,0,-1
EndSplineSet
EndChar
StartChar: M
Encoding: 77 77 48
Width: 568
Flags: W
Fore
189 417 m 1,0,-1
 284 194 l 1,1,-1
 379 417 l 1,2,-1
 517 417 l 1,3,-1
 517 0 l 1,4,-1
 415 0 l 1,5,-1
 415 305 l 1,6,-1
 319 80 l 1,7,-1
 250 80 l 1,8,-1
 153 305 l 1,9,-1
 153 0 l 1,10,-1
 52 0 l 1,11,-1
 52 417 l 1,12,-1
 189 417 l 1,0,-1
EndSplineSet
EndChar
StartChar: N
Encoding: 78 78 49
Width: 478
Flags: W
Fore
172 417 m 1,0,-1
 325 131 l 1,1,-1
 325 417 l 1,2,-1
 427 417 l 1,3,-1
 427 0 l 1,4,-1
 306 0 l 1,5,-1
 153 286 l 1,6,-1
 153 0 l 1,7,-1
 52 0 l 1,8,-1
 52 417 l 1,9,-1
 172 417 l 1,0,-1
EndSplineSet
EndChar
StartChar: O
Encoding: 79 79 50
Width: 486
Flags: W
Fore
244 347 m 0,0,1
 193 347 193 347 166.5 310.5 c 128,-1,2
 140 274 140 274 140 208 c 256,3,4
 140 142 140 142 166.5 105.5 c 128,-1,5
 193 69 193 69 244 69 c 0,6,7
 292 69 292 69 319.5 105.5 c 128,-1,8
 347 142 347 142 347 208 c 256,9,10
 347 274 347 274 319.5 310.5 c 128,-1,11
 292 347 292 347 244 347 c 0,0,1
244 424 m 256,12,13
 346 424 346 424 401.5 367 c 128,-1,14
 457 310 457 310 457 208 c 256,15,16
 457 106 457 106 401.5 49 c 128,-1,17
 346 -8 346 -8 244 -8 c 256,18,19
 142 -8 142 -8 85 49 c 128,-1,20
 28 106 28 106 28 208 c 256,21,22
 28 310 28 310 85 367 c 128,-1,23
 142 424 142 424 244 424 c 256,12,13
EndSplineSet
EndChar
StartChar: P
Encoding: 80 80 51
Width: 419
Flags: W
Fore
231 417 m 2,0,1
 312 417 312 417 353.5 382 c 128,-1,2
 395 347 395 347 395 281 c 256,3,4
 395 215 395 215 353.5 180 c 128,-1,5
 312 145 312 145 231 145 c 2,6,-1
 160 145 l 1,7,-1
 160 0 l 1,8,-1
 52 0 l 1,9,-1
 52 417 l 1,10,-1
 231 417 l 2,0,1
160 223 m 1,11,-1
 220 223 l 2,12,13
 250 223 250 223 267.5 237.5 c 128,-1,14
 285 252 285 252 285 281 c 0,15,16
 285 309 285 309 267.5 324 c 128,-1,17
 250 339 250 339 220 339 c 2,18,-1
 160 339 l 1,19,-1
 160 223 l 1,11,-1
EndSplineSet
EndChar
StartChar: Q
Encoding: 81 81 52
Width: 486
Flags: W
Fore
247 -7 m 2,0,1
 144 -7 144 -7 86 49.5 c 128,-1,2
 28 106 28 106 28 208 c 256,3,4
 28 310 28 310 85 367 c 128,-1,5
 142 424 142 424 244 424 c 256,6,7
 346 424 346 424 401.5 367.5 c 128,-1,8
 457 311 457 311 457 208 c 0,9,10
 457 138 457 138 427.5 87.5 c 128,-1,11
 398 37 398 37 341 11 c 1,12,-1
 425 -83 l 1,13,-1
 323 -83 l 1,14,-1
 254 -7 l 1,15,-1
 247 -7 l 2,0,1
244 347 m 0,16,17
 193 347 193 347 166.5 310.5 c 128,-1,18
 140 274 140 274 140 208 c 256,19,20
 140 142 140 142 166.5 105.5 c 128,-1,21
 193 69 193 69 244 69 c 0,22,23
 292 69 292 69 319.5 105.5 c 128,-1,24
 347 142 347 142 347 208 c 256,25,26
 347 274 347 274 319.5 310.5 c 128,-1,27
 292 347 292 347 244 347 c 0,16,17
EndSplineSet
EndChar
StartChar: R
Encoding: 82 82 53
Width: 440
Flags: W
Fore
205 232 m 1,0,1
 240 232 240 232 254 244.5 c 128,-1,2
 268 257 268 257 268 286 c 0,3,4
 268 314 268 314 254 326.5 c 128,-1,5
 240 339 240 339 205 339 c 2,6,-1
 160 339 l 1,7,-1
 160 232 l 1,8,-1
 205 232 l 1,9,-1
 205 232 l 1,0,1
160 0 m 1,10,-1
 52 0 l 1,11,-1
 52 417 l 1,12,-1
 216 417 l 2,13,14
 300 417 300 417 337.5 389 c 128,-1,15
 375 361 375 361 375 303 c 0,16,17
 375 220 375 220 295 195 c 1,18,19
 318 190 318 190 335 171.5 c 128,-1,20
 352 153 352 153 370 119 c 2,21,-1
 430 0 l 1,22,-1
 314 0 l 1,23,-1
 263 104 l 2,24,25
 248 136 248 136 232 147 c 128,-1,26
 216 158 216 158 190 158 c 2,27,-1
 160 158 l 1,28,-1
 160 0 l 1,10,-1
EndSplineSet
EndChar
StartChar: S
Encoding: 83 83 54
Width: 412
Flags: W
Fore
344 316 m 1,0,1
 308 331 308 331 276 339 c 128,-1,2
 244 347 244 347 214 347 c 0,3,4
 174 347 174 347 156.5 336.5 c 128,-1,5
 139 326 139 326 139 304 c 0,6,7
 139 286 139 286 151 276.5 c 128,-1,8
 163 267 163 267 195 261 c 2,9,-1
 242 251 l 2,10,11
 311 238 311 238 340.5 210 c 128,-1,12
 370 182 370 182 370 128 c 0,13,14
 370 -8 370 -8 204 -8 c 0,15,16
 125 -8 125 -8 45 22 c 1,17,-1
 45 112 l 1,18,19
 126 69 126 69 194 69 c 0,20,21
 229 69 229 69 247.5 81.5 c 128,-1,22
 266 94 266 94 266 116 c 0,23,24
 266 134 266 134 254 145 c 128,-1,25
 242 156 242 156 203 164 c 2,26,-1
 161 173 l 2,27,28
 98 187 98 187 70 216.5 c 128,-1,29
 42 246 42 246 42 295 c 0,30,31
 42 358 42 358 81.5 391 c 128,-1,32
 121 424 121 424 196 424 c 0,33,34
 231 424 231 424 267.5 419 c 128,-1,35
 304 414 304 414 344 403 c 1,36,-1
 344 316 l 1,0,1
EndSplineSet
EndChar
StartChar: T
Encoding: 84 84 55
Width: 390
Flags: W
Fore
387 417 m 1,0,-1
 387 336 l 1,1,-1
 248 336 l 1,2,-1
 248 0 l 1,3,-1
 142 0 l 1,4,-1
 142 336 l 1,5,-1
 3 336 l 1,6,-1
 3 417 l 1,7,-1
 387 417 l 1,0,-1
EndSplineSet
EndChar
StartChar: U
Encoding: 85 85 56
Width: 464
Flags: W
Fore
160 417 m 1,0,-1
 160 167 l 2,1,2
 160 116 160 116 177 93 c 128,-1,3
 194 70 194 70 232 70 c 256,4,5
 270 70 270 70 287.5 93 c 128,-1,6
 305 116 305 116 305 167 c 2,7,-1
 305 417 l 1,8,-1
 412 417 l 1,9,-1
 412 167 l 2,10,11
 412 79 412 79 368.5 35.5 c 128,-1,12
 325 -8 325 -8 232 -8 c 0,13,14
 52 -8 52 -8 52 167 c 2,15,-1
 52 417 l 1,16,-1
 160 417 l 1,0,-1
EndSplineSet
EndChar
StartChar: V
Encoding: 86 86 57
Width: 443
Flags: W
Fore
110 417 m 1,0,-1
 222 109 l 1,1,-1
 332 417 l 1,2,-1
 440 417 l 1,3,-1
 285 0 l 1,4,-1
 157 0 l 1,5,-1
 3 417 l 1,6,-1
 110 417 l 1,0,-1
EndSplineSet
KernsSLIFO: 36 -50 0 0
EndChar
StartChar: W
Encoding: 87 87 58
Width: 630
Flags: W
Fore
121 417 m 1,0,-1
 192 113 l 1,1,-1
 263 417 l 1,2,-1
 367 417 l 1,3,-1
 439 113 l 1,4,-1
 511 417 l 1,5,-1
 612 417 l 1,6,-1
 515 0 l 1,7,-1
 390 0 l 1,8,-1
 315 317 l 1,9,-1
 241 0 l 1,10,-1
 117 0 l 1,11,-1
 18 417 l 1,12,-1
 121 417 l 1,0,-1
EndSplineSet
EndChar
StartChar: X
Encoding: 88 88 59
Width: 441
Flags: W
Fore
430 0 m 1,0,-1
 317 0 l 1,1,-1
 220 143 l 1,2,-1
 124 0 l 1,3,-1
 11 0 l 1,4,-1
 154 213 l 1,5,-1
 17 417 l 1,6,-1
 129 417 l 1,7,-1
 220 283 l 1,8,-1
 311 417 l 1,9,-1
 424 417 l 1,10,-1
 285 213 l 1,11,-1
 430 0 l 1,0,-1
EndSplineSet
EndChar
StartChar: Y
Encoding: 89 89 60
Width: 414
Flags: W
Fore
112 417 m 1,0,-1
 207 268 l 1,1,-1
 303 417 l 1,2,-1
 420 417 l 1,3,-1
 261 175 l 1,4,-1
 261 0 l 1,5,-1
 152 0 l 1,6,-1
 152 175 l 1,7,-1
 -5 417 l 1,8,-1
 112 417 l 1,0,-1
EndSplineSet
EndChar
StartChar: Z
Encoding: 90 90 61
Width: 415
Flags: W
Fore
382 417 m 1,0,-1
 382 351 l 1,1,-1
 159 81 l 1,2,-1
 389 81 l 1,3,-1
 389 0 l 1,4,-1
 26 0 l 1,5,-1
 26 65 l 1,6,-1
 249 336 l 1,7,-1
 33 336 l 1,8,-1
 33 417 l 1,9,-1
 382 417 l 1,0,-1
EndSplineSet
EndChar
StartChar: bracketleft
Encoding: 91 91 62
Width: 261
Flags: W
Fore
223 435 m 1,0,-1
 223 371 l 1,1,-1
 145 371 l 1,2,-1
 145 -13 l 1,3,-1
 223 -13 l 1,4,-1
 223 -76 l 1,5,-1
 49 -76 l 1,6,-1
 49 435 l 1,7,-1
 223 435 l 1,0,-1
EndSplineSet
EndChar
StartChar: backslash
Encoding: 92 92 63
Width: 209
Flags: W
Fore
0 417 m 1,0,-1
 62 417 l 1,1,-1
 209 -53 l 1,2,-1
 147 -53 l 1,3,-1
 0 417 l 1,0,-1
EndSplineSet
EndChar
StartChar: bracketright
Encoding: 93 93 64
Width: 261
Flags: W
Fore
39 -76 m 1,0,-1
 39 -13 l 1,1,-1
 118 -13 l 1,2,-1
 118 371 l 1,3,-1
 39 371 l 1,4,-1
 39 435 l 1,5,-1
 212 435 l 1,6,-1
 212 -76 l 1,7,-1
 39 -76 l 1,0,-1
EndSplineSet
EndChar
StartChar: asciicircum
Encoding: 94 94 65
Width: 479
Flags: W
Fore
421 261 m 1,0,-1
 353 261 l 1,1,-1
 240 346 l 1,2,-1
 126 261 l 1,3,-1
 58 261 l 1,4,-1
 205 417 l 1,5,-1
 274 417 l 1,6,-1
 421 261 l 1,0,-1
EndSplineSet
EndChar
StartChar: underscore
Encoding: 95 95 66
Width: 286
Flags: W
Fore
286 -136 m 1,0,-1
 0 -136 l 1,1,-1
 0 -82 l 1,2,-1
 286 -82 l 1,3,-1
 286 -136 l 1,0,-1
EndSplineSet
EndChar
StartChar: grave
Encoding: 96 96 67
Width: 286
Flags: W
Fore
184 352 m 1,0,-1
 130 352 l 1,1,-1
 26 457 l 1,2,-1
 105 457 l 1,3,-1
 184 352 l 1,0,-1
EndSplineSet
EndChar
StartChar: a
Encoding: 97 97 68
Width: 386
Flags: W
Fore
188 141 m 1,0,1
 126 141 126 141 126 99 c 0,2,3
 126 80 126 80 138 69 c 128,-1,4
 150 58 150 58 173 58 c 0,5,6
 202 58 202 58 221.5 78.5 c 128,-1,7
 241 99 241 99 241 130 c 2,8,-1
 241 141 l 1,9,-1
 188 141 l 1,10,-1
 188 141 l 1,0,1
341 0 m 1,11,-1
 241 0 l 1,12,-1
 241 46 l 1,13,14
 220 18 220 18 194.5 5 c 128,-1,15
 169 -8 169 -8 133 -8 c 0,16,17
 85 -8 85 -8 54.5 20.5 c 128,-1,18
 24 49 24 49 24 94 c 0,19,20
 24 149 24 149 62 174.5 c 128,-1,21
 100 200 100 200 181 200 c 2,22,-1
 241 200 l 1,23,-1
 241 208 l 2,24,25
 241 232 241 232 222 242.5 c 128,-1,26
 203 253 203 253 163 253 c 0,27,28
 131 253 131 253 103.5 247.5 c 128,-1,29
 76 242 76 242 52 228 c 1,30,-1
 52 305 l 1,31,32
 84 312 84 312 116.5 316 c 128,-1,33
 149 320 149 320 181 320 c 0,34,35
 266 320 266 320 303.5 286.5 c 128,-1,36
 341 253 341 253 341 178 c 2,37,-1
 341 0 l 1,11,-1
EndSplineSet
Substitution: 0 65534 'L019' uni0E38
Substitution: 0 65534 'L019' uni0E38
EndChar
StartChar: b
Encoding: 98 98 69
Width: 410
Flags: W
Fore
214 64 m 0,0,1
 281 64 281 64 281 156 c 256,2,3
 281 248 281 248 214 248 c 0,4,5
 149 248 149 248 149 156 c 256,6,7
 149 64 149 64 214 64 c 0,0,1
149 267 m 1,8,9
 186 320 186 320 251 320 c 0,10,11
 280 320 280 320 304 308 c 128,-1,12
 328 296 328 296 345.5 274.5 c 128,-1,13
 363 253 363 253 373 222.5 c 128,-1,14
 383 192 383 192 383 156 c 256,15,16
 383 120 383 120 373 90 c 128,-1,17
 363 60 363 60 345.5 38 c 128,-1,18
 328 16 328 16 304 4 c 128,-1,19
 280 -8 280 -8 251 -8 c 0,20,21
 186 -8 186 -8 149 45 c 1,22,-1
 149 0 l 1,23,-1
 48 0 l 1,24,-1
 48 435 l 1,25,-1
 149 435 l 1,26,-1
 149 267 l 1,27,-1
 149 267 l 1,8,9
EndSplineSet
Substitution: 0 65534 'L019' uni0E39
Substitution: 0 65534 'L019' uni0E39
EndChar
StartChar: c
Encoding: 99 99 70
Width: 339
Flags: W
Fore
300 222 m 1,0,1
 281 236 281 236 260.5 242 c 128,-1,2
 240 248 240 248 217 248 c 0,3,4
 174 248 174 248 151.5 224.5 c 128,-1,5
 129 201 129 201 129 156 c 256,6,7
 129 111 129 111 151.5 87 c 128,-1,8
 174 63 174 63 217 63 c 0,9,10
 241 63 241 63 262 70 c 128,-1,11
 283 77 283 77 300 90 c 1,12,-1
 300 9 l 1,13,14
 277 0 277 0 253 -4 c 128,-1,15
 229 -8 229 -8 205 -8 c 0,16,17
 120 -8 120 -8 72 35 c 128,-1,18
 24 78 24 78 24 156 c 256,19,20
 24 234 24 234 72 277 c 128,-1,21
 120 320 120 320 205 320 c 0,22,23
 255 320 255 320 300 304 c 1,24,-1
 300 222 l 1,0,1
EndSplineSet
Substitution: 0 65534 'L019' uni0E3A
Substitution: 0 65534 'L019' uni0E3A
EndChar
StartChar: d
Encoding: 100 100 71
Width: 410
Flags: W
Fore
261 435 m 1,0,-1
 361 435 l 1,1,-1
 361 0 l 1,2,-1
 261 0 l 1,3,-1
 261 45 l 1,4,5
 221 -8 221 -8 158 -8 c 0,6,7
 129 -8 129 -8 105 4 c 128,-1,8
 81 16 81 16 63.5 38 c 128,-1,9
 46 60 46 60 36 90 c 128,-1,10
 26 120 26 120 26 156 c 256,11,12
 26 192 26 192 36 222.5 c 128,-1,13
 46 253 46 253 63.5 274.5 c 128,-1,14
 81 296 81 296 105 308 c 128,-1,15
 129 320 129 320 158 320 c 0,16,17
 221 320 221 320 261 267 c 1,18,-1
 261 435 l 1,0,-1
195 64 m 0,19,20
 261 64 261 64 261 156 c 256,21,22
 261 248 261 248 195 248 c 0,23,24
 130 248 130 248 130 156 c 256,25,26
 130 64 130 64 195 64 c 0,19,20
EndSplineSet
EndChar
StartChar: e
Encoding: 101 101 72
Width: 388
Flags: W
Fore
360 129 m 1,0,-1
 127 129 l 1,1,2
 133 58 133 58 213 58 c 0,3,4
 275 58 275 58 346 96 c 1,5,-1
 346 19 l 1,6,7
 310 5 310 5 275 -1.5 c 128,-1,8
 240 -8 240 -8 204 -8 c 0,9,10
 119 -8 119 -8 71.5 35 c 128,-1,11
 24 78 24 78 24 156 c 256,12,13
 24 234 24 234 70.5 277 c 128,-1,14
 117 320 117 320 198 320 c 0,15,16
 271 320 271 320 315.5 276 c 128,-1,17
 360 232 360 232 360 157 c 2,18,-1
 360 129 l 1,0,-1
257 190 m 1,19,20
 257 219 257 219 241 236 c 128,-1,21
 225 253 225 253 198 253 c 0,22,23
 168 253 168 253 150 237.5 c 128,-1,24
 132 222 132 222 128 190 c 1,25,-1
 257 190 l 1,26,-1
 257 190 l 1,19,20
EndSplineSet
EndChar
StartChar: f
Encoding: 102 102 73
Width: 248
Flags: W
Fore
253 369 m 1,0,-1
 199 369 l 2,1,2
 177 369 177 369 168.5 361 c 128,-1,3
 160 353 160 353 160 335 c 2,4,-1
 160 313 l 1,5,-1
 247 313 l 1,6,-1
 247 242 l 1,7,-1
 160 242 l 1,8,-1
 160 0 l 1,9,-1
 60 0 l 1,10,-1
 60 242 l 1,11,-1
 11 242 l 1,12,-1
 11 313 l 1,13,-1
 60 313 l 1,14,-1
 60 335 l 2,15,16
 60 435 60 435 177 435 c 2,17,-1
 253 435 l 1,18,-1
 253 369 l 1,0,-1
EndSplineSet
EndChar
StartChar: g
Encoding: 103 103 74
Width: 410
Flags: W
Fore
261 53 m 1,0,1
 221 0 221 0 158 0 c 0,2,3
 101 0 101 0 63 45 c 0,4,5
 26 89 26 89 26 160 c 256,6,7
 26 231 26 231 63 275 c 0,8,9
 101 320 101 320 158 320 c 0,10,11
 222 320 222 320 261 266 c 1,12,-1
 261 313 l 1,13,-1
 361 313 l 1,14,-1
 361 32 l 2,15,16
 361 -44 361 -44 313.5 -84 c 128,-1,17
 266 -124 266 -124 175 -124 c 0,18,19
 117 -124 117 -124 64 -105 c 1,20,-1
 64 -27 l 1,21,22
 90 -43 90 -43 115.5 -50 c 128,-1,23
 141 -57 141 -57 166 -57 c 0,24,25
 215 -57 215 -57 238 -36.5 c 128,-1,26
 261 -16 261 -16 261 32 c 2,27,-1
 261 53 l 1,28,-1
 261 53 l 1,0,1
195 248 m 0,29,30
 164 248 164 248 147 225 c 128,-1,31
 130 202 130 202 130 160 c 0,32,33
 130 73 130 73 195 73 c 0,34,35
 227 73 227 73 244 95.5 c 128,-1,36
 261 118 261 118 261 160 c 256,37,38
 261 202 261 202 244 225 c 128,-1,39
 227 248 227 248 195 248 c 0,29,30
EndSplineSet
EndChar
StartChar: h
Encoding: 104 104 75
Width: 408
Flags: W
Fore
362 0 m 1,0,-1
 262 0 l 1,1,-1
 262 32 l 1,2,-1
 262 146 l 2,3,4
 262 186 262 186 260 201 c 128,-1,5
 258 216 258 216 253 225 c 0,6,7
 241 245 241 245 215 245 c 0,8,9
 184 245 184 245 166.5 220.5 c 128,-1,10
 149 196 149 196 149 153 c 2,11,-1
 149 0 l 1,12,-1
 48 0 l 1,13,-1
 48 435 l 1,14,-1
 149 435 l 1,15,-1
 149 267 l 1,16,17
 190 320 190 320 252 320 c 0,18,19
 306 320 306 320 334 286.5 c 128,-1,20
 362 253 362 253 362 190 c 2,21,-1
 362 0 l 1,0,-1
EndSplineSet
EndChar
StartChar: i
Encoding: 105 105 76
Width: 195
Flags: W
Fore
149 313 m 1,0,-1
 149 0 l 1,1,-1
 48 0 l 1,2,-1
 48 313 l 1,3,-1
 149 313 l 1,0,-1
149 435 m 1,4,-1
 149 352 l 1,5,-1
 48 352 l 1,6,-1
 48 435 l 1,7,-1
 149 435 l 1,4,-1
EndSplineSet
EndChar
StartChar: j
Encoding: 106 106 77
Width: 195
Flags: W
Fore
149 313 m 1,0,-1
 149 5 l 2,1,2
 149 -58 149 -58 118 -91 c 128,-1,3
 87 -124 87 -124 30 -124 c 2,4,-1
 -19 -124 l 1,5,-1
 -19 -58 l 1,6,-1
 -1 -58 l 2,7,8
 27 -58 27 -58 37.5 -45.5 c 128,-1,9
 48 -33 48 -33 48 5 c 2,10,-1
 48 313 l 1,11,-1
 149 313 l 1,0,-1
149 435 m 1,12,-1
 149 352 l 1,13,-1
 48 352 l 1,14,-1
 48 435 l 1,15,-1
 149 435 l 1,12,-1
EndSplineSet
EndChar
StartChar: k
Encoding: 107 107 78
Width: 380
Flags: W
Fore
149 435 m 1,0,-1
 149 198 l 1,1,-1
 263 313 l 1,2,-1
 379 313 l 1,3,-1
 227 169 l 1,4,-1
 391 0 l 1,5,-1
 270 0 l 1,6,-1
 149 130 l 1,7,-1
 149 0 l 1,8,-1
 48 0 l 1,9,-1
 48 435 l 1,10,-1
 149 435 l 1,0,-1
EndSplineSet
EndChar
StartChar: l
Encoding: 108 108 79
Width: 195
Flags: W
Fore
149 435 m 1,0,-1
 149 0 l 1,1,-1
 48 0 l 1,2,-1
 48 435 l 1,3,-1
 149 435 l 1,0,-1
EndSplineSet
EndChar
StartChar: m
Encoding: 109 109 80
Width: 596
Flags: W
Fore
338 261 m 1,0,1
 356 290 356 290 383 305 c 128,-1,2
 410 320 410 320 440 320 c 0,3,4
 495 320 495 320 523 286.5 c 128,-1,5
 551 253 551 253 551 190 c 2,6,-1
 551 0 l 1,7,-1
 450 0 l 1,8,-1
 450 163 l 2,9,10
 450 166 450 166 450.5 170 c 128,-1,11
 451 174 451 174 451 182 c 0,12,13
 451 215 451 215 441.5 230 c 128,-1,14
 432 245 432 245 410 245 c 0,15,16
 349 245 349 245 349 153 c 2,17,-1
 349 0 l 1,18,-1
 248 0 l 1,19,-1
 248 163 l 2,20,21
 248 189 248 189 246 205 c 128,-1,22
 244 221 244 221 239.5 230 c 128,-1,23
 235 239 235 239 227.5 242 c 128,-1,24
 220 245 220 245 208 245 c 0,25,26
 149 245 149 245 149 153 c 2,27,-1
 149 0 l 1,28,-1
 48 0 l 1,29,-1
 48 313 l 1,30,-1
 149 313 l 1,31,-1
 149 267 l 1,32,33
 184 320 184 320 244 320 c 0,34,35
 275 320 275 320 300.5 304.5 c 128,-1,36
 326 289 326 289 338 261 c 1,0,1
EndSplineSet
EndChar
StartChar: n
Encoding: 110 110 81
Width: 408
Flags: W
Fore
362 0 m 1,0,-1
 262 0 l 1,1,-1
 262 32 l 1,2,-1
 262 146 l 2,3,4
 262 186 262 186 260 201 c 128,-1,5
 258 216 258 216 253 225 c 0,6,7
 241 245 241 245 215 245 c 0,8,9
 184 245 184 245 166.5 220.5 c 128,-1,10
 149 196 149 196 149 153 c 2,11,-1
 149 0 l 1,12,-1
 48 0 l 1,13,-1
 48 313 l 1,14,-1
 149 313 l 1,15,-1
 149 267 l 1,16,17
 190 320 190 320 252 320 c 0,18,19
 306 320 306 320 334 286.5 c 128,-1,20
 362 253 362 253 362 190 c 2,21,-1
 362 0 l 1,0,-1
EndSplineSet
EndChar
StartChar: o
Encoding: 111 111 82
Width: 393
Flags: W
Fore
196 248 m 0,0,1
 129 248 129 248 129 156 c 0,2,3
 129 111 129 111 146 87 c 128,-1,4
 163 63 163 63 196 63 c 0,5,6
 230 63 230 63 247 87 c 128,-1,7
 264 111 264 111 264 156 c 0,8,9
 264 248 264 248 196 248 c 0,0,1
196 320 m 256,10,11
 277 320 277 320 322.5 277 c 128,-1,12
 368 234 368 234 368 156 c 256,13,14
 368 78 368 78 322.5 35 c 128,-1,15
 277 -8 277 -8 196 -8 c 256,16,17
 115 -8 115 -8 69.5 35 c 128,-1,18
 24 78 24 78 24 156 c 256,19,20
 24 234 24 234 69.5 277 c 128,-1,21
 115 320 115 320 196 320 c 256,10,11
EndSplineSet
EndChar
StartChar: p
Encoding: 112 112 83
Width: 410
Flags: W
Fore
149 -119 m 1,0,-1
 48 -119 l 1,1,-1
 48 313 l 1,2,-1
 149 313 l 1,3,-1
 149 267 l 1,4,5
 186 320 186 320 251 320 c 0,6,7
 280 320 280 320 304 308 c 128,-1,8
 328 296 328 296 345.5 274.5 c 128,-1,9
 363 253 363 253 373 222.5 c 128,-1,10
 383 192 383 192 383 156 c 256,11,12
 383 120 383 120 373 90 c 128,-1,13
 363 60 363 60 345.5 38 c 128,-1,14
 328 16 328 16 304 4 c 128,-1,15
 280 -8 280 -8 251 -8 c 0,16,17
 186 -8 186 -8 149 45 c 1,18,-1
 149 -119 l 1,0,-1
214 248 m 0,19,20
 149 248 149 248 149 156 c 256,21,22
 149 64 149 64 214 64 c 0,23,24
 281 64 281 64 281 156 c 256,25,26
 281 248 281 248 214 248 c 0,19,20
EndSplineSet
EndChar
StartChar: q
Encoding: 113 113 84
Width: 410
Flags: W
Fore
195 248 m 0,0,1
 130 248 130 248 130 156 c 256,2,3
 130 64 130 64 195 64 c 0,4,5
 261 64 261 64 261 156 c 256,6,7
 261 248 261 248 195 248 c 0,0,1
261 45 m 1,8,9
 221 -8 221 -8 158 -8 c 0,10,11
 129 -8 129 -8 105 4 c 128,-1,12
 81 16 81 16 63.5 38 c 128,-1,13
 46 60 46 60 36 90 c 128,-1,14
 26 120 26 120 26 156 c 256,15,16
 26 192 26 192 36 222.5 c 128,-1,17
 46 253 46 253 63.5 274.5 c 128,-1,18
 81 296 81 296 105 308 c 128,-1,19
 129 320 129 320 158 320 c 0,20,21
 222 320 222 320 261 266 c 1,22,-1
 261 313 l 1,23,-1
 361 313 l 1,24,-1
 361 -119 l 1,25,-1
 261 -119 l 1,26,-1
 261 45 l 1,27,-1
 261 45 l 1,8,9
EndSplineSet
EndChar
StartChar: r
Encoding: 114 114 85
Width: 282
Flags: W
Fore
281 228 m 1,0,1
 267 234 267 234 254.5 237 c 128,-1,2
 242 240 242 240 228 240 c 0,3,4
 189 240 189 240 169 215 c 128,-1,5
 149 190 149 190 149 145 c 2,6,-1
 149 0 l 1,7,-1
 48 0 l 1,8,-1
 48 313 l 1,9,-1
 149 313 l 1,10,-1
 149 261 l 1,11,12
 184 320 184 320 252 320 c 0,13,14
 257 320 257 320 263 319.5 c 128,-1,15
 269 319 269 319 281 318 c 1,16,-1
 281 228 l 1,17,-1
 281 228 l 1,0,1
EndSplineSet
EndChar
StartChar: s
Encoding: 115 115 86
Width: 340
Flags: W
Fore
292 227 m 1,0,1
 260 241 260 241 230.5 247 c 128,-1,2
 201 253 201 253 173 253 c 0,3,4
 118 253 118 253 118 225 c 0,5,6
 118 213 118 213 128.5 206.5 c 128,-1,7
 139 200 139 200 166 196 c 2,8,-1
 183 194 l 2,9,10
 261 185 261 185 286 163 c 0,11,12
 313 141 313 141 313 92 c 0,13,14
 313 -8 313 -8 166 -8 c 0,15,16
 136 -8 136 -8 102 -3.5 c 128,-1,17
 68 1 68 1 35 12 c 1,18,-1
 35 87 l 1,19,20
 95 58 95 58 159 58 c 0,21,22
 219 58 219 58 219 90 c 0,23,24
 219 104 219 104 208.5 110.5 c 128,-1,25
 198 117 198 117 167 121 c 2,26,-1
 149 123 l 2,27,28
 83 131 83 131 56 154 c 128,-1,29
 29 177 29 177 29 223 c 0,30,31
 29 320 29 320 168 320 c 0,32,33
 222 320 222 320 292 304 c 1,34,-1
 292 227 l 1,0,1
EndSplineSet
EndChar
StartChar: t
Encoding: 116 116 87
Width: 273
Flags: W
Fore
157 313 m 1,0,-1
 260 313 l 1,1,-1
 260 242 l 1,2,-1
 157 242 l 1,3,-1
 157 108 l 2,4,5
 157 86 157 86 165.5 78.5 c 128,-1,6
 174 71 174 71 200 71 c 2,7,-1
 251 71 l 1,8,-1
 251 0 l 1,9,-1
 166 0 l 2,10,11
 106 0 106 0 81.5 24 c 128,-1,12
 57 48 57 48 57 108 c 2,13,-1
 57 242 l 1,14,-1
 7 242 l 1,15,-1
 7 313 l 1,16,-1
 57 313 l 1,17,-1
 57 401 l 1,18,-1
 157 401 l 1,19,-1
 157 313 l 1,0,-1
EndSplineSet
EndChar
StartChar: u
Encoding: 117 117 88
Width: 408
Flags: W
Fore
45 313 m 1,0,-1
 146 313 l 1,1,-1
 146 282 l 2,2,3
 146 268 146 268 146 252 c 128,-1,4
 146 236 146 236 145 217 c 2,5,-1
 145 166 l 2,6,7
 145 129 145 129 147 112.5 c 128,-1,8
 149 96 149 96 152 87 c 1,9,10
 167 67 167 67 192 67 c 0,11,12
 224 67 224 67 241 91.5 c 128,-1,13
 258 116 258 116 258 158 c 2,14,-1
 258 313 l 1,15,-1
 358 313 l 1,16,-1
 358 0 l 1,17,-1
 258 0 l 1,18,-1
 258 45 l 1,19,20
 217 -8 217 -8 154 -8 c 0,21,22
 102 -8 102 -8 73.5 25 c 128,-1,23
 45 58 45 58 45 122 c 2,24,-1
 45 313 l 1,0,-1
EndSplineSet
EndChar
StartChar: v
Encoding: 118 118 89
Width: 372
Flags: W
Fore
108 313 m 1,0,-1
 186 97 l 1,1,-1
 264 313 l 1,2,-1
 365 313 l 1,3,-1
 242 0 l 1,4,-1
 131 0 l 1,5,-1
 8 313 l 1,6,-1
 108 313 l 1,0,-1
EndSplineSet
EndChar
StartChar: w
Encoding: 119 119 90
Width: 528
Flags: W
Fore
118 313 m 1,0,-1
 169 97 l 1,1,-1
 223 313 l 1,2,-1
 306 313 l 1,3,-1
 358 100 l 1,4,-1
 412 313 l 1,5,-1
 508 313 l 1,6,-1
 427 0 l 1,7,-1
 317 0 l 1,8,-1
 264 215 l 1,9,-1
 212 0 l 1,10,-1
 103 0 l 1,11,-1
 21 313 l 1,12,-1
 118 313 l 1,0,-1
EndSplineSet
EndChar
StartChar: x
Encoding: 120 120 91
Width: 369
Flags: W
Fore
15 313 m 1,0,-1
 121 313 l 1,1,-1
 184 220 l 1,2,-1
 248 313 l 1,3,-1
 354 313 l 1,4,-1
 242 160 l 1,5,-1
 360 0 l 1,6,-1
 254 0 l 1,7,-1
 184 99 l 1,8,-1
 115 0 l 1,9,-1
 8 0 l 1,10,-1
 127 160 l 1,11,-1
 15 313 l 1,0,-1
EndSplineSet
EndChar
StartChar: y
Encoding: 121 121 92
Width: 372
Flags: W
Fore
107 313 m 1,0,-1
 191 101 l 1,1,-1
 262 313 l 1,2,-1
 362 313 l 1,3,-1
 231 -29 l 2,4,5
 211 -83 211 -83 184.5 -103.5 c 128,-1,6
 158 -124 158 -124 116 -124 c 2,7,-1
 57 -124 l 1,8,-1
 57 -58 l 1,9,-1
 88 -58 l 2,10,11
 113 -58 113 -58 125.5 -50 c 128,-1,12
 138 -42 138 -42 144 -21 c 2,13,-1
 147 -13 l 1,14,-1
 7 313 l 1,15,-1
 107 313 l 1,0,-1
EndSplineSet
EndChar
StartChar: z
Encoding: 122 122 93
Width: 333
Flags: W
Fore
306 313 m 1,0,-1
 306 244 l 1,1,-1
 141 71 l 1,2,-1
 306 71 l 1,3,-1
 306 0 l 1,4,-1
 26 0 l 1,5,-1
 26 69 l 1,6,-1
 190 242 l 1,7,-1
 33 242 l 1,8,-1
 33 313 l 1,9,-1
 306 313 l 1,0,-1
EndSplineSet
EndChar
StartChar: braceleft
Encoding: 123 123 94
Width: 408
Flags: W
Fore
336 -94 m 1,0,-1
 275 -94 l 2,1,2
 214 -94 214 -94 186 -69.5 c 128,-1,3
 158 -45 158 -45 158 9 c 2,4,-1
 158 63 l 2,5,6
 158 105 158 105 143 122 c 128,-1,7
 128 139 128 139 88 139 c 2,8,-1
 71 139 l 1,9,-1
 71 200 l 1,10,-1
 88 200 l 2,11,12
 128 200 128 200 143 216 c 128,-1,13
 158 232 158 232 158 274 c 2,14,-1
 158 332 l 2,15,16
 158 386 158 386 186 410.5 c 128,-1,17
 214 435 214 435 275 435 c 2,18,-1
 336 435 l 1,19,-1
 336 371 l 1,20,-1
 316 371 l 2,21,22
 277 371 277 371 265 359 c 128,-1,23
 253 347 253 347 253 308 c 2,24,-1
 253 261 l 2,25,26
 253 216 253 216 240.5 197 c 128,-1,27
 228 178 228 178 198 171 c 1,28,29
 229 163 229 163 241 143.5 c 128,-1,30
 253 124 253 124 253 80 c 2,31,-1
 253 35 l 2,32,33
 253 14 253 14 255.5 1.5 c 128,-1,34
 258 -11 258 -11 265 -18 c 128,-1,35
 272 -25 272 -25 284.5 -27.5 c 128,-1,36
 297 -30 297 -30 316 -30 c 2,37,-1
 336 -30 l 1,38,-1
 336 -94 l 1,0,-1
EndSplineSet
EndChar
StartChar: bar
Encoding: 124 124 95
Width: 209
Flags: W
Fore
137 -136 m 1,0,-1
 73 -136 l 1,1,-1
 73 437 l 1,2,-1
 137 437 l 1,3,-1
 137 -136 l 1,0,-1
EndSplineSet
EndChar
StartChar: braceright
Encoding: 125 125 96
Width: 408
Flags: W
Fore
90 -30 m 2,0,1
 110 -30 110 -30 122.5 -27.5 c 128,-1,2
 135 -25 135 -25 141.5 -18 c 128,-1,3
 148 -11 148 -11 150.5 1.5 c 128,-1,4
 153 14 153 14 153 35 c 2,5,-1
 153 80 l 2,6,7
 153 124 153 124 166 143.5 c 128,-1,8
 179 163 179 163 210 171 c 1,9,10
 179 178 179 178 166 197 c 128,-1,11
 153 216 153 216 153 261 c 2,12,-1
 153 308 l 2,13,14
 153 328 153 328 150.5 340 c 128,-1,15
 148 352 148 352 141.5 359 c 128,-1,16
 135 366 135 366 122.5 368.5 c 128,-1,17
 110 371 110 371 90 371 c 2,18,-1
 71 371 l 1,19,-1
 71 435 l 1,20,-1
 132 435 l 2,21,22
 193 435 193 435 220.5 410.5 c 128,-1,23
 248 386 248 386 248 332 c 2,24,-1
 248 274 l 2,25,26
 248 232 248 232 262.5 216 c 128,-1,27
 277 200 277 200 319 200 c 2,28,-1
 336 200 l 1,29,-1
 336 139 l 1,30,-1
 319 139 l 2,31,32
 277 139 277 139 262.5 122 c 128,-1,33
 248 105 248 105 248 63 c 2,34,-1
 248 9 l 2,35,36
 248 -45 248 -45 220.5 -69.5 c 128,-1,37
 193 -94 193 -94 132 -94 c 2,38,-1
 71 -94 l 1,39,-1
 71 -30 l 1,40,-1
 90 -30 l 2,0,1
EndSplineSet
EndChar
StartChar: asciitilde
Encoding: 126 126 97
Width: 479
Flags: W
Fore
418 169 m 1,0,1
 389 147 389 147 364 137.5 c 128,-1,2
 339 128 339 128 312 128 c 0,3,4
 281 128 281 128 243 144 c 0,5,6
 237 146 237 146 236 147 c 1,7,8
 230 149 l 2,9,10
 185 166 185 166 160 166 c 0,11,12
 137 166 137 166 112 155.5 c 128,-1,13
 87 145 87 145 60 122 c 1,14,-1
 60 189 l 1,15,16
 90 212 90 212 115.5 221.5 c 128,-1,17
 141 231 141 231 167 231 c 0,18,19
 198 231 198 231 237 215 c 0,20,21
 243 213 243 213 244 212 c 1,22,23
 245 212 245 212 249 210 c 0,24,25
 294 193 294 193 319 193 c 256,26,27
 344 193 344 193 367 203.5 c 128,-1,28
 390 214 390 214 418 238 c 1,29,-1
 418 169 l 1,0,1
EndSplineSet
EndChar
StartChar: Adieresis
Encoding: 196 196 98
Width: 443
Flags: W
Fore
138 76 m 1,0,-1
 110 0 l 1,1,-1
 3 0 l 1,2,-1
 157 417 l 1,3,-1
 285 417 l 1,4,-1
 440 0 l 1,5,-1
 332 0 l 1,6,-1
 306 76 l 1,7,-1
 138 76 l 1,0,-1
278 152 m 1,8,-1
 222 319 l 1,9,-1
 164 152 l 1,10,-1
 278 152 l 1,8,-1
192 531 m 1,11,-1
 192 461 l 1,12,-1
 126 461 l 1,13,-1
 126 531 l 1,14,-1
 192 531 l 1,11,-1
302 531 m 1,15,-1
 302 461 l 1,16,-1
 236 461 l 1,17,-1
 236 531 l 1,18,-1
 302 531 l 1,15,-1
EndSplineSet
EndChar
StartChar: Aring
Encoding: 197 197 99
Width: 443
Flags: W
Fore
440 0 m 1,0,-1
 332 0 l 1,1,-1
 306 76 l 1,2,-1
 138 76 l 1,3,-1
 110 0 l 1,4,-1
 3 0 l 1,5,-1
 153 409 l 1,6,7
 149 418 149 418 145.5 428.5 c 128,-1,8
 142 439 142 439 142 451 c 0,9,10
 142 467 142 467 148 481.5 c 128,-1,11
 154 496 154 496 165 507.5 c 128,-1,12
 176 519 176 519 190.5 525.5 c 128,-1,13
 205 532 205 532 222 532 c 0,14,15
 237 532 237 532 251.5 525.5 c 128,-1,16
 266 519 266 519 276.5 507.5 c 128,-1,17
 287 496 287 496 293.5 481.5 c 128,-1,18
 300 467 300 467 300 451 c 0,19,20
 300 426 300 426 288 409 c 1,21,-1
 440 0 l 1,0,-1
185 451 m 256,22,23
 185 436 185 436 195.5 425.5 c 128,-1,24
 206 415 206 415 222 415 c 0,25,26
 237 415 237 415 247 425.5 c 128,-1,27
 257 436 257 436 257 451 c 256,28,29
 257 466 257 466 246.5 476.5 c 128,-1,30
 236 487 236 487 222 487 c 0,31,32
 206 487 206 487 195.5 476.5 c 128,-1,33
 185 466 185 466 185 451 c 256,22,23
278 152 m 1,34,-1
 222 319 l 1,35,-1
 164 152 l 1,36,-1
 278 152 l 1,34,-1
EndSplineSet
EndChar
StartChar: Ccedilla
Encoding: 199 199 100
Width: 420
Flags: W
Fore
383 23 m 1,0,1
 324 -8 324 -8 254 -8 c 0,2,3
 202 -8 202 -8 160 7 c 128,-1,4
 118 22 118 22 89 50 c 128,-1,5
 60 78 60 78 44 118 c 128,-1,6
 28 158 28 158 28 208 c 256,7,8
 28 258 28 258 44 298 c 128,-1,9
 60 338 60 338 89 366 c 128,-1,10
 118 394 118 394 160 409 c 128,-1,11
 202 424 202 424 254 424 c 0,12,13
 324 424 324 424 383 393 c 1,14,-1
 383 307 l 1,15,16
 353 328 353 328 324 337.5 c 128,-1,17
 295 347 295 347 263 347 c 0,18,19
 206 347 206 347 173 309.5 c 128,-1,20
 140 272 140 272 140 208 c 256,21,22
 140 144 140 144 173 106.5 c 128,-1,23
 206 69 206 69 263 69 c 0,24,25
 295 69 295 69 324 78.5 c 128,-1,26
 353 88 353 88 383 109 c 1,27,-1
 383 23 l 1,28,-1
 383 23 l 1,0,1
272 0 m 1,29,30
 304 -37 304 -37 304 -60 c 0,31,32
 304 -112 304 -112 234 -112 c 0,33,34
 221 -112 221 -112 206 -110 c 128,-1,35
 191 -108 191 -108 178 -105 c 1,36,-1
 177 -62 l 1,37,38
 207 -70 207 -70 224 -70 c 0,39,40
 257 -70 257 -70 257 -47 c 0,41,42
 257 -33 257 -33 234 0 c 1,43,-1
 272 0 l 1,44,-1
 272 0 l 1,29,30
EndSplineSet
EndChar
StartChar: Eacute
Encoding: 201 201 101
Width: 390
Flags: W
Fore
344 417 m 1,0,-1
 344 336 l 1,1,-1
 160 336 l 1,2,-1
 160 257 l 1,3,-1
 332 257 l 1,4,-1
 332 177 l 1,5,-1
 160 177 l 1,6,-1
 160 81 l 1,7,-1
 348 81 l 1,8,-1
 348 0 l 1,9,-1
 52 0 l 1,10,-1
 52 417 l 1,11,-1
 344 417 l 1,0,-1
286 531 m 1,12,-1
 207 456 l 1,13,-1
 152 456 l 1,14,-1
 207 531 l 1,15,-1
 286 531 l 1,12,-1
EndSplineSet
EndChar
StartChar: Ntilde
Encoding: 209 209 102
Width: 478
Flags: W
Fore
172 417 m 1,0,-1
 325 131 l 1,1,-1
 325 417 l 1,2,-1
 427 417 l 1,3,-1
 427 0 l 1,4,-1
 306 0 l 1,5,-1
 153 286 l 1,6,-1
 153 0 l 1,7,-1
 52 0 l 1,8,-1
 52 417 l 1,9,-1
 172 417 l 1,0,-1
214 479 m 2,10,11
 213 480 213 480 212.5 480 c 128,-1,12
 212 480 212 480 211 481 c 0,13,14
 197 489 197 489 191 489 c 0,15,16
 171 489 171 489 171 457 c 2,17,-1
 171 456 l 1,18,-1
 132 456 l 1,19,-1
 132 464 l 2,20,21
 132 494 132 494 147 512.5 c 128,-1,22
 162 531 162 531 187 531 c 0,23,24
 204 531 204 531 229 517 c 2,25,-1
 245 506 l 2,26,27
 258 498 258 498 266 498 c 0,28,29
 288 498 288 498 288 531 c 1,30,-1
 327 531 l 1,31,32
 327 529 327 529 326.5 526 c 128,-1,33
 326 523 326 523 326 522 c 0,34,35
 326 493 326 493 311 474.5 c 128,-1,36
 296 456 296 456 271 456 c 0,37,38
 260 456 260 456 250 459 c 128,-1,39
 240 462 240 462 230 470 c 1,40,-1
 214 479 l 2,10,11
EndSplineSet
EndChar
StartChar: Odieresis
Encoding: 214 214 103
Width: 486
Flags: W
Fore
244 347 m 0,0,1
 193 347 193 347 166.5 310.5 c 128,-1,2
 140 274 140 274 140 208 c 256,3,4
 140 142 140 142 166.5 105.5 c 128,-1,5
 193 69 193 69 244 69 c 0,6,7
 292 69 292 69 319.5 105.5 c 128,-1,8
 347 142 347 142 347 208 c 256,9,10
 347 274 347 274 319.5 310.5 c 128,-1,11
 292 347 292 347 244 347 c 0,0,1
244 424 m 256,12,13
 346 424 346 424 401.5 367 c 128,-1,14
 457 310 457 310 457 208 c 256,15,16
 457 106 457 106 401.5 49 c 128,-1,17
 346 -8 346 -8 244 -8 c 256,18,19
 142 -8 142 -8 85 49 c 128,-1,20
 28 106 28 106 28 208 c 256,21,22
 28 310 28 310 85 367 c 128,-1,23
 142 424 142 424 244 424 c 256,12,13
215 531 m 1,24,-1
 215 461 l 1,25,-1
 149 461 l 1,26,-1
 149 531 l 1,27,-1
 215 531 l 1,24,-1
325 531 m 1,28,-1
 325 461 l 1,29,-1
 259 461 l 1,30,-1
 259 531 l 1,31,-1
 325 531 l 1,28,-1
EndSplineSet
EndChar
StartChar: Udieresis
Encoding: 220 220 104
Width: 464
Flags: W
Fore
160 417 m 1,0,-1
 160 167 l 2,1,2
 160 116 160 116 177 93 c 128,-1,3
 194 70 194 70 232 70 c 256,4,5
 270 70 270 70 287.5 93 c 128,-1,6
 305 116 305 116 305 167 c 2,7,-1
 305 417 l 1,8,-1
 412 417 l 1,9,-1
 412 167 l 2,10,11
 412 79 412 79 368.5 35.5 c 128,-1,12
 325 -8 325 -8 232 -8 c 0,13,14
 52 -8 52 -8 52 167 c 2,15,-1
 52 417 l 1,16,-1
 160 417 l 1,0,-1
203 531 m 1,17,-1
 203 461 l 1,18,-1
 137 461 l 1,19,-1
 137 531 l 1,20,-1
 203 531 l 1,17,-1
313 531 m 1,21,-1
 313 461 l 1,22,-1
 247 461 l 1,23,-1
 247 531 l 1,24,-1
 313 531 l 1,21,-1
EndSplineSet
EndChar
StartChar: aacute
Encoding: 225 225 105
Width: 386
Flags: W
Fore
188 141 m 1,0,1
 126 141 126 141 126 99 c 0,2,3
 126 80 126 80 138 69 c 128,-1,4
 150 58 150 58 173 58 c 0,5,6
 202 58 202 58 221.5 78.5 c 128,-1,7
 241 99 241 99 241 130 c 2,8,-1
 241 141 l 1,9,-1
 188 141 l 1,10,-1
 188 141 l 1,0,1
341 0 m 1,11,-1
 241 0 l 1,12,-1
 241 46 l 1,13,14
 220 18 220 18 194.5 5 c 128,-1,15
 169 -8 169 -8 133 -8 c 0,16,17
 85 -8 85 -8 54.5 20.5 c 128,-1,18
 24 49 24 49 24 94 c 0,19,20
 24 149 24 149 62 174.5 c 128,-1,21
 100 200 100 200 181 200 c 2,22,-1
 241 200 l 1,23,-1
 241 208 l 2,24,25
 241 232 241 232 222 242.5 c 128,-1,26
 203 253 203 253 163 253 c 0,27,28
 131 253 131 253 103.5 247.5 c 128,-1,29
 76 242 76 242 52 228 c 1,30,-1
 52 305 l 1,31,32
 84 312 84 312 116.5 316 c 128,-1,33
 149 320 149 320 181 320 c 0,34,35
 266 320 266 320 303.5 286.5 c 128,-1,36
 341 253 341 253 341 178 c 2,37,-1
 341 0 l 1,11,-1
312 457 m 1,38,-1
 209 352 l 1,39,-1
 154 352 l 1,40,-1
 233 457 l 1,41,-1
 312 457 l 1,38,-1
EndSplineSet
EndChar
StartChar: agrave
Encoding: 224 224 106
Width: 386
Flags: W
Fore
188 141 m 1,0,1
 126 141 126 141 126 99 c 0,2,3
 126 80 126 80 138 69 c 128,-1,4
 150 58 150 58 173 58 c 0,5,6
 202 58 202 58 221.5 78.5 c 128,-1,7
 241 99 241 99 241 130 c 2,8,-1
 241 141 l 1,9,-1
 188 141 l 1,10,-1
 188 141 l 1,0,1
341 0 m 1,11,-1
 241 0 l 1,12,-1
 241 46 l 1,13,14
 220 18 220 18 194.5 5 c 128,-1,15
 169 -8 169 -8 133 -8 c 0,16,17
 85 -8 85 -8 54.5 20.5 c 128,-1,18
 24 49 24 49 24 94 c 0,19,20
 24 149 24 149 62 174.5 c 128,-1,21
 100 200 100 200 181 200 c 2,22,-1
 241 200 l 1,23,-1
 241 208 l 2,24,25
 241 232 241 232 222 242.5 c 128,-1,26
 203 253 203 253 163 253 c 0,27,28
 131 253 131 253 103.5 247.5 c 128,-1,29
 76 242 76 242 52 228 c 1,30,-1
 52 305 l 1,31,32
 84 312 84 312 116.5 316 c 128,-1,33
 149 320 149 320 181 320 c 0,34,35
 266 320 266 320 303.5 286.5 c 128,-1,36
 341 253 341 253 341 178 c 2,37,-1
 341 0 l 1,11,-1
236 352 m 1,38,-1
 182 352 l 1,39,-1
 78 457 l 1,40,-1
 157 457 l 1,41,-1
 236 352 l 1,38,-1
EndSplineSet
EndChar
StartChar: acircumflex
Encoding: 226 226 107
Width: 386
Flags: W
Fore
188 141 m 1,0,1
 126 141 126 141 126 99 c 0,2,3
 126 80 126 80 138 69 c 128,-1,4
 150 58 150 58 173 58 c 0,5,6
 202 58 202 58 221.5 78.5 c 128,-1,7
 241 99 241 99 241 130 c 2,8,-1
 241 141 l 1,9,-1
 188 141 l 1,10,-1
 188 141 l 1,0,1
341 0 m 1,11,-1
 241 0 l 1,12,-1
 241 46 l 1,13,14
 220 18 220 18 194.5 5 c 128,-1,15
 169 -8 169 -8 133 -8 c 0,16,17
 85 -8 85 -8 54.5 20.5 c 128,-1,18
 24 49 24 49 24 94 c 0,19,20
 24 149 24 149 62 174.5 c 128,-1,21
 100 200 100 200 181 200 c 2,22,-1
 241 200 l 1,23,-1
 241 208 l 2,24,25
 241 232 241 232 222 242.5 c 128,-1,26
 203 253 203 253 163 253 c 0,27,28
 131 253 131 253 103.5 247.5 c 128,-1,29
 76 242 76 242 52 228 c 1,30,-1
 52 305 l 1,31,32
 84 312 84 312 116.5 316 c 128,-1,33
 149 320 149 320 181 320 c 0,34,35
 266 320 266 320 303.5 286.5 c 128,-1,36
 341 253 341 253 341 178 c 2,37,-1
 341 0 l 1,11,-1
229 457 m 1,38,-1
 300 352 l 1,39,-1
 251 352 l 1,40,-1
 196 415 l 1,41,-1
 139 352 l 1,42,-1
 90 352 l 1,43,-1
 161 457 l 1,44,-1
 229 457 l 1,38,-1
EndSplineSet
EndChar
StartChar: adieresis
Encoding: 228 228 108
Width: 386
Flags: W
Fore
188 141 m 1,0,1
 126 141 126 141 126 99 c 0,2,3
 126 80 126 80 138 69 c 128,-1,4
 150 58 150 58 173 58 c 0,5,6
 202 58 202 58 221.5 78.5 c 128,-1,7
 241 99 241 99 241 130 c 2,8,-1
 241 141 l 1,9,-1
 188 141 l 1,10,-1
 188 141 l 1,0,1
341 0 m 1,11,-1
 241 0 l 1,12,-1
 241 46 l 1,13,14
 220 18 220 18 194.5 5 c 128,-1,15
 169 -8 169 -8 133 -8 c 0,16,17
 85 -8 85 -8 54.5 20.5 c 128,-1,18
 24 49 24 49 24 94 c 0,19,20
 24 149 24 149 62 174.5 c 128,-1,21
 100 200 100 200 181 200 c 2,22,-1
 241 200 l 1,23,-1
 241 208 l 2,24,25
 241 232 241 232 222 242.5 c 128,-1,26
 203 253 203 253 163 253 c 0,27,28
 131 253 131 253 103.5 247.5 c 128,-1,29
 76 242 76 242 52 228 c 1,30,-1
 52 305 l 1,31,32
 84 312 84 312 116.5 316 c 128,-1,33
 149 320 149 320 181 320 c 0,34,35
 266 320 266 320 303.5 286.5 c 128,-1,36
 341 253 341 253 341 178 c 2,37,-1
 341 0 l 1,11,-1
173 443 m 1,38,-1
 173 373 l 1,39,-1
 107 373 l 1,40,-1
 107 443 l 1,41,-1
 173 443 l 1,38,-1
283 443 m 1,42,-1
 283 373 l 1,43,-1
 217 373 l 1,44,-1
 217 443 l 1,45,-1
 283 443 l 1,42,-1
EndSplineSet
EndChar
StartChar: atilde
Encoding: 227 227 109
Width: 386
Flags: W
Fore
188 141 m 1,0,1
 126 141 126 141 126 99 c 0,2,3
 126 80 126 80 138 69 c 128,-1,4
 150 58 150 58 173 58 c 0,5,6
 202 58 202 58 221.5 78.5 c 128,-1,7
 241 99 241 99 241 130 c 2,8,-1
 241 141 l 1,9,-1
 188 141 l 1,10,-1
 188 141 l 1,0,1
341 0 m 1,11,-1
 241 0 l 1,12,-1
 241 46 l 1,13,14
 220 18 220 18 194.5 5 c 128,-1,15
 169 -8 169 -8 133 -8 c 0,16,17
 85 -8 85 -8 54.5 20.5 c 128,-1,18
 24 49 24 49 24 94 c 0,19,20
 24 149 24 149 62 174.5 c 128,-1,21
 100 200 100 200 181 200 c 2,22,-1
 241 200 l 1,23,-1
 241 208 l 2,24,25
 241 232 241 232 222 242.5 c 128,-1,26
 203 253 203 253 163 253 c 0,27,28
 131 253 131 253 103.5 247.5 c 128,-1,29
 76 242 76 242 52 228 c 1,30,-1
 52 305 l 1,31,32
 84 312 84 312 116.5 316 c 128,-1,33
 149 320 149 320 181 320 c 0,34,35
 266 320 266 320 303.5 286.5 c 128,-1,36
 341 253 341 253 341 178 c 2,37,-1
 341 0 l 1,11,-1
180 391 m 1,38,-1
 178 393 l 1,39,40
 164 401 164 401 157 401 c 0,41,42
 137 401 137 401 137 368 c 2,43,-1
 137 366 l 1,44,-1
 98 366 l 1,45,46
 98 403 98 403 112.5 424 c 128,-1,47
 127 445 127 445 153 445 c 0,48,49
 162 445 162 445 172.5 441 c 128,-1,50
 183 437 183 437 195 430 c 1,51,-1
 211 417 l 2,52,53
 224 409 224 409 232 409 c 0,54,55
 242 409 242 409 248 418 c 128,-1,56
 254 427 254 427 254 442 c 2,57,-1
 254 444 l 1,58,-1
 293 444 l 1,59,60
 293 407 293 407 278 386 c 128,-1,61
 263 365 263 365 237 365 c 0,62,63
 226 365 226 365 217.5 368 c 128,-1,64
 209 371 209 371 196 380 c 2,65,-1
 180 391 l 1,38,-1
EndSplineSet
EndChar
StartChar: aring
Encoding: 229 229 110
Width: 386
Flags: W
Fore
188 141 m 1,0,1
 126 141 126 141 126 99 c 0,2,3
 126 80 126 80 138 69 c 128,-1,4
 150 58 150 58 173 58 c 0,5,6
 202 58 202 58 221.5 78.5 c 128,-1,7
 241 99 241 99 241 130 c 2,8,-1
 241 141 l 1,9,-1
 188 141 l 1,10,-1
 188 141 l 1,0,1
341 0 m 1,11,-1
 241 0 l 1,12,-1
 241 46 l 1,13,14
 220 18 220 18 194.5 5 c 128,-1,15
 169 -8 169 -8 133 -8 c 0,16,17
 85 -8 85 -8 54.5 20.5 c 128,-1,18
 24 49 24 49 24 94 c 0,19,20
 24 149 24 149 62 174.5 c 128,-1,21
 100 200 100 200 181 200 c 2,22,-1
 241 200 l 1,23,-1
 241 208 l 2,24,25
 241 232 241 232 222 242.5 c 128,-1,26
 203 253 203 253 163 253 c 0,27,28
 131 253 131 253 103.5 247.5 c 128,-1,29
 76 242 76 242 52 228 c 1,30,-1
 52 305 l 1,31,32
 84 312 84 312 116.5 316 c 128,-1,33
 149 320 149 320 181 320 c 0,34,35
 266 320 266 320 303.5 286.5 c 128,-1,36
 341 253 341 253 341 178 c 2,37,-1
 341 0 l 1,11,-1
159 429 m 0,38,39
 159 413 159 413 169.5 402.5 c 128,-1,40
 180 392 180 392 196 392 c 0,41,42
 210 392 210 392 221 402.5 c 128,-1,43
 232 413 232 413 232 429 c 0,44,45
 232 443 232 443 221 453.5 c 128,-1,46
 210 464 210 464 196 464 c 0,47,48
 180 464 180 464 169.5 453.5 c 128,-1,49
 159 443 159 443 159 429 c 0,38,39
115 429 m 0,50,51
 115 461 115 461 138.5 484 c 128,-1,52
 162 507 162 507 196 507 c 0,53,54
 211 507 211 507 225.5 501 c 128,-1,55
 240 495 240 495 251 484.5 c 128,-1,56
 262 474 262 474 268.5 459.5 c 128,-1,57
 275 445 275 445 275 429 c 0,58,59
 275 395 275 395 251 371.5 c 128,-1,60
 227 348 227 348 196 348 c 0,61,62
 162 348 162 348 138.5 371.5 c 128,-1,63
 115 395 115 395 115 429 c 0,50,51
EndSplineSet
EndChar
StartChar: ccedilla
Encoding: 231 231 111
Width: 339
Flags: W
Fore
300 222 m 1,0,1
 281 236 281 236 260.5 242 c 128,-1,2
 240 248 240 248 217 248 c 0,3,4
 174 248 174 248 151.5 224.5 c 128,-1,5
 129 201 129 201 129 156 c 256,6,7
 129 111 129 111 151.5 87 c 128,-1,8
 174 63 174 63 217 63 c 0,9,10
 241 63 241 63 262 70 c 128,-1,11
 283 77 283 77 300 90 c 1,12,-1
 300 9 l 1,13,14
 277 0 277 0 253 -4 c 128,-1,15
 229 -8 229 -8 205 -8 c 0,16,17
 120 -8 120 -8 72 35 c 128,-1,18
 24 78 24 78 24 156 c 256,19,20
 24 234 24 234 72 277 c 128,-1,21
 120 320 120 320 205 320 c 0,22,23
 255 320 255 320 300 304 c 1,24,-1
 300 222 l 1,0,1
218 0 m 1,25,26
 250 -37 250 -37 250 -60 c 0,27,28
 250 -112 250 -112 180 -112 c 0,29,30
 167 -112 167 -112 152 -110 c 128,-1,31
 137 -108 137 -108 124 -105 c 1,32,-1
 123 -62 l 1,33,34
 153 -70 153 -70 170 -70 c 0,35,36
 203 -70 203 -70 203 -47 c 0,37,38
 203 -33 203 -33 180 0 c 1,39,-1
 218 0 l 1,40,-1
 218 0 l 1,25,26
EndSplineSet
EndChar
StartChar: eacute
Encoding: 233 233 112
Width: 388
Flags: W
Fore
360 129 m 1,0,-1
 127 129 l 1,1,2
 133 58 133 58 213 58 c 0,3,4
 275 58 275 58 346 96 c 1,5,-1
 346 19 l 1,6,7
 310 5 310 5 275 -1.5 c 128,-1,8
 240 -8 240 -8 204 -8 c 0,9,10
 119 -8 119 -8 71.5 35 c 128,-1,11
 24 78 24 78 24 156 c 256,12,13
 24 234 24 234 70.5 277 c 128,-1,14
 117 320 117 320 198 320 c 0,15,16
 271 320 271 320 315.5 276 c 128,-1,17
 360 232 360 232 360 157 c 2,18,-1
 360 129 l 1,0,-1
257 190 m 1,19,20
 257 219 257 219 241 236 c 128,-1,21
 225 253 225 253 198 253 c 0,22,23
 168 253 168 253 150 237.5 c 128,-1,24
 132 222 132 222 128 190 c 1,25,-1
 257 190 l 1,26,-1
 257 190 l 1,19,20
320 457 m 1,27,-1
 217 352 l 1,28,-1
 162 352 l 1,29,-1
 241 457 l 1,30,-1
 320 457 l 1,27,-1
EndSplineSet
EndChar
StartChar: egrave
Encoding: 232 232 113
Width: 388
Flags: W
Fore
360 129 m 1,0,-1
 127 129 l 1,1,2
 133 58 133 58 213 58 c 0,3,4
 275 58 275 58 346 96 c 1,5,-1
 346 19 l 1,6,7
 310 5 310 5 275 -1.5 c 128,-1,8
 240 -8 240 -8 204 -8 c 0,9,10
 119 -8 119 -8 71.5 35 c 128,-1,11
 24 78 24 78 24 156 c 256,12,13
 24 234 24 234 70.5 277 c 128,-1,14
 117 320 117 320 198 320 c 0,15,16
 271 320 271 320 315.5 276 c 128,-1,17
 360 232 360 232 360 157 c 2,18,-1
 360 129 l 1,0,-1
257 190 m 1,19,20
 257 219 257 219 241 236 c 128,-1,21
 225 253 225 253 198 253 c 0,22,23
 168 253 168 253 150 237.5 c 128,-1,24
 132 222 132 222 128 190 c 1,25,-1
 257 190 l 1,26,-1
 257 190 l 1,19,20
244 352 m 1,27,-1
 190 352 l 1,28,-1
 86 457 l 1,29,-1
 165 457 l 1,30,-1
 244 352 l 1,27,-1
EndSplineSet
EndChar
StartChar: ecircumflex
Encoding: 234 234 114
Width: 388
Flags: W
Fore
360 129 m 1,0,-1
 127 129 l 1,1,2
 133 58 133 58 213 58 c 0,3,4
 275 58 275 58 346 96 c 1,5,-1
 346 19 l 1,6,7
 310 5 310 5 275 -1.5 c 128,-1,8
 240 -8 240 -8 204 -8 c 0,9,10
 119 -8 119 -8 71.5 35 c 128,-1,11
 24 78 24 78 24 156 c 256,12,13
 24 234 24 234 70.5 277 c 128,-1,14
 117 320 117 320 198 320 c 0,15,16
 271 320 271 320 315.5 276 c 128,-1,17
 360 232 360 232 360 157 c 2,18,-1
 360 129 l 1,0,-1
257 190 m 1,19,20
 257 219 257 219 241 236 c 128,-1,21
 225 253 225 253 198 253 c 0,22,23
 168 253 168 253 150 237.5 c 128,-1,24
 132 222 132 222 128 190 c 1,25,-1
 257 190 l 1,26,-1
 257 190 l 1,19,20
237 457 m 1,27,-1
 308 352 l 1,28,-1
 259 352 l 1,29,-1
 204 415 l 1,30,-1
 147 352 l 1,31,-1
 98 352 l 1,32,-1
 169 457 l 1,33,-1
 237 457 l 1,27,-1
EndSplineSet
EndChar
StartChar: edieresis
Encoding: 235 235 115
Width: 388
Flags: W
Fore
360 129 m 1,0,-1
 127 129 l 1,1,2
 133 58 133 58 213 58 c 0,3,4
 275 58 275 58 346 96 c 1,5,-1
 346 19 l 1,6,7
 310 5 310 5 275 -1.5 c 128,-1,8
 240 -8 240 -8 204 -8 c 0,9,10
 119 -8 119 -8 71.5 35 c 128,-1,11
 24 78 24 78 24 156 c 256,12,13
 24 234 24 234 70.5 277 c 128,-1,14
 117 320 117 320 198 320 c 0,15,16
 271 320 271 320 315.5 276 c 128,-1,17
 360 232 360 232 360 157 c 2,18,-1
 360 129 l 1,0,-1
257 190 m 1,19,20
 257 219 257 219 241 236 c 128,-1,21
 225 253 225 253 198 253 c 0,22,23
 168 253 168 253 150 237.5 c 128,-1,24
 132 222 132 222 128 190 c 1,25,-1
 257 190 l 1,26,-1
 257 190 l 1,19,20
181 443 m 1,27,-1
 181 373 l 1,28,-1
 115 373 l 1,29,-1
 115 443 l 1,30,-1
 181 443 l 1,27,-1
291 443 m 1,31,-1
 291 373 l 1,32,-1
 225 373 l 1,33,-1
 225 443 l 1,34,-1
 291 443 l 1,31,-1
EndSplineSet
EndChar
StartChar: iacute
Encoding: 237 237 116
Width: 195
Flags: W
Fore
149 313 m 1,0,-1
 149 0 l 1,1,-1
 48 0 l 1,2,-1
 48 313 l 1,3,-1
 149 313 l 1,0,-1
225 457 m 1,4,-1
 122 352 l 1,5,-1
 67 352 l 1,6,-1
 146 457 l 1,7,-1
 225 457 l 1,4,-1
EndSplineSet
EndChar
StartChar: igrave
Encoding: 236 236 117
Width: 195
Flags: W
Fore
149 313 m 1,0,-1
 149 0 l 1,1,-1
 48 0 l 1,2,-1
 48 313 l 1,3,-1
 149 313 l 1,0,-1
149 352 m 1,4,-1
 95 352 l 1,5,-1
 -9 457 l 1,6,-1
 70 457 l 1,7,-1
 149 352 l 1,4,-1
EndSplineSet
EndChar
StartChar: icircumflex
Encoding: 238 238 118
Width: 195
Flags: W
Fore
149 313 m 1,0,-1
 149 0 l 1,1,-1
 48 0 l 1,2,-1
 48 313 l 1,3,-1
 149 313 l 1,0,-1
142 457 m 1,4,-1
 213 352 l 1,5,-1
 164 352 l 1,6,-1
 109 415 l 1,7,-1
 52 352 l 1,8,-1
 3 352 l 1,9,-1
 74 457 l 1,10,-1
 142 457 l 1,4,-1
EndSplineSet
EndChar
StartChar: idieresis
Encoding: 239 239 119
Width: 195
Flags: W
Fore
149 313 m 1,0,-1
 149 0 l 1,1,-1
 48 0 l 1,2,-1
 48 313 l 1,3,-1
 149 313 l 1,0,-1
86 443 m 1,4,-1
 86 373 l 1,5,-1
 20 373 l 1,6,-1
 20 443 l 1,7,-1
 86 443 l 1,4,-1
196 443 m 1,8,-1
 196 373 l 1,9,-1
 130 373 l 1,10,-1
 130 443 l 1,11,-1
 196 443 l 1,8,-1
EndSplineSet
EndChar
StartChar: ntilde
Encoding: 241 241 120
Width: 408
Flags: W
Fore
362 0 m 1,0,-1
 262 0 l 1,1,-1
 262 32 l 1,2,-1
 262 146 l 2,3,4
 262 186 262 186 260 201 c 128,-1,5
 258 216 258 216 253 225 c 0,6,7
 241 245 241 245 215 245 c 0,8,9
 184 245 184 245 166.5 220.5 c 128,-1,10
 149 196 149 196 149 153 c 2,11,-1
 149 0 l 1,12,-1
 48 0 l 1,13,-1
 48 313 l 1,14,-1
 149 313 l 1,15,-1
 149 267 l 1,16,17
 190 320 190 320 252 320 c 0,18,19
 306 320 306 320 334 286.5 c 128,-1,20
 362 253 362 253 362 190 c 2,21,-1
 362 0 l 1,0,-1
195 391 m 1,22,-1
 193 393 l 1,23,24
 179 401 179 401 172 401 c 0,25,26
 152 401 152 401 152 368 c 2,27,-1
 152 366 l 1,28,-1
 113 366 l 1,29,30
 113 403 113 403 127.5 424 c 128,-1,31
 142 445 142 445 168 445 c 0,32,33
 177 445 177 445 187.5 441 c 128,-1,34
 198 437 198 437 210 430 c 1,35,-1
 226 417 l 2,36,37
 239 409 239 409 247 409 c 0,38,39
 257 409 257 409 263 418 c 128,-1,40
 269 427 269 427 269 442 c 2,41,-1
 269 444 l 1,42,-1
 308 444 l 1,43,44
 308 407 308 407 293 386 c 128,-1,45
 278 365 278 365 252 365 c 0,46,47
 241 365 241 365 232.5 368 c 128,-1,48
 224 371 224 371 211 380 c 2,49,-1
 195 391 l 1,22,-1
EndSplineSet
EndChar
StartChar: oacute
Encoding: 243 243 121
Width: 393
Flags: W
Fore
196 248 m 0,0,1
 129 248 129 248 129 156 c 0,2,3
 129 111 129 111 146 87 c 128,-1,4
 163 63 163 63 196 63 c 0,5,6
 230 63 230 63 247 87 c 128,-1,7
 264 111 264 111 264 156 c 0,8,9
 264 248 264 248 196 248 c 0,0,1
196 320 m 256,10,11
 277 320 277 320 322.5 277 c 128,-1,12
 368 234 368 234 368 156 c 256,13,14
 368 78 368 78 322.5 35 c 128,-1,15
 277 -8 277 -8 196 -8 c 256,16,17
 115 -8 115 -8 69.5 35 c 128,-1,18
 24 78 24 78 24 156 c 256,19,20
 24 234 24 234 69.5 277 c 128,-1,21
 115 320 115 320 196 320 c 256,10,11
320 457 m 1,22,-1
 217 352 l 1,23,-1
 162 352 l 1,24,-1
 241 457 l 1,25,-1
 320 457 l 1,22,-1
EndSplineSet
EndChar
StartChar: ograve
Encoding: 242 242 122
Width: 393
Flags: W
Fore
196 248 m 0,0,1
 129 248 129 248 129 156 c 0,2,3
 129 111 129 111 146 87 c 128,-1,4
 163 63 163 63 196 63 c 0,5,6
 230 63 230 63 247 87 c 128,-1,7
 264 111 264 111 264 156 c 0,8,9
 264 248 264 248 196 248 c 0,0,1
196 320 m 256,10,11
 277 320 277 320 322.5 277 c 128,-1,12
 368 234 368 234 368 156 c 256,13,14
 368 78 368 78 322.5 35 c 128,-1,15
 277 -8 277 -8 196 -8 c 256,16,17
 115 -8 115 -8 69.5 35 c 128,-1,18
 24 78 24 78 24 156 c 256,19,20
 24 234 24 234 69.5 277 c 128,-1,21
 115 320 115 320 196 320 c 256,10,11
244 352 m 1,22,-1
 190 352 l 1,23,-1
 86 457 l 1,24,-1
 165 457 l 1,25,-1
 244 352 l 1,22,-1
EndSplineSet
EndChar
StartChar: ocircumflex
Encoding: 244 244 123
Width: 393
Flags: W
Fore
196 248 m 0,0,1
 129 248 129 248 129 156 c 0,2,3
 129 111 129 111 146 87 c 128,-1,4
 163 63 163 63 196 63 c 0,5,6
 230 63 230 63 247 87 c 128,-1,7
 264 111 264 111 264 156 c 0,8,9
 264 248 264 248 196 248 c 0,0,1
196 320 m 256,10,11
 277 320 277 320 322.5 277 c 128,-1,12
 368 234 368 234 368 156 c 256,13,14
 368 78 368 78 322.5 35 c 128,-1,15
 277 -8 277 -8 196 -8 c 256,16,17
 115 -8 115 -8 69.5 35 c 128,-1,18
 24 78 24 78 24 156 c 256,19,20
 24 234 24 234 69.5 277 c 128,-1,21
 115 320 115 320 196 320 c 256,10,11
237 457 m 1,22,-1
 308 352 l 1,23,-1
 259 352 l 1,24,-1
 204 415 l 1,25,-1
 147 352 l 1,26,-1
 98 352 l 1,27,-1
 169 457 l 1,28,-1
 237 457 l 1,22,-1
EndSplineSet
EndChar
StartChar: odieresis
Encoding: 246 246 124
Width: 393
Flags: W
Fore
196 248 m 0,0,1
 129 248 129 248 129 156 c 0,2,3
 129 111 129 111 146 87 c 128,-1,4
 163 63 163 63 196 63 c 0,5,6
 230 63 230 63 247 87 c 128,-1,7
 264 111 264 111 264 156 c 0,8,9
 264 248 264 248 196 248 c 0,0,1
196 320 m 256,10,11
 277 320 277 320 322.5 277 c 128,-1,12
 368 234 368 234 368 156 c 256,13,14
 368 78 368 78 322.5 35 c 128,-1,15
 277 -8 277 -8 196 -8 c 256,16,17
 115 -8 115 -8 69.5 35 c 128,-1,18
 24 78 24 78 24 156 c 256,19,20
 24 234 24 234 69.5 277 c 128,-1,21
 115 320 115 320 196 320 c 256,10,11
181 443 m 1,22,-1
 181 373 l 1,23,-1
 115 373 l 1,24,-1
 115 443 l 1,25,-1
 181 443 l 1,22,-1
291 443 m 1,26,-1
 291 373 l 1,27,-1
 225 373 l 1,28,-1
 225 443 l 1,29,-1
 291 443 l 1,26,-1
EndSplineSet
EndChar
StartChar: otilde
Encoding: 245 245 125
Width: 393
Flags: W
Fore
196 248 m 0,0,1
 129 248 129 248 129 156 c 0,2,3
 129 111 129 111 146 87 c 128,-1,4
 163 63 163 63 196 63 c 0,5,6
 230 63 230 63 247 87 c 128,-1,7
 264 111 264 111 264 156 c 0,8,9
 264 248 264 248 196 248 c 0,0,1
196 320 m 256,10,11
 277 320 277 320 322.5 277 c 128,-1,12
 368 234 368 234 368 156 c 256,13,14
 368 78 368 78 322.5 35 c 128,-1,15
 277 -8 277 -8 196 -8 c 256,16,17
 115 -8 115 -8 69.5 35 c 128,-1,18
 24 78 24 78 24 156 c 256,19,20
 24 234 24 234 69.5 277 c 128,-1,21
 115 320 115 320 196 320 c 256,10,11
188 391 m 1,22,-1
 186 393 l 1,23,24
 172 401 172 401 165 401 c 0,25,26
 145 401 145 401 145 368 c 2,27,-1
 145 366 l 1,28,-1
 106 366 l 1,29,30
 106 403 106 403 120.5 424 c 128,-1,31
 135 445 135 445 161 445 c 0,32,33
 170 445 170 445 180.5 441 c 128,-1,34
 191 437 191 437 203 430 c 1,35,-1
 219 417 l 2,36,37
 232 409 232 409 240 409 c 0,38,39
 250 409 250 409 256 418 c 128,-1,40
 262 427 262 427 262 442 c 2,41,-1
 262 444 l 1,42,-1
 301 444 l 1,43,44
 301 407 301 407 286 386 c 128,-1,45
 271 365 271 365 245 365 c 0,46,47
 234 365 234 365 225.5 368 c 128,-1,48
 217 371 217 371 204 380 c 2,49,-1
 188 391 l 1,22,-1
EndSplineSet
EndChar
StartChar: uacute
Encoding: 250 250 126
Width: 408
Flags: W
Fore
45 313 m 1,0,-1
 146 313 l 1,1,-1
 146 282 l 2,2,3
 146 268 146 268 146 252 c 128,-1,4
 146 236 146 236 145 217 c 2,5,-1
 145 166 l 2,6,7
 145 129 145 129 147 112.5 c 128,-1,8
 149 96 149 96 152 87 c 1,9,10
 167 67 167 67 192 67 c 0,11,12
 224 67 224 67 241 91.5 c 128,-1,13
 258 116 258 116 258 158 c 2,14,-1
 258 313 l 1,15,-1
 358 313 l 1,16,-1
 358 0 l 1,17,-1
 258 0 l 1,18,-1
 258 45 l 1,19,20
 217 -8 217 -8 154 -8 c 0,21,22
 102 -8 102 -8 73.5 25 c 128,-1,23
 45 58 45 58 45 122 c 2,24,-1
 45 313 l 1,0,-1
327 457 m 1,25,-1
 224 352 l 1,26,-1
 169 352 l 1,27,-1
 248 457 l 1,28,-1
 327 457 l 1,25,-1
EndSplineSet
EndChar
StartChar: ugrave
Encoding: 249 249 127
Width: 408
Flags: W
Fore
45 313 m 1,0,-1
 146 313 l 1,1,-1
 146 282 l 2,2,3
 146 268 146 268 146 252 c 128,-1,4
 146 236 146 236 145 217 c 2,5,-1
 145 166 l 2,6,7
 145 129 145 129 147 112.5 c 128,-1,8
 149 96 149 96 152 87 c 1,9,10
 167 67 167 67 192 67 c 0,11,12
 224 67 224 67 241 91.5 c 128,-1,13
 258 116 258 116 258 158 c 2,14,-1
 258 313 l 1,15,-1
 358 313 l 1,16,-1
 358 0 l 1,17,-1
 258 0 l 1,18,-1
 258 45 l 1,19,20
 217 -8 217 -8 154 -8 c 0,21,22
 102 -8 102 -8 73.5 25 c 128,-1,23
 45 58 45 58 45 122 c 2,24,-1
 45 313 l 1,0,-1
251 352 m 1,25,-1
 197 352 l 1,26,-1
 93 457 l 1,27,-1
 172 457 l 1,28,-1
 251 352 l 1,25,-1
EndSplineSet
EndChar
StartChar: ucircumflex
Encoding: 251 251 128
Width: 408
Flags: W
Fore
45 313 m 1,0,-1
 146 313 l 1,1,-1
 146 282 l 2,2,3
 146 268 146 268 146 252 c 128,-1,4
 146 236 146 236 145 217 c 2,5,-1
 145 166 l 2,6,7
 145 129 145 129 147 112.5 c 128,-1,8
 149 96 149 96 152 87 c 1,9,10
 167 67 167 67 192 67 c 0,11,12
 224 67 224 67 241 91.5 c 128,-1,13
 258 116 258 116 258 158 c 2,14,-1
 258 313 l 1,15,-1
 358 313 l 1,16,-1
 358 0 l 1,17,-1
 258 0 l 1,18,-1
 258 45 l 1,19,20
 217 -8 217 -8 154 -8 c 0,21,22
 102 -8 102 -8 73.5 25 c 128,-1,23
 45 58 45 58 45 122 c 2,24,-1
 45 313 l 1,0,-1
244 457 m 1,25,-1
 315 352 l 1,26,-1
 266 352 l 1,27,-1
 211 415 l 1,28,-1
 154 352 l 1,29,-1
 105 352 l 1,30,-1
 176 457 l 1,31,-1
 244 457 l 1,25,-1
EndSplineSet
EndChar
StartChar: udieresis
Encoding: 252 252 129
Width: 408
Flags: W
Fore
45 313 m 1,0,-1
 146 313 l 1,1,-1
 146 282 l 2,2,3
 146 268 146 268 146 252 c 128,-1,4
 146 236 146 236 145 217 c 2,5,-1
 145 166 l 2,6,7
 145 129 145 129 147 112.5 c 128,-1,8
 149 96 149 96 152 87 c 1,9,10
 167 67 167 67 192 67 c 0,11,12
 224 67 224 67 241 91.5 c 128,-1,13
 258 116 258 116 258 158 c 2,14,-1
 258 313 l 1,15,-1
 358 313 l 1,16,-1
 358 0 l 1,17,-1
 258 0 l 1,18,-1
 258 45 l 1,19,20
 217 -8 217 -8 154 -8 c 0,21,22
 102 -8 102 -8 73.5 25 c 128,-1,23
 45 58 45 58 45 122 c 2,24,-1
 45 313 l 1,0,-1
188 443 m 1,25,-1
 188 373 l 1,26,-1
 122 373 l 1,27,-1
 122 443 l 1,28,-1
 188 443 l 1,25,-1
298 443 m 1,29,-1
 298 373 l 1,30,-1
 232 373 l 1,31,-1
 232 443 l 1,32,-1
 298 443 l 1,29,-1
EndSplineSet
EndChar
StartChar: dagger
Encoding: 8224 8224 130
Width: 286
Flags: W
Fore
188 417 m 1,0,-1
 188 311 l 1,1,-1
 269 311 l 1,2,-1
 269 245 l 1,3,-1
 188 245 l 1,4,-1
 188 -55 l 1,5,-1
 96 -55 l 1,6,-1
 96 245 l 1,7,-1
 15 245 l 1,8,-1
 15 311 l 1,9,-1
 96 311 l 1,10,-1
 96 417 l 1,11,-1
 188 417 l 1,0,-1
EndSplineSet
EndChar
StartChar: degree
Encoding: 176 176 131
Width: 286
Flags: W
Fore
144 383 m 0,0,1
 123 383 123 383 109 369 c 128,-1,2
 95 355 95 355 95 335 c 256,3,4
 95 315 95 315 109 301.5 c 128,-1,5
 123 288 123 288 144 288 c 0,6,7
 163 288 163 288 177 301.5 c 128,-1,8
 191 315 191 315 191 335 c 256,9,10
 191 355 191 355 177 369 c 128,-1,11
 163 383 163 383 144 383 c 0,0,1
144 429 m 0,12,13
 161 429 161 429 178 421.5 c 128,-1,14
 195 414 195 414 209 401 c 0,15,16
 222 388 222 388 229 370.5 c 128,-1,17
 236 353 236 353 236 335 c 0,18,19
 236 316 236 316 229 299.5 c 128,-1,20
 222 283 222 283 210 270 c 0,21,22
 195 256 195 256 178 249.5 c 128,-1,23
 161 243 161 243 143 243 c 0,24,25
 103 243 103 243 76.5 269 c 128,-1,26
 50 295 50 295 50 335 c 0,27,28
 50 374 50 374 77 401.5 c 128,-1,29
 104 429 104 429 144 429 c 0,12,13
EndSplineSet
EndChar
StartChar: cent
Encoding: 162 162 132
Width: 398
Flags: W
Fore
195 240 m 1,0,1
 152 216 152 216 152 156 c 0,2,3
 152 95 152 95 195 73 c 1,4,-1
 195 240 l 1,5,-1
 195 240 l 1,0,1
325 222 m 1,6,7
 282 248 282 248 246 248 c 2,8,-1
 242 248 l 1,9,-1
 242 63 l 1,10,11
 266 64 266 64 287 71 c 128,-1,12
 308 78 308 78 325 90 c 1,13,-1
 325 9 l 1,14,15
 277 -8 277 -8 245 -8 c 2,16,-1
 242 -8 l 1,17,-1
 242 -87 l 1,18,-1
 195 -87 l 1,19,-1
 195 -7 l 1,20,21
 49 16 49 16 49 160 c 0,22,23
 49 229 49 229 86 269.5 c 128,-1,24
 123 310 123 310 195 320 c 1,25,-1
 195 400 l 1,26,-1
 242 400 l 1,27,-1
 242 320 l 1,28,29
 261 319 261 319 282 315 c 128,-1,30
 303 311 303 311 325 304 c 1,31,-1
 325 222 l 1,6,7
EndSplineSet
EndChar
StartChar: sterling
Encoding: 163 163 133
Width: 398
Flags: W
Fore
347 330 m 1,0,1
 309 350 309 350 264 350 c 0,2,3
 200 350 200 350 200 279 c 2,4,-1
 200 232 l 1,5,-1
 305 232 l 1,6,-1
 305 165 l 1,7,-1
 200 165 l 1,8,-1
 200 74 l 1,9,-1
 350 74 l 1,10,-1
 350 0 l 1,11,-1
 36 0 l 1,12,-1
 36 74 l 1,13,-1
 99 74 l 1,14,-1
 99 165 l 1,15,-1
 44 165 l 1,16,-1
 44 232 l 1,17,-1
 99 232 l 1,18,-1
 99 279 l 2,19,20
 99 355 99 355 134 389.5 c 128,-1,21
 169 424 169 424 247 424 c 0,22,23
 297 424 297 424 347 410 c 1,24,-1
 347 330 l 1,0,1
EndSplineSet
EndChar
StartChar: section
Encoding: 167 167 134
Width: 286
Flags: W
Fore
248 346 m 1,0,1
 220 355 220 355 197 361 c 128,-1,2
 174 367 174 367 159 367 c 0,3,4
 139 367 139 367 128.5 359.5 c 128,-1,5
 118 352 118 352 118 340 c 0,6,7
 118 322 118 322 169 299 c 0,8,9
 173 297 173 297 176 296 c 128,-1,10
 179 295 179 295 181 294 c 0,11,12
 240 269 240 269 262 245.5 c 128,-1,13
 284 222 284 222 284 186 c 0,14,15
 284 121 284 121 220 96 c 1,16,17
 262 74 262 74 262 33 c 0,18,19
 262 -7 262 -7 228 -30.5 c 128,-1,20
 194 -54 194 -54 136 -54 c 0,21,22
 111 -54 111 -54 85.5 -50 c 128,-1,23
 60 -46 60 -46 33 -39 c 1,24,-1
 33 28 l 1,25,26
 64 17 64 17 90 10.5 c 128,-1,27
 116 4 116 4 131 4 c 0,28,29
 149 4 149 4 160 11.5 c 128,-1,30
 171 19 171 19 171 29 c 0,31,32
 171 49 171 49 121 69 c 0,33,34
 116 71 116 71 111.5 73 c 128,-1,35
 107 75 107 75 105 76 c 0,36,37
 49 100 49 100 26.5 125 c 128,-1,38
 4 150 4 150 4 186 c 0,39,40
 4 216 4 216 20 237 c 128,-1,41
 36 258 36 258 66 272 c 1,42,43
 46 287 46 287 36.5 302.5 c 128,-1,44
 27 318 27 318 27 339 c 0,45,46
 27 379 27 379 59 401.5 c 128,-1,47
 91 424 91 424 148 424 c 0,48,49
 171 424 171 424 196.5 420 c 128,-1,50
 222 416 222 416 248 409 c 1,51,-1
 248 346 l 1,0,1
122 240 m 1,52,53
 83 223 83 223 83 195 c 0,54,55
 83 177 83 177 100.5 163 c 128,-1,56
 118 149 118 149 168 131 c 1,57,58
 206 148 206 148 206 174 c 0,59,60
 206 193 206 193 187 208 c 128,-1,61
 168 223 168 223 122 240 c 1,52,53
EndSplineSet
EndChar
StartChar: bullet
Encoding: 8226 8226 135
Width: 366
Flags: W
Fore
82 213 m 0,0,1
 82 253 82 253 111 284 c 0,2,3
 143 313 143 313 183 313 c 0,4,5
 203 313 203 313 221.5 305 c 128,-1,6
 240 297 240 297 253 284 c 0,7,8
 283 254 283 254 283 213 c 0,9,10
 283 192 283 192 275.5 173 c 128,-1,11
 268 154 268 154 253 142 c 2,12,13
 240 127 240 127 221.5 119.5 c 128,-1,14
 203 112 203 112 182 112 c 0,15,16
 141 112 141 112 111 142 c 0,17,18
 98 154 98 154 90 173 c 128,-1,19
 82 192 82 192 82 213 c 0,0,1
EndSplineSet
EndChar
StartChar: paragraph
Encoding: 182 182 136
Width: 364
Flags: W
Fore
314 417 m 1,0,-1
 314 -55 l 1,1,-1
 261 -55 l 1,2,-1
 261 375 l 1,3,-1
 208 375 l 1,4,-1
 208 -55 l 1,5,-1
 154 -55 l 1,6,-1
 154 181 l 1,7,8
 97 188 97 188 67 218 c 128,-1,9
 37 248 37 248 37 299 c 0,10,11
 37 353 37 353 72.5 385 c 128,-1,12
 108 417 108 417 168 417 c 2,13,-1
 314 417 l 1,0,-1
EndSplineSet
EndChar
StartChar: germandbls
Encoding: 223 223 137
Width: 412
Flags: W
Fore
48 311 m 1,0,1
 48 435 48 435 200 435 c 0,2,3
 272 435 272 435 309.5 403.5 c 128,-1,4
 347 372 347 372 347 311 c 2,5,-1
 347 291 l 1,6,7
 265 285 265 285 265 247 c 0,8,9
 265 236 265 236 271.5 228 c 128,-1,10
 278 220 278 220 305 205 c 2,11,-1
 325 195 l 2,12,13
 356 177 356 177 371.5 153.5 c 128,-1,14
 387 130 387 130 387 97 c 0,15,16
 387 -8 387 -8 257 -8 c 0,17,18
 240 -8 240 -8 221 -4.5 c 128,-1,19
 202 -1 202 -1 181 5 c 1,20,-1
 181 74 l 1,21,22
 196 65 196 65 212.5 61.5 c 128,-1,23
 229 58 229 58 244 58 c 0,24,25
 263 58 263 58 275.5 68.5 c 128,-1,26
 288 79 288 79 288 95 c 0,27,28
 288 108 288 108 280 117.5 c 128,-1,29
 272 127 272 127 246 142 c 2,30,-1
 226 152 l 2,31,32
 202 166 202 166 190 185 c 128,-1,33
 178 204 178 204 178 230 c 0,34,35
 178 261 178 261 196.5 283.5 c 128,-1,36
 215 306 215 306 257 320 c 1,37,38
 256 368 256 368 205 368 c 0,39,40
 149 368 149 368 149 307 c 2,41,-1
 149 0 l 1,42,-1
 48 0 l 1,43,-1
 48 311 l 1,44,-1
 48 311 l 1,0,1
EndSplineSet
EndChar
StartChar: registered
Encoding: 174 174 138
Width: 572
Flags: W
Fore
286 371 m 0,0,1
 219 371 219 371 169 324 c 0,2,3
 146 299 146 299 134 270.5 c 128,-1,4
 122 242 122 242 122 207 c 0,5,6
 122 173 122 173 134 144.5 c 128,-1,7
 146 116 146 116 169 90 c 0,8,9
 194 66 194 66 223 55 c 128,-1,10
 252 44 252 44 286 44 c 256,11,12
 320 44 320 44 348.5 55 c 128,-1,13
 377 66 377 66 402 90 c 0,14,15
 451 142 451 142 451 207 c 0,16,17
 451 275 451 275 402 324 c 0,18,19
 352 371 352 371 286 371 c 0,0,1
260 289 m 1,20,-1
 260 232 l 1,21,-1
 270 232 l 2,22,23
 314 232 314 232 314 261 c 0,24,25
 314 289 314 289 270 289 c 2,26,-1
 260 289 l 1,20,-1
281 328 m 1,27,28
 378 328 378 328 378 261 c 0,29,30
 378 237 378 237 363 221.5 c 128,-1,31
 348 206 348 206 323 201 c 1,32,33
 344 188 344 188 361 156 c 2,34,-1
 392 95 l 1,35,-1
 329 95 l 1,36,-1
 298 153 l 2,37,38
 288 175 288 175 279.5 184.5 c 128,-1,39
 271 194 271 194 263 194 c 2,40,-1
 260 194 l 1,41,-1
 260 95 l 1,42,-1
 201 95 l 1,43,-1
 201 328 l 1,44,-1
 281 328 l 1,45,-1
 281 328 l 1,27,28
286 415 m 0,46,47
 329 415 329 415 365 399 c 128,-1,48
 401 383 401 383 433 353 c 0,49,50
 493 293 493 293 493 207 c 0,51,52
 493 123 493 123 433 61 c 0,53,54
 401 32 401 32 365 16 c 128,-1,55
 329 0 329 0 286 0 c 0,56,57
 244 0 244 0 207 16 c 128,-1,58
 170 32 170 32 140 61 c 0,59,60
 79 121 79 121 79 207 c 0,61,62
 79 249 79 249 94 286.5 c 128,-1,63
 109 324 109 324 140 353 c 0,64,65
 202 415 202 415 286 415 c 0,46,47
EndSplineSet
EndChar
StartChar: copyright
Encoding: 169 169 139
Width: 572
Flags: W
Fore
369 254 m 1,0,1
 337 274 337 274 307 274 c 0,2,3
 275 274 275 274 257.5 256 c 128,-1,4
 240 238 240 238 240 207 c 0,5,6
 240 140 240 140 307 140 c 0,7,8
 344 140 344 140 369 159 c 1,9,-1
 369 100 l 1,10,11
 351 94 351 94 333 90.5 c 128,-1,12
 315 87 315 87 297 87 c 0,13,14
 237 87 237 87 202 119.5 c 128,-1,15
 167 152 167 152 167 207 c 0,16,17
 167 261 167 261 202 294 c 128,-1,18
 237 327 237 327 297 327 c 0,19,20
 317 327 317 327 334.5 323.5 c 128,-1,21
 352 320 352 320 369 314 c 1,22,-1
 369 254 l 1,0,1
286 371 m 0,23,24
 219 371 219 371 169 324 c 0,25,26
 146 299 146 299 134 270.5 c 128,-1,27
 122 242 122 242 122 207 c 0,28,29
 122 173 122 173 134 144.5 c 128,-1,30
 146 116 146 116 169 90 c 0,31,32
 194 66 194 66 223 55 c 128,-1,33
 252 44 252 44 286 44 c 256,34,35
 320 44 320 44 348.5 55 c 128,-1,36
 377 66 377 66 402 90 c 0,37,38
 451 142 451 142 451 207 c 0,39,40
 451 275 451 275 402 324 c 0,41,42
 352 371 352 371 286 371 c 0,23,24
286 415 m 0,43,44
 329 415 329 415 365 399 c 128,-1,45
 401 383 401 383 433 353 c 0,46,47
 493 293 493 293 493 207 c 0,48,49
 493 123 493 123 433 61 c 0,50,51
 401 32 401 32 365 16 c 128,-1,52
 329 0 329 0 286 0 c 0,53,54
 244 0 244 0 207 16 c 128,-1,55
 170 32 170 32 140 61 c 0,56,57
 79 121 79 121 79 207 c 0,58,59
 79 249 79 249 94 286.5 c 128,-1,60
 109 324 109 324 140 353 c 0,61,62
 202 415 202 415 286 415 c 0,43,44
EndSplineSet
EndChar
StartChar: trademark
Encoding: 8482 8482 140
Width: 572
Flags: W
Fore
355 353 m 1,0,-1
 389 417 l 1,1,-1
 452 417 l 1,2,-1
 452 255 l 1,3,-1
 404 255 l 1,4,-1
 404 377 l 1,5,-1
 366 306 l 1,6,-1
 346 306 l 1,7,-1
 307 377 l 1,8,-1
 307 255 l 1,9,-1
 258 255 l 1,10,-1
 258 417 l 1,11,-1
 323 417 l 1,12,-1
 355 353 l 1,0,-1
227 377 m 1,13,-1
 178 377 l 1,14,-1
 178 255 l 1,15,-1
 130 255 l 1,16,-1
 130 377 l 1,17,-1
 82 377 l 1,18,-1
 82 417 l 1,19,-1
 227 417 l 1,20,-1
 227 377 l 1,13,-1
EndSplineSet
EndChar
StartChar: acute
Encoding: 180 180 141
Width: 286
Flags: W
Fore
260 457 m 1,0,-1
 157 352 l 1,1,-1
 102 352 l 1,2,-1
 181 457 l 1,3,-1
 260 457 l 1,0,-1
EndSplineSet
EndChar
StartChar: dieresis
Encoding: 168 168 142
Width: 286
Flags: W
Fore
121 443 m 1,0,-1
 121 373 l 1,1,-1
 55 373 l 1,2,-1
 55 443 l 1,3,-1
 121 443 l 1,0,-1
231 443 m 1,4,-1
 231 373 l 1,5,-1
 165 373 l 1,6,-1
 165 443 l 1,7,-1
 231 443 l 1,4,-1
EndSplineSet
EndChar
StartChar: notequal
Encoding: 8800 8800 143
Width: 479
Flags: W
Fore
282 275 m 1,0,-1
 351 360 l 1,1,-1
 393 326 l 1,2,-1
 352 275 l 1,3,-1
 418 275 l 1,4,-1
 418 210 l 1,5,-1
 303 210 l 1,6,-1
 253 149 l 1,7,-1
 418 149 l 1,8,-1
 418 82 l 1,9,-1
 198 82 l 1,10,-1
 128 -3 l 1,11,-1
 86 33 l 1,12,-1
 127 82 l 1,13,-1
 60 82 l 1,14,-1
 60 149 l 1,15,-1
 179 149 l 1,16,-1
 228 210 l 1,17,-1
 60 210 l 1,18,-1
 60 275 l 1,19,-1
 282 275 l 1,0,-1
EndSplineSet
EndChar
StartChar: AE
Encoding: 198 198 144
Width: 621
Flags: W
Fore
177 174 m 1,0,-1
 283 174 l 1,1,-1
 283 346 l 1,2,-1
 248 346 l 1,3,-1
 177 174 l 1,0,-1
573 417 m 1,4,-1
 573 336 l 1,5,-1
 390 336 l 1,6,-1
 390 257 l 1,7,-1
 561 257 l 1,8,-1
 561 177 l 1,9,-1
 390 177 l 1,10,-1
 390 81 l 1,11,-1
 579 81 l 1,12,-1
 579 0 l 1,13,-1
 283 0 l 1,14,-1
 283 98 l 1,15,-1
 145 98 l 1,16,-1
 104 0 l 1,17,-1
 0 0 l 1,18,-1
 174 417 l 1,19,-1
 573 417 l 1,4,-1
EndSplineSet
EndChar
StartChar: Oslash
Encoding: 216 216 145
Width: 486
Flags: W
Fore
168 104 m 1,0,1
 197 69 197 69 244 69 c 0,2,3
 292 69 292 69 319.5 105.5 c 128,-1,4
 347 142 347 142 347 208 c 0,5,6
 347 227 347 227 344.5 243.5 c 128,-1,7
 342 260 342 260 338 273 c 1,8,-1
 168 104 l 1,9,-1
 168 104 l 1,0,1
316 314 m 1,10,11
 303 331 303 331 284.5 339 c 128,-1,12
 266 347 266 347 244 347 c 0,13,14
 193 347 193 347 166.5 310.5 c 128,-1,15
 140 274 140 274 140 208 c 0,16,17
 140 172 140 172 148 146 c 1,18,-1
 316 314 l 1,19,-1
 316 314 l 1,10,11
69 67 m 1,20,21
 28 126 28 126 28 208 c 0,22,23
 28 310 28 310 85 367 c 128,-1,24
 142 424 142 424 244 424 c 0,25,26
 328 424 328 424 383 381 c 1,27,-1
 439 438 l 1,28,-1
 471 406 l 1,29,-1
 415 349 l 1,30,31
 436 323 436 323 446.5 286.5 c 128,-1,32
 457 250 457 250 457 208 c 0,33,34
 457 106 457 106 401.5 49 c 128,-1,35
 346 -8 346 -8 244 -8 c 0,36,37
 158 -8 158 -8 101 37 c 1,38,-1
 44 -21 l 1,39,-1
 13 11 l 1,40,-1
 69 67 l 1,41,-1
 69 67 l 1,20,21
EndSplineSet
EndChar
StartChar: infinity
Encoding: 8734 8734 146
Width: 476
Flags: W
Fore
267 157 m 1,0,1
 291 119 291 119 333 119 c 0,2,3
 357 119 357 119 373 133.5 c 128,-1,4
 389 148 389 148 389 169 c 0,5,6
 389 191 389 191 374.5 205 c 128,-1,7
 360 219 360 219 339 219 c 0,8,9
 319 219 319 219 302.5 205 c 128,-1,10
 286 191 286 191 267 157 c 1,0,1
210 183 m 1,11,12
 186 221 186 221 145 221 c 0,13,14
 120 221 120 221 103.5 207 c 128,-1,15
 87 193 87 193 87 171 c 256,16,17
 87 149 87 149 102 135.5 c 128,-1,18
 117 122 117 122 139 122 c 0,19,20
 158 122 158 122 175 136 c 128,-1,21
 192 150 192 150 210 183 c 1,11,12
240 124 m 1,22,23
 200 52 200 52 149 52 c 0,24,25
 129 52 129 52 111.5 61 c 128,-1,26
 94 70 94 70 81.5 86 c 128,-1,27
 69 102 69 102 61.5 123.5 c 128,-1,28
 54 145 54 145 54 169 c 0,29,30
 54 223 54 223 79 255.5 c 128,-1,31
 104 288 104 288 143 288 c 0,32,33
 167 288 167 288 188.5 271.5 c 128,-1,34
 210 255 210 255 238 216 c 1,35,36
 276 288 276 288 329 288 c 0,37,38
 368 288 368 288 395 254.5 c 128,-1,39
 422 221 422 221 422 170 c 0,40,41
 422 118 422 118 397.5 85 c 128,-1,42
 373 52 373 52 335 52 c 0,43,44
 309 52 309 52 288 67.5 c 128,-1,45
 267 83 267 83 240 124 c 1,22,23
EndSplineSet
EndChar
StartChar: plusminus
Encoding: 177 177 147
Width: 479
Flags: W
Fore
272 260 m 1,0,-1
 418 260 l 1,1,-1
 418 194 l 1,2,-1
 272 194 l 1,3,-1
 272 95 l 1,4,-1
 206 95 l 1,5,-1
 206 194 l 1,6,-1
 60 194 l 1,7,-1
 60 260 l 1,8,-1
 206 260 l 1,9,-1
 206 358 l 1,10,-1
 272 358 l 1,11,-1
 272 260 l 1,0,-1
418 66 m 1,12,-1
 418 0 l 1,13,-1
 60 0 l 1,14,-1
 60 66 l 1,15,-1
 418 66 l 1,12,-1
EndSplineSet
EndChar
StartChar: lessequal
Encoding: 8804 8804 148
Width: 479
Flags: W
Fore
418 0 m 1,0,-1
 60 0 l 1,1,-1
 60 66 l 1,2,-1
 418 66 l 1,3,-1
 418 0 l 1,0,-1
168 206 m 1,4,-1
 418 149 l 1,5,-1
 418 80 l 1,6,-1
 60 173 l 1,7,-1
 60 240 l 1,8,-1
 418 333 l 1,9,-1
 418 264 l 1,10,-1
 168 206 l 1,4,-1
EndSplineSet
EndChar
StartChar: greaterequal
Encoding: 8805 8805 149
Width: 479
Flags: W
Fore
418 66 m 1,0,-1
 418 0 l 1,1,-1
 60 0 l 1,2,-1
 60 66 l 1,3,-1
 418 66 l 1,0,-1
60 333 m 1,4,-1
 418 240 l 1,5,-1
 418 173 l 1,6,-1
 60 80 l 1,7,-1
 60 149 l 1,8,-1
 311 206 l 1,9,-1
 60 264 l 1,10,-1
 60 333 l 1,4,-1
EndSplineSet
EndChar
StartChar: yen
Encoding: 165 165 150
Width: 398
Flags: W
Fore
252 117 m 1,0,-1
 252 0 l 1,1,-1
 146 0 l 1,2,-1
 146 117 l 1,3,-1
 19 117 l 1,4,-1
 19 170 l 1,5,-1
 146 170 l 1,6,-1
 146 189 l 1,7,-1
 132 213 l 1,8,-1
 19 213 l 1,9,-1
 19 266 l 1,10,-1
 101 266 l 1,11,-1
 7 417 l 1,12,-1
 119 417 l 1,13,-1
 199 288 l 1,14,-1
 279 417 l 1,15,-1
 391 417 l 1,16,-1
 297 266 l 1,17,-1
 379 266 l 1,18,-1
 379 213 l 1,19,-1
 266 213 l 1,20,-1
 252 189 l 1,21,-1
 252 170 l 1,22,-1
 379 170 l 1,23,-1
 379 117 l 1,24,-1
 252 117 l 1,0,-1
EndSplineSet
EndChar
StartChar: mu
Encoding: 181 181 151
Width: 421
Flags: W
Fore
49 313 m 1,0,-1
 149 313 l 1,1,-1
 149 131 l 2,2,3
 149 66 149 66 206 66 c 0,4,5
 262 66 262 66 262 131 c 2,6,-1
 262 313 l 1,7,-1
 362 313 l 1,8,-1
 362 104 l 2,9,10
 362 84 362 84 367 75.5 c 128,-1,11
 372 67 372 67 383 67 c 0,12,13
 389 67 389 67 393 68.5 c 128,-1,14
 397 70 397 70 402 74 c 1,15,-1
 402 4 l 1,16,17
 374 -8 374 -8 349 -8 c 0,18,19
 325 -8 325 -8 309 2.5 c 128,-1,20
 293 13 293 13 283 37 c 1,21,22
 257 -8 257 -8 208 -8 c 0,23,24
 166 -8 166 -8 149 19 c 1,25,-1
 149 -120 l 1,26,-1
 49 -120 l 1,27,-1
 49 313 l 1,0,-1
EndSplineSet
EndChar
StartChar: partialdiff
Encoding: 8706 8706 152
Width: 311
Flags: W
Fore
214 191 m 1,0,1
 226 256 226 256 226 290 c 0,2,3
 226 315 226 315 218 331.5 c 128,-1,4
 210 348 210 348 199 348 c 0,5,6
 190 348 190 348 161 322 c 0,7,8
 135 297 135 297 111 297 c 0,9,10
 98 297 98 297 89 306.5 c 128,-1,11
 80 316 80 316 80 330 c 0,12,13
 80 339 80 339 87 348 c 128,-1,14
 94 357 94 357 106 364 c 128,-1,15
 118 371 118 371 133.5 375.5 c 128,-1,16
 149 380 149 380 167 380 c 0,17,18
 227 380 227 380 260.5 335 c 128,-1,19
 294 290 294 290 294 212 c 0,20,21
 294 117 294 117 249 55 c 256,22,23
 204 -7 204 -7 132 -7 c 0,24,25
 81 -7 81 -7 49 25.5 c 128,-1,26
 17 58 17 58 17 109 c 0,27,28
 17 138 17 138 25.5 162 c 128,-1,29
 34 186 34 186 49.5 203.5 c 128,-1,30
 65 221 65 221 86.5 231 c 128,-1,31
 108 241 108 241 133 241 c 0,32,33
 161 241 161 241 180.5 228.5 c 128,-1,34
 200 216 200 216 214 191 c 1,0,1
195 149 m 0,35,36
 195 180 195 180 184.5 197.5 c 128,-1,37
 174 215 174 215 154 215 c 0,38,39
 129 215 129 215 110.5 177.5 c 128,-1,40
 92 140 92 140 92 80 c 0,41,42
 92 15 92 15 132 15 c 0,43,44
 160 15 160 15 177.5 52 c 128,-1,45
 195 89 195 89 195 149 c 0,35,36
EndSplineSet
EndChar
StartChar: summation
Encoding: 8721 8721 153
Width: 411
Flags: W
Fore
383 412 m 1,0,-1
 383 337 l 1,1,-1
 139 337 l 1,2,-1
 312 157 l 1,3,-1
 139 -36 l 1,4,-1
 398 -36 l 1,5,-1
 398 -109 l 1,6,-1
 12 -109 l 1,7,-1
 12 -62 l 1,8,-1
 206 153 l 1,9,-1
 19 347 l 1,10,-1
 19 412 l 1,11,-1
 383 412 l 1,0,-1
EndSplineSet
EndChar
StartChar: product
Encoding: 8719 8719 154
Width: 450
Flags: W
Fore
408 412 m 1,0,-1
 408 -109 l 1,1,-1
 311 -109 l 1,2,-1
 311 331 l 1,3,-1
 139 331 l 1,4,-1
 139 -109 l 1,5,-1
 43 -109 l 1,6,-1
 43 412 l 1,7,-1
 408 412 l 1,0,-1
EndSplineSet
EndChar
StartChar: pi
Encoding: 960 960 155
Width: 368
Flags: W
Fore
367 243 m 1,0,-1
 318 243 l 1,1,-1
 275 0 l 1,2,-1
 195 0 l 1,3,-1
 238 243 l 1,4,-1
 171 243 l 1,5,-1
 129 0 l 1,6,-1
 49 0 l 1,7,-1
 90 243 l 1,8,-1
 84 243 l 2,9,10
 54 243 54 243 50 206 c 1,11,-1
 -9 206 l 1,12,13
 -5 233 -5 233 3 252 c 128,-1,14
 11 271 11 271 25 283 c 128,-1,15
 39 295 39 295 60 300 c 128,-1,16
 81 305 81 305 111 305 c 2,17,-1
 378 305 l 1,18,-1
 367 243 l 1,0,-1
EndSplineSet
EndChar
StartChar: integral
Encoding: 8747 8747 156
Width: 348
Flags: W
Fore
101 -68 m 0,0,1
 129 -68 129 -68 134 117 c 0,2,3
 135 131 135 131 135.5 142 c 128,-1,4
 136 153 136 153 136 160 c 0,5,6
 141 306 141 306 172.5 370.5 c 128,-1,7
 204 435 204 435 269 435 c 0,8,9
 299 435 299 435 317 420.5 c 128,-1,10
 335 406 335 406 335 381 c 0,11,12
 335 364 335 364 323.5 353 c 128,-1,13
 312 342 312 342 294 342 c 0,14,15
 257 342 257 342 257 383 c 0,16,17
 257 394 257 394 255 397 c 128,-1,18
 253 400 253 400 248 400 c 0,19,20
 222 400 222 400 214 214 c 0,21,22
 214 206 214 206 214 200 c 128,-1,23
 214 194 214 194 213 189 c 1,24,25
 211 143 211 143 209 110 c 128,-1,26
 207 77 207 77 205 57 c 256,27,28
 203 37 203 37 198.5 19.5 c 128,-1,29
 194 2 194 2 189 -12 c 0,30,31
 153 -104 153 -104 80 -104 c 0,32,33
 50 -104 50 -104 32.5 -89.5 c 128,-1,34
 15 -75 15 -75 15 -50 c 0,35,36
 15 -33 15 -33 26.5 -22 c 128,-1,37
 38 -11 38 -11 57 -11 c 0,38,39
 74 -11 74 -11 83 -21.5 c 128,-1,40
 92 -32 92 -32 92 -50 c 0,41,42
 92 -54 92 -54 91 -56 c 1,43,44
 91 -59 91 -59 92 -63.5 c 128,-1,45
 93 -68 93 -68 101 -68 c 0,0,1
EndSplineSet
EndChar
StartChar: ordfeminine
Encoding: 170 170 157
Width: 323
Flags: W
Fore
276 160 m 1,0,-1
 276 104 l 1,1,-1
 49 104 l 1,2,-1
 49 160 l 1,3,-1
 276 160 l 1,0,-1
180 303 m 1,4,5
 143 303 143 303 128 295 c 128,-1,6
 113 287 113 287 113 270 c 0,7,8
 113 240 113 240 149 240 c 0,9,10
 172 240 172 240 188.5 255.5 c 128,-1,11
 205 271 205 271 205 295 c 2,12,-1
 205 303 l 1,13,-1
 180 303 l 1,14,-1
 180 303 l 1,4,5
279 200 m 1,15,-1
 211 200 l 1,16,-1
 211 236 l 1,17,18
 195 214 195 214 176 204 c 128,-1,19
 157 194 157 194 130 194 c 0,20,21
 88 194 88 194 66 213 c 128,-1,22
 44 232 44 232 44 264 c 0,23,24
 44 304 44 304 73.5 322 c 128,-1,25
 103 340 103 340 166 340 c 2,26,-1
 204 340 l 1,27,-1
 204 347 l 2,28,29
 204 378 204 378 154 378 c 0,30,31
 108 378 108 378 63 358 c 1,32,-1
 63 409 l 1,33,34
 88 417 88 417 112 420.5 c 128,-1,35
 136 424 136 424 157 424 c 0,36,37
 220 424 220 424 249.5 399.5 c 128,-1,38
 279 375 279 375 279 326 c 2,39,-1
 279 200 l 1,15,-1
EndSplineSet
EndChar
StartChar: ordmasculine
Encoding: 186 186 158
Width: 323
Flags: W
Fore
161 424 m 256,0,1
 221 424 221 424 255.5 393.5 c 128,-1,2
 290 363 290 363 290 309 c 256,3,4
 290 255 290 255 256 225 c 128,-1,5
 222 195 222 195 161 195 c 0,6,7
 101 195 101 195 67 225 c 128,-1,8
 33 255 33 255 33 309 c 256,9,10
 33 363 33 363 67 393.5 c 128,-1,11
 101 424 101 424 161 424 c 256,0,1
276 160 m 1,12,-1
 276 104 l 1,13,-1
 46 104 l 1,14,-1
 46 160 l 1,15,-1
 276 160 l 1,12,-1
161 377 m 0,16,17
 139 377 139 377 125.5 359.5 c 128,-1,18
 112 342 112 342 112 309 c 0,19,20
 112 277 112 277 125.5 260 c 128,-1,21
 139 243 139 243 161 243 c 0,22,23
 210 243 210 243 210 309 c 0,24,25
 210 377 210 377 161 377 c 0,16,17
EndSplineSet
EndChar
StartChar: Omega
Encoding: 937 937 159
Width: 440
Flags: W
Fore
424 71 m 1,0,-1
 424 0 l 1,1,-1
 253 0 l 1,2,-1
 253 81 l 1,3,4
 289 105 289 105 307.5 142 c 128,-1,5
 326 179 326 179 326 225 c 0,6,7
 326 282 326 282 297.5 314.5 c 128,-1,8
 269 347 269 347 220 347 c 0,9,10
 169 347 169 347 141 314.5 c 128,-1,11
 113 282 113 282 113 225 c 0,12,13
 113 179 113 179 131.5 142 c 128,-1,14
 150 105 150 105 185 81 c 1,15,-1
 185 0 l 1,16,-1
 16 0 l 1,17,-1
 16 71 l 1,18,-1
 97 71 l 1,19,20
 27 137 27 137 27 229 c 0,21,22
 27 273 27 273 40.5 308 c 128,-1,23
 54 343 54 343 79.5 368.5 c 128,-1,24
 105 394 105 394 140.5 407.5 c 128,-1,25
 176 421 176 421 220 421 c 256,26,27
 264 421 264 421 299 407.5 c 128,-1,28
 334 394 334 394 359.5 368.5 c 128,-1,29
 385 343 385 343 398.5 308 c 128,-1,30
 412 273 412 273 412 229 c 0,31,32
 412 183 412 183 394.5 144 c 128,-1,33
 377 105 377 105 344 71 c 1,34,-1
 424 71 l 1,0,-1
EndSplineSet
EndChar
StartChar: ae
Encoding: 230 230 160
Width: 599
Flags: W
Fore
469 190 m 1,0,1
 469 219 469 219 452.5 236 c 128,-1,2
 436 253 436 253 409 253 c 0,3,4
 350 253 350 253 340 190 c 1,5,-1
 469 190 l 1,6,-1
 469 190 l 1,0,1
188 141 m 1,7,8
 126 141 126 141 126 99 c 0,9,10
 126 80 126 80 138 69 c 128,-1,11
 150 58 150 58 173 58 c 0,12,13
 202 58 202 58 221.5 78.5 c 128,-1,14
 241 99 241 99 241 130 c 2,15,-1
 241 141 l 1,16,-1
 188 141 l 1,17,-1
 188 141 l 1,7,8
52 305 m 1,18,19
 85 312 85 312 116.5 316 c 128,-1,20
 148 320 148 320 174 320 c 0,21,22
 216 320 216 320 246.5 309.5 c 128,-1,23
 277 299 277 299 297 276 c 1,24,25
 339 320 339 320 410 320 c 0,26,27
 483 320 483 320 527.5 276 c 128,-1,28
 572 232 572 232 572 157 c 2,29,-1
 572 129 l 1,30,-1
 338 129 l 1,31,32
 346 58 346 58 424 58 c 0,33,34
 486 58 486 58 557 96 c 1,35,-1
 557 19 l 1,36,37
 521 5 521 5 485.5 -1.5 c 128,-1,38
 450 -8 450 -8 415 -8 c 0,39,40
 364 -8 364 -8 327.5 7 c 128,-1,41
 291 22 291 22 271 50 c 1,42,43
 219 -8 219 -8 142 -8 c 0,44,45
 87 -8 87 -8 55.5 19 c 128,-1,46
 24 46 24 46 24 94 c 0,47,48
 24 149 24 149 62 174.5 c 128,-1,49
 100 200 100 200 181 200 c 2,50,-1
 241 200 l 1,51,-1
 241 208 l 2,52,53
 241 232 241 232 222 242.5 c 128,-1,54
 203 253 203 253 163 253 c 0,55,56
 131 253 131 253 103.5 247.5 c 128,-1,57
 76 242 76 242 52 228 c 1,58,-1
 52 305 l 1,59,-1
 52 305 l 1,18,19
EndSplineSet
EndChar
StartChar: oslash
Encoding: 248 248 161
Width: 393
Flags: W
Fore
240 234 m 1,0,1
 231 242 231 242 220.5 245 c 128,-1,2
 210 248 210 248 196 248 c 0,3,4
 129 248 129 248 129 156 c 0,5,6
 129 145 129 145 129.5 136 c 128,-1,7
 130 127 130 127 132 119 c 1,8,-1
 240 234 l 1,9,-1
 240 234 l 1,0,1
152 80 m 1,10,11
 169 63 169 63 196 63 c 0,12,13
 230 63 230 63 247 87 c 128,-1,14
 264 111 264 111 264 156 c 0,15,16
 264 180 264 180 260 195 c 1,17,-1
 152 80 l 1,18,-1
 152 80 l 1,10,11
62 44 m 1,19,20
 24 88 24 88 24 156 c 0,21,22
 24 234 24 234 69.5 277 c 128,-1,23
 115 320 115 320 196 320 c 0,24,25
 256 320 256 320 297 295 c 1,26,-1
 339 340 l 1,27,-1
 369 312 l 1,28,-1
 330 270 l 1,29,30
 368 226 368 226 368 156 c 0,31,32
 368 78 368 78 322.5 35 c 128,-1,33
 277 -8 277 -8 196 -8 c 0,34,35
 166 -8 166 -8 141 -2 c 128,-1,36
 116 4 116 4 95 18 c 1,37,-1
 53 -26 l 1,38,-1
 22 0 l 1,39,-1
 62 44 l 1,40,-1
 62 44 l 1,19,20
EndSplineSet
EndChar
StartChar: questiondown
Encoding: 191 191 162
Width: 332
Flags: W
Fore
237 275 m 1,0,-1
 237 262 l 2,1,2
 237 240 237 240 228 222 c 128,-1,3
 219 204 219 204 188 175 c 2,4,-1
 170 160 l 2,5,6
 154 146 154 146 147.5 133.5 c 128,-1,7
 141 121 141 121 141 107 c 0,8,9
 141 65 141 65 191 65 c 0,10,11
 238 65 238 65 294 103 c 1,12,-1
 294 15 l 1,13,14
 261 3 261 3 233 -2.5 c 128,-1,15
 205 -8 205 -8 179 -8 c 0,16,17
 40 -8 40 -8 40 101 c 0,18,19
 40 128 40 128 50.5 149.5 c 128,-1,20
 61 171 61 171 87 195 c 2,21,-1
 105 212 l 2,22,23
 125 230 125 230 131 240 c 128,-1,24
 137 250 137 250 137 263 c 2,25,-1
 137 275 l 1,26,-1
 237 275 l 1,0,-1
137 317 m 1,27,-1
 137 417 l 1,28,-1
 237 417 l 1,29,-1
 237 317 l 1,30,-1
 137 317 l 1,27,-1
EndSplineSet
EndChar
StartChar: exclamdown
Encoding: 161 161 163
Width: 261
Flags: W
Fore
80 160 m 1,0,-1
 95 276 l 1,1,-1
 166 276 l 1,2,-1
 181 160 l 1,3,-1
 181 0 l 1,4,-1
 80 0 l 1,5,-1
 80 160 l 1,0,-1
80 417 m 1,6,-1
 181 417 l 1,7,-1
 181 317 l 1,8,-1
 80 317 l 1,9,-1
 80 417 l 1,6,-1
EndSplineSet
EndChar
StartChar: logicalnot
Encoding: 172 172 164
Width: 479
Flags: W
Fore
418 253 m 1,0,-1
 418 80 l 1,1,-1
 352 80 l 1,2,-1
 352 188 l 1,3,-1
 60 188 l 1,4,-1
 60 253 l 1,5,-1
 418 253 l 1,0,-1
EndSplineSet
EndChar
StartChar: radical
Encoding: 8730 8730 165
Width: 381
Flags: W
Fore
382 478 m 1,0,-1
 382 437 l 1,1,-1
 355 437 l 1,2,-1
 191 -12 l 1,3,-1
 158 -12 l 1,4,-1
 71 225 l 1,5,-1
 32 210 l 1,6,-1
 22 246 l 1,7,-1
 122 281 l 1,8,-1
 184 104 l 1,9,-1
 323 478 l 1,10,-1
 382 478 l 1,0,-1
EndSplineSet
EndChar
StartChar: florin
Encoding: 402 402 166
Width: 398
Flags: W
Fore
372 352 m 1,0,1
 347 368 347 368 326 368 c 0,2,3
 299 368 299 368 285 352 c 128,-1,4
 271 336 271 336 264 297 c 2,5,-1
 254 249 l 1,6,-1
 335 249 l 1,7,-1
 335 183 l 1,8,-1
 242 183 l 1,9,-1
 205 -4 l 2,10,11
 193 -62 193 -62 161.5 -90.5 c 128,-1,12
 130 -119 130 -119 76 -119 c 0,13,14
 58 -119 58 -119 39.5 -116 c 128,-1,15
 21 -113 21 -113 1 -108 c 1,16,-1
 1 -37 l 1,17,18
 15 -45 15 -45 27 -48.5 c 128,-1,19
 39 -52 39 -52 50 -52 c 0,20,21
 75 -52 75 -52 88.5 -36.5 c 128,-1,22
 102 -21 102 -21 110 19 c 2,23,-1
 144 183 l 1,24,-1
 76 183 l 1,25,-1
 76 249 l 1,26,-1
 156 249 l 1,27,-1
 170 320 l 2,28,29
 194 435 194 435 298 435 c 0,30,31
 317 435 317 435 335 432.5 c 128,-1,32
 353 430 353 430 372 423 c 1,33,-1
 372 352 l 1,0,1
EndSplineSet
EndChar
StartChar: approxequal
Encoding: 8776 8776 167
Width: 479
Flags: W
Fore
418 228 m 1,0,1
 389 205 389 205 364 195.5 c 128,-1,2
 339 186 339 186 312 186 c 0,3,4
 281 186 281 186 243 202 c 0,5,6
 237 204 237 204 236 205 c 1,7,8
 230 207 l 2,9,10
 187 225 187 225 160 225 c 0,11,12
 112 225 112 225 60 180 c 1,13,-1
 60 248 l 1,14,15
 117 289 117 289 167 289 c 0,16,17
 196 289 196 289 238 272 c 0,18,19
 243 270 243 270 244 270 c 1,20,21
 245 269 245 269 246 269 c 128,-1,22
 247 269 247 269 249 268 c 0,23,24
 293 250 293 250 319 250 c 0,25,26
 344 250 344 250 367 261 c 128,-1,27
 390 272 390 272 418 295 c 1,28,-1
 418 228 l 1,0,1
418 110 m 1,29,30
 389 88 389 88 364 78 c 128,-1,31
 339 68 339 68 312 68 c 0,32,33
 283 68 283 68 243 85 c 0,34,35
 237 87 237 87 236 88 c 1,36,37
 230 90 l 2,38,39
 187 108 187 108 160 108 c 0,40,41
 112 108 112 108 60 63 c 1,42,-1
 60 131 l 1,43,44
 90 152 90 152 115.5 162 c 128,-1,45
 141 172 141 172 167 172 c 0,46,47
 198 172 198 172 237 156 c 0,48,49
 243 154 243 154 244 153 c 256,50,51
 245 152 245 152 246 152 c 128,-1,52
 247 152 247 152 249 151 c 0,53,54
 294 134 294 134 319 134 c 256,55,56
 344 134 344 134 367 144 c 128,-1,57
 390 154 390 154 418 179 c 1,58,-1
 418 110 l 1,29,30
EndSplineSet
EndChar
StartChar: Delta
Encoding: 8710 8710 168
Width: 398
Flags: W
Fore
108 71 m 1,0,-1
 290 71 l 1,1,-1
 199 310 l 1,2,-1
 108 71 l 1,0,-1
242 412 m 1,3,-1
 398 0 l 1,4,-1
 0 0 l 1,5,-1
 157 412 l 1,6,-1
 242 412 l 1,3,-1
EndSplineSet
EndChar
StartChar: guillemotleft
Encoding: 171 171 169
Width: 369
Flags: W
Fore
182 230 m 1,0,-1
 100 167 l 1,1,-1
 182 106 l 1,2,-1
 182 39 l 1,3,-1
 44 142 l 1,4,-1
 44 193 l 1,5,-1
 182 297 l 1,6,-1
 182 230 l 1,0,-1
316 230 m 1,7,-1
 234 167 l 1,8,-1
 316 106 l 1,9,-1
 316 39 l 1,10,-1
 178 142 l 1,11,-1
 178 193 l 1,12,-1
 316 297 l 1,13,-1
 316 230 l 1,7,-1
EndSplineSet
EndChar
StartChar: guillemotright
Encoding: 187 187 170
Width: 369
Flags: W
Fore
326 193 m 1,0,-1
 326 142 l 1,1,-1
 188 39 l 1,2,-1
 188 106 l 1,3,-1
 269 167 l 1,4,-1
 188 230 l 1,5,-1
 188 297 l 1,6,-1
 326 193 l 1,0,-1
191 193 m 1,7,-1
 191 142 l 1,8,-1
 54 39 l 1,9,-1
 54 106 l 1,10,-1
 136 167 l 1,11,-1
 54 230 l 1,12,-1
 54 297 l 1,13,-1
 191 193 l 1,7,-1
EndSplineSet
EndChar
StartChar: ellipsis
Encoding: 8230 8230 171
Width: 572
Flags: W
Fore
526 108 m 1,0,-1
 526 0 l 1,1,-1
 427 0 l 1,2,-1
 427 108 l 1,3,-1
 526 108 l 1,0,-1
146 108 m 1,4,-1
 146 0 l 1,5,-1
 45 0 l 1,6,-1
 45 108 l 1,7,-1
 146 108 l 1,4,-1
336 108 m 1,8,-1
 336 0 l 1,9,-1
 236 0 l 1,10,-1
 236 108 l 1,11,-1
 336 108 l 1,8,-1
EndSplineSet
EndChar
StartChar: Agrave
Encoding: 192 192 173
Width: 443
Flags: W
Fore
138 76 m 1,0,-1
 110 0 l 1,1,-1
 3 0 l 1,2,-1
 157 417 l 1,3,-1
 285 417 l 1,4,-1
 440 0 l 1,5,-1
 332 0 l 1,6,-1
 306 76 l 1,7,-1
 138 76 l 1,0,-1
278 152 m 1,8,-1
 222 319 l 1,9,-1
 164 152 l 1,10,-1
 278 152 l 1,8,-1
255 456 m 1,11,-1
 201 456 l 1,12,-1
 121 531 l 1,13,-1
 200 531 l 1,14,-1
 255 456 l 1,11,-1
EndSplineSet
EndChar
StartChar: Atilde
Encoding: 195 195 174
Width: 443
Flags: W
Fore
138 76 m 1,0,-1
 110 0 l 1,1,-1
 3 0 l 1,2,-1
 157 417 l 1,3,-1
 285 417 l 1,4,-1
 440 0 l 1,5,-1
 332 0 l 1,6,-1
 306 76 l 1,7,-1
 138 76 l 1,0,-1
278 152 m 1,8,-1
 222 319 l 1,9,-1
 164 152 l 1,10,-1
 278 152 l 1,8,-1
199 479 m 2,11,12
 198 480 198 480 197.5 480 c 128,-1,13
 197 480 197 480 196 481 c 0,14,15
 182 489 182 489 176 489 c 0,16,17
 156 489 156 489 156 457 c 2,18,-1
 156 456 l 1,19,-1
 117 456 l 1,20,-1
 117 464 l 2,21,22
 117 494 117 494 132 512.5 c 128,-1,23
 147 531 147 531 172 531 c 0,24,25
 189 531 189 531 214 517 c 2,26,-1
 230 506 l 2,27,28
 243 498 243 498 251 498 c 0,29,30
 273 498 273 498 273 531 c 1,31,-1
 312 531 l 1,32,33
 312 529 312 529 311.5 526 c 128,-1,34
 311 523 311 523 311 522 c 0,35,36
 311 493 311 493 296 474.5 c 128,-1,37
 281 456 281 456 256 456 c 0,38,39
 245 456 245 456 235 459 c 128,-1,40
 225 462 225 462 215 470 c 1,41,-1
 199 479 l 2,11,12
EndSplineSet
EndChar
StartChar: Otilde
Encoding: 213 213 175
Width: 486
Flags: W
Fore
244 347 m 0,0,1
 193 347 193 347 166.5 310.5 c 128,-1,2
 140 274 140 274 140 208 c 256,3,4
 140 142 140 142 166.5 105.5 c 128,-1,5
 193 69 193 69 244 69 c 0,6,7
 292 69 292 69 319.5 105.5 c 128,-1,8
 347 142 347 142 347 208 c 256,9,10
 347 274 347 274 319.5 310.5 c 128,-1,11
 292 347 292 347 244 347 c 0,0,1
244 424 m 256,12,13
 346 424 346 424 401.5 367 c 128,-1,14
 457 310 457 310 457 208 c 256,15,16
 457 106 457 106 401.5 49 c 128,-1,17
 346 -8 346 -8 244 -8 c 256,18,19
 142 -8 142 -8 85 49 c 128,-1,20
 28 106 28 106 28 208 c 256,21,22
 28 310 28 310 85 367 c 128,-1,23
 142 424 142 424 244 424 c 256,12,13
222 479 m 2,24,25
 221 480 221 480 220.5 480 c 128,-1,26
 220 480 220 480 219 481 c 0,27,28
 205 489 205 489 199 489 c 0,29,30
 179 489 179 489 179 457 c 2,31,-1
 179 456 l 1,32,-1
 140 456 l 1,33,-1
 140 464 l 2,34,35
 140 494 140 494 155 512.5 c 128,-1,36
 170 531 170 531 195 531 c 0,37,38
 212 531 212 531 237 517 c 2,39,-1
 253 506 l 2,40,41
 266 498 266 498 274 498 c 0,42,43
 296 498 296 498 296 531 c 1,44,-1
 335 531 l 1,45,46
 335 529 335 529 334.5 526 c 128,-1,47
 334 523 334 523 334 522 c 0,48,49
 334 493 334 493 319 474.5 c 128,-1,50
 304 456 304 456 279 456 c 0,51,52
 268 456 268 456 258 459 c 128,-1,53
 248 462 248 462 238 470 c 1,54,-1
 222 479 l 2,24,25
EndSplineSet
EndChar
StartChar: OE
Encoding: 338 338 176
Width: 667
Flags: W
Fore
300 336 m 2,0,1
 140 336 140 336 140 209 c 0,2,3
 140 81 140 81 300 81 c 2,4,-1
 330 81 l 1,5,-1
 330 336 l 1,6,-1
 300 336 l 2,0,1
620 417 m 1,7,-1
 620 336 l 1,8,-1
 437 336 l 1,9,-1
 437 257 l 1,10,-1
 608 257 l 1,11,-1
 608 177 l 1,12,-1
 437 177 l 1,13,-1
 437 81 l 1,14,-1
 626 81 l 1,15,-1
 626 0 l 1,16,-1
 305 0 l 1,17,-1
 284 0 l 2,18,19
 160 0 160 0 94 53.5 c 128,-1,20
 28 107 28 107 28 209 c 0,21,22
 28 309 28 309 94 363 c 128,-1,23
 160 417 160 417 284 417 c 2,24,-1
 305 417 l 1,25,-1
 620 417 l 1,7,-1
EndSplineSet
EndChar
StartChar: oe
Encoding: 339 339 177
Width: 626
Flags: W
Fore
496 190 m 1,0,1
 496 219 496 219 478.5 236 c 128,-1,2
 461 253 461 253 435 253 c 0,3,4
 407 253 407 253 388.5 237.5 c 128,-1,5
 370 222 370 222 366 190 c 1,6,-1
 496 190 l 1,7,-1
 496 190 l 1,0,1
598 129 m 1,8,-1
 365 129 l 1,9,10
 371 58 371 58 451 58 c 0,11,12
 510 58 510 58 583 96 c 1,13,-1
 583 19 l 1,14,15
 547 5 547 5 511.5 -1.5 c 128,-1,16
 476 -8 476 -8 442 -8 c 0,17,18
 394 -8 394 -8 365 3.5 c 128,-1,19
 336 15 336 15 316 39 c 1,20,21
 267 -8 267 -8 196 -8 c 0,22,23
 115 -8 115 -8 69.5 35 c 128,-1,24
 24 78 24 78 24 156 c 256,25,26
 24 234 24 234 69.5 277 c 128,-1,27
 115 320 115 320 196 320 c 0,28,29
 271 320 271 320 314 273 c 1,30,31
 337 297 337 297 365 308.5 c 128,-1,32
 393 320 393 320 431 320 c 0,33,34
 509 320 509 320 553.5 276.5 c 128,-1,35
 598 233 598 233 598 157 c 2,36,-1
 598 129 l 1,8,-1
196 248 m 0,37,38
 129 248 129 248 129 156 c 0,39,40
 129 111 129 111 146 87 c 128,-1,41
 163 63 163 63 196 63 c 0,42,43
 230 63 230 63 247 87 c 128,-1,44
 264 111 264 111 264 156 c 0,45,46
 264 248 264 248 196 248 c 0,37,38
EndSplineSet
EndChar
StartChar: endash
Encoding: 8211 8211 178
Width: 286
Flags: W
Fore
286 193 m 1,0,-1
 286 121 l 1,1,-1
 0 121 l 1,2,-1
 0 193 l 1,3,-1
 286 193 l 1,0,-1
EndSplineSet
EndChar
StartChar: emdash
Encoding: 8212 8212 179
Width: 572
Flags: W
Fore
572 193 m 1,0,-1
 572 121 l 1,1,-1
 0 121 l 1,2,-1
 0 193 l 1,3,-1
 572 193 l 1,0,-1
EndSplineSet
EndChar
StartChar: quotedblleft
Encoding: 8220 8220 180
Width: 375
Flags: W
Fore
200 240 m 1,0,-1
 200 318 l 1,1,-1
 263 417 l 1,2,-1
 324 417 l 1,3,-1
 295 318 l 1,4,-1
 295 240 l 1,5,-1
 200 240 l 1,0,-1
59 240 m 1,6,-1
 59 319 l 1,7,-1
 123 417 l 1,8,-1
 182 417 l 1,9,-1
 153 319 l 1,10,-1
 153 240 l 1,11,-1
 59 240 l 1,6,-1
EndSplineSet
EndChar
StartChar: quotedblright
Encoding: 8221 8221 181
Width: 375
Flags: W
Fore
175 417 m 1,0,-1
 175 337 l 1,1,-1
 112 240 l 1,2,-1
 52 240 l 1,3,-1
 81 337 l 1,4,-1
 81 417 l 1,5,-1
 175 417 l 1,0,-1
317 417 m 1,6,-1
 317 337 l 1,7,-1
 253 240 l 1,8,-1
 194 240 l 1,9,-1
 222 337 l 1,10,-1
 222 417 l 1,11,-1
 317 417 l 1,6,-1
EndSplineSet
EndChar
StartChar: quoteleft
Encoding: 8216 8216 182
Width: 217
Flags: W
Fore
59 240 m 1,0,-1
 59 319 l 1,1,-1
 123 417 l 1,2,-1
 182 417 l 1,3,-1
 153 319 l 1,4,-1
 153 240 l 1,5,-1
 59 240 l 1,0,-1
EndSplineSet
EndChar
StartChar: quoteright
Encoding: 8217 8217 183
Width: 217
Flags: W
Fore
159 417 m 1,0,-1
 159 337 l 1,1,-1
 96 240 l 1,2,-1
 37 240 l 1,3,-1
 64 337 l 1,4,-1
 64 417 l 1,5,-1
 159 417 l 1,0,-1
EndSplineSet
EndChar
StartChar: divide
Encoding: 247 247 184
Width: 479
Flags: W
Fore
283 110 m 1,0,-1
 283 24 l 1,1,-1
 196 24 l 1,2,-1
 196 110 l 1,3,-1
 283 110 l 1,0,-1
283 335 m 1,4,-1
 283 248 l 1,5,-1
 196 248 l 1,6,-1
 196 335 l 1,7,-1
 283 335 l 1,4,-1
418 212 m 1,8,-1
 418 147 l 1,9,-1
 60 147 l 1,10,-1
 60 212 l 1,11,-1
 418 212 l 1,8,-1
EndSplineSet
EndChar
StartChar: lozenge
Encoding: 9674 9674 185
Width: 283
Flags: W
Fore
35 165 m 1,0,-1
 142 -65 l 1,1,-1
 248 165 l 1,2,-1
 142 393 l 1,3,-1
 35 165 l 1,0,-1
281 165 m 1,4,-1
 142 -133 l 1,5,-1
 1 165 l 1,6,-1
 142 461 l 1,7,-1
 281 165 l 1,4,-1
EndSplineSet
EndChar
StartChar: ydieresis
Encoding: 255 255 186
Width: 372
Flags: W
Fore
107 313 m 1,0,-1
 191 101 l 1,1,-1
 262 313 l 1,2,-1
 362 313 l 1,3,-1
 231 -29 l 2,4,5
 211 -83 211 -83 184.5 -103.5 c 128,-1,6
 158 -124 158 -124 116 -124 c 2,7,-1
 57 -124 l 1,8,-1
 57 -58 l 1,9,-1
 88 -58 l 2,10,11
 113 -58 113 -58 125.5 -50 c 128,-1,12
 138 -42 138 -42 144 -21 c 2,13,-1
 147 -13 l 1,14,-1
 7 313 l 1,15,-1
 107 313 l 1,0,-1
165 443 m 1,16,-1
 165 373 l 1,17,-1
 99 373 l 1,18,-1
 99 443 l 1,19,-1
 165 443 l 1,16,-1
275 443 m 1,20,-1
 275 373 l 1,21,-1
 209 373 l 1,22,-1
 209 443 l 1,23,-1
 275 443 l 1,20,-1
EndSplineSet
EndChar
StartChar: Ydieresis
Encoding: 376 376 187
Width: 414
Flags: W
Fore
112 417 m 1,0,-1
 207 268 l 1,1,-1
 303 417 l 1,2,-1
 420 417 l 1,3,-1
 261 175 l 1,4,-1
 261 0 l 1,5,-1
 152 0 l 1,6,-1
 152 175 l 1,7,-1
 -5 417 l 1,8,-1
 112 417 l 1,0,-1
178 531 m 1,9,-1
 178 461 l 1,10,-1
 112 461 l 1,11,-1
 112 531 l 1,12,-1
 178 531 l 1,9,-1
288 531 m 1,13,-1
 288 461 l 1,14,-1
 222 461 l 1,15,-1
 222 531 l 1,16,-1
 288 531 l 1,13,-1
EndSplineSet
EndChar
StartChar: fraction
Encoding: 8725 8725 188
Width: 92
Flags: W
Fore
-109 -8 m 1,0,-1
 141 408 l 1,1,-1
 202 408 l 1,2,-1
 -49 -8 l 1,3,-1
 -109 -8 l 1,0,-1
EndSplineSet
EndChar
StartChar: currency
Encoding: 164 164 189
Width: 364
Flags: W
Fore
63 18 m 1,0,-1
 21 60 l 1,1,-1
 79 118 l 1,2,3
 70 131 70 131 66.5 146 c 128,-1,4
 63 161 63 161 63 179 c 0,5,6
 63 196 63 196 66.5 211.5 c 128,-1,7
 70 227 70 227 80 240 c 1,8,-1
 22 297 l 1,9,-1
 64 340 l 1,10,-1
 122 282 l 1,11,12
 150 298 150 298 182 298 c 0,13,14
 198 298 198 298 213 294.5 c 128,-1,15
 228 291 228 291 244 283 c 1,16,-1
 302 341 l 1,17,-1
 345 298 l 1,18,-1
 286 241 l 1,19,20
 303 209 303 209 303 179 c 0,21,22
 303 145 303 145 285 119 c 1,23,-1
 344 61 l 1,24,-1
 300 19 l 1,25,-1
 243 76 l 1,26,27
 219 59 219 59 182 59 c 0,28,29
 166 59 166 59 151.5 62.5 c 128,-1,30
 137 66 137 66 122 75 c 1,31,-1
 63 18 l 1,0,-1
182 118 m 256,32,33
 208 118 208 118 226 135 c 128,-1,34
 244 152 244 152 244 179 c 0,35,36
 244 205 244 205 226 223 c 128,-1,37
 208 241 208 241 182 241 c 0,38,39
 157 241 157 241 139.5 223 c 128,-1,40
 122 205 122 205 122 179 c 0,41,42
 122 152 122 152 139 135 c 128,-1,43
 156 118 156 118 182 118 c 256,32,33
EndSplineSet
EndChar
StartChar: guilsinglleft
Encoding: 8249 8249 190
Width: 236
Flags: W
Fore
182 230 m 1,0,-1
 100 167 l 1,1,-1
 182 106 l 1,2,-1
 182 39 l 1,3,-1
 44 142 l 1,4,-1
 44 193 l 1,5,-1
 182 297 l 1,6,-1
 182 230 l 1,0,-1
EndSplineSet
EndChar
StartChar: guilsinglright
Encoding: 8250 8250 191
Width: 236
Flags: W
Fore
191 193 m 1,0,-1
 191 142 l 1,1,-1
 54 39 l 1,2,-1
 54 106 l 1,3,-1
 136 167 l 1,4,-1
 54 230 l 1,5,-1
 54 297 l 1,6,-1
 191 193 l 1,0,-1
EndSplineSet
EndChar
StartChar: fi
Encoding: 64257 64257 192
Width: 424
Flags: W
Fore
375 435 m 1,0,-1
 375 352 l 1,1,-1
 275 352 l 1,2,-1
 275 435 l 1,3,-1
 375 435 l 1,0,-1
254 369 m 1,4,-1
 199 369 l 2,5,6
 178 369 178 369 170 361 c 128,-1,7
 162 353 162 353 162 335 c 2,8,-1
 162 313 l 1,9,-1
 375 313 l 1,10,-1
 375 0 l 1,11,-1
 275 0 l 1,12,-1
 275 242 l 1,13,-1
 162 242 l 1,14,-1
 162 0 l 1,15,-1
 61 0 l 1,16,-1
 61 242 l 1,17,-1
 13 242 l 1,18,-1
 13 313 l 1,19,-1
 61 313 l 1,20,-1
 61 335 l 2,21,22
 61 435 61 435 178 435 c 2,23,-1
 254 435 l 1,24,-1
 254 369 l 1,4,-1
EndSplineSet
Ligature: 0 0 'liga' f i
EndChar
StartChar: fl
Encoding: 64258 64258 193
Width: 424
Flags: W
Fore
375 435 m 1,0,-1
 375 0 l 1,1,-1
 275 0 l 1,2,-1
 275 369 l 1,3,-1
 199 369 l 2,4,5
 177 369 177 369 168.5 361 c 128,-1,6
 160 353 160 353 160 335 c 2,7,-1
 160 313 l 1,8,-1
 240 313 l 1,9,-1
 240 242 l 1,10,-1
 160 242 l 1,11,-1
 160 0 l 1,12,-1
 60 0 l 1,13,-1
 60 242 l 1,14,-1
 11 242 l 1,15,-1
 11 313 l 1,16,-1
 60 313 l 1,17,-1
 60 335 l 2,18,19
 60 435 60 435 177 435 c 2,20,-1
 375 435 l 1,0,-1
EndSplineSet
Ligature: 0 0 'liga' f l
EndChar
StartChar: daggerdbl
Encoding: 8225 8225 194
Width: 286
Flags: W
Fore
188 417 m 1,0,-1
 188 311 l 1,1,-1
 269 311 l 1,2,-1
 269 245 l 1,3,-1
 188 245 l 1,4,-1
 188 118 l 1,5,-1
 269 118 l 1,6,-1
 269 50 l 1,7,-1
 188 50 l 1,8,-1
 188 -55 l 1,9,-1
 96 -55 l 1,10,-1
 96 50 l 1,11,-1
 15 50 l 1,12,-1
 15 118 l 1,13,-1
 96 118 l 1,14,-1
 96 245 l 1,15,-1
 15 245 l 1,16,-1
 15 311 l 1,17,-1
 96 311 l 1,18,-1
 96 417 l 1,19,-1
 188 417 l 1,0,-1
EndSplineSet
EndChar
StartChar: periodcentered
Encoding: 183 183 195
Width: 217
Flags: W
Fore
159 252 m 1,0,-1
 159 145 l 1,1,-1
 58 145 l 1,2,-1
 58 252 l 1,3,-1
 159 252 l 1,0,-1
EndSplineSet
EndChar
StartChar: quotesinglbase
Encoding: 8218 8218 196
Width: 217
Flags: W
Fore
164 108 m 1,0,-1
 164 28 l 1,1,-1
 100 -69 l 1,2,-1
 42 -69 l 1,3,-1
 68 28 l 1,4,-1
 68 108 l 1,5,-1
 164 108 l 1,0,-1
EndSplineSet
EndChar
StartChar: quotedblbase
Encoding: 8222 8222 197
Width: 375
Flags: W
Fore
164 108 m 1,0,-1
 164 28 l 1,1,-1
 100 -69 l 1,2,-1
 42 -69 l 1,3,-1
 68 28 l 1,4,-1
 68 108 l 1,5,-1
 164 108 l 1,0,-1
306 108 m 1,6,-1
 306 28 l 1,7,-1
 242 -69 l 1,8,-1
 182 -69 l 1,9,-1
 211 28 l 1,10,-1
 211 108 l 1,11,-1
 306 108 l 1,6,-1
EndSplineSet
EndChar
StartChar: perthousand
Encoding: 8240 8240 198
Width: 824
Flags: W
Fore
699 172 m 256,0,1
 657 172 657 172 657 106 c 256,2,3
 657 40 657 40 699 40 c 256,4,5
 741 40 741 40 741 106 c 256,6,7
 741 172 741 172 699 172 c 256,0,1
699 219 m 0,8,9
 750 219 750 219 780 188.5 c 128,-1,10
 810 158 810 158 810 106 c 0,11,12
 810 52 810 52 780 22 c 128,-1,13
 750 -8 750 -8 699 -8 c 0,14,15
 645 -8 645 -8 615.5 22 c 128,-1,16
 586 52 586 52 586 106 c 0,17,18
 586 158 586 158 615.5 188.5 c 128,-1,19
 645 219 645 219 699 219 c 0,8,9
130 377 m 0,20,21
 87 377 87 377 87 311 c 256,22,23
 87 245 87 245 130 245 c 0,24,25
 149 245 149 245 160 261.5 c 128,-1,26
 171 278 171 278 171 311 c 256,27,28
 171 344 171 344 160 360.5 c 128,-1,29
 149 377 149 377 130 377 c 0,20,21
130 424 m 256,30,31
 182 424 182 424 212 394.5 c 128,-1,32
 242 365 242 365 242 311 c 256,33,34
 242 257 242 257 212 227.5 c 128,-1,35
 182 198 182 198 130 198 c 256,36,37
 78 198 78 198 48.5 227.5 c 128,-1,38
 19 257 19 257 19 311 c 256,39,40
 19 365 19 365 48.5 394.5 c 128,-1,41
 78 424 78 424 130 424 c 256,30,31
126 -8 m 1,42,-1
 386 424 l 1,43,-1
 448 424 l 1,44,-1
 187 -8 l 1,45,-1
 126 -8 l 1,42,-1
443 219 m 256,46,47
 495 219 495 219 525 188.5 c 128,-1,48
 555 158 555 158 555 106 c 0,49,50
 555 52 555 52 525 22 c 128,-1,51
 495 -8 495 -8 443 -8 c 256,52,53
 391 -8 391 -8 361 22 c 128,-1,54
 331 52 331 52 331 106 c 0,55,56
 331 158 331 158 361 188.5 c 128,-1,57
 391 219 391 219 443 219 c 256,46,47
443 172 m 0,58,59
 401 172 401 172 401 106 c 256,60,61
 401 40 401 40 443 40 c 0,62,63
 462 40 462 40 473 57 c 128,-1,64
 484 74 484 74 484 106 c 256,65,66
 484 138 484 138 473 155 c 128,-1,67
 462 172 462 172 443 172 c 0,58,59
EndSplineSet
EndChar
StartChar: Acircumflex
Encoding: 194 194 199
Width: 443
Flags: W
Fore
138 76 m 1,0,-1
 110 0 l 1,1,-1
 3 0 l 1,2,-1
 157 417 l 1,3,-1
 285 417 l 1,4,-1
 440 0 l 1,5,-1
 332 0 l 1,6,-1
 306 76 l 1,7,-1
 138 76 l 1,0,-1
278 152 m 1,8,-1
 222 319 l 1,9,-1
 164 152 l 1,10,-1
 278 152 l 1,8,-1
257 531 m 1,11,-1
 319 456 l 1,12,-1
 270 456 l 1,13,-1
 215 501 l 1,14,-1
 158 456 l 1,15,-1
 109 456 l 1,16,-1
 171 531 l 1,17,-1
 257 531 l 1,11,-1
EndSplineSet
EndChar
StartChar: Ecircumflex
Encoding: 202 202 200
Width: 390
Flags: W
Fore
344 417 m 1,0,-1
 344 336 l 1,1,-1
 160 336 l 1,2,-1
 160 257 l 1,3,-1
 332 257 l 1,4,-1
 332 177 l 1,5,-1
 160 177 l 1,6,-1
 160 81 l 1,7,-1
 348 81 l 1,8,-1
 348 0 l 1,9,-1
 52 0 l 1,10,-1
 52 417 l 1,11,-1
 344 417 l 1,0,-1
236 531 m 1,12,-1
 298 456 l 1,13,-1
 249 456 l 1,14,-1
 194 501 l 1,15,-1
 137 456 l 1,16,-1
 88 456 l 1,17,-1
 150 531 l 1,18,-1
 236 531 l 1,12,-1
EndSplineSet
EndChar
StartChar: Aacute
Encoding: 193 193 201
Width: 443
Flags: W
Fore
138 76 m 1,0,-1
 110 0 l 1,1,-1
 3 0 l 1,2,-1
 157 417 l 1,3,-1
 285 417 l 1,4,-1
 440 0 l 1,5,-1
 332 0 l 1,6,-1
 306 76 l 1,7,-1
 138 76 l 1,0,-1
278 152 m 1,8,-1
 222 319 l 1,9,-1
 164 152 l 1,10,-1
 278 152 l 1,8,-1
307 531 m 1,11,-1
 228 456 l 1,12,-1
 173 456 l 1,13,-1
 228 531 l 1,14,-1
 307 531 l 1,11,-1
EndSplineSet
EndChar
StartChar: Edieresis
Encoding: 203 203 202
Width: 390
Flags: W
Fore
344 417 m 1,0,-1
 344 336 l 1,1,-1
 160 336 l 1,2,-1
 160 257 l 1,3,-1
 332 257 l 1,4,-1
 332 177 l 1,5,-1
 160 177 l 1,6,-1
 160 81 l 1,7,-1
 348 81 l 1,8,-1
 348 0 l 1,9,-1
 52 0 l 1,10,-1
 52 417 l 1,11,-1
 344 417 l 1,0,-1
171 531 m 1,12,-1
 171 461 l 1,13,-1
 105 461 l 1,14,-1
 105 531 l 1,15,-1
 171 531 l 1,12,-1
281 531 m 1,16,-1
 281 461 l 1,17,-1
 215 461 l 1,18,-1
 215 531 l 1,19,-1
 281 531 l 1,16,-1
EndSplineSet
EndChar
StartChar: Egrave
Encoding: 200 200 203
Width: 390
Flags: W
Fore
344 417 m 1,0,-1
 344 336 l 1,1,-1
 160 336 l 1,2,-1
 160 257 l 1,3,-1
 332 257 l 1,4,-1
 332 177 l 1,5,-1
 160 177 l 1,6,-1
 160 81 l 1,7,-1
 348 81 l 1,8,-1
 348 0 l 1,9,-1
 52 0 l 1,10,-1
 52 417 l 1,11,-1
 344 417 l 1,0,-1
234 456 m 1,12,-1
 180 456 l 1,13,-1
 100 531 l 1,14,-1
 179 531 l 1,15,-1
 234 456 l 1,12,-1
EndSplineSet
EndChar
StartChar: Iacute
Encoding: 205 205 204
Width: 213
Flags: W
Fore
160 417 m 1,0,-1
 160 0 l 1,1,-1
 52 0 l 1,2,-1
 52 417 l 1,3,-1
 160 417 l 1,0,-1
196 531 m 1,4,-1
 117 456 l 1,5,-1
 62 456 l 1,6,-1
 117 531 l 1,7,-1
 196 531 l 1,4,-1
EndSplineSet
EndChar
StartChar: Icircumflex
Encoding: 206 206 205
Width: 213
Flags: W
Fore
160 417 m 1,0,-1
 160 0 l 1,1,-1
 52 0 l 1,2,-1
 52 417 l 1,3,-1
 160 417 l 1,0,-1
146 531 m 1,4,-1
 208 456 l 1,5,-1
 159 456 l 1,6,-1
 104 501 l 1,7,-1
 47 456 l 1,8,-1
 -2 456 l 1,9,-1
 60 531 l 1,10,-1
 146 531 l 1,4,-1
EndSplineSet
EndChar
StartChar: Idieresis
Encoding: 207 207 206
Width: 213
Flags: W
Fore
160 417 m 1,0,-1
 160 0 l 1,1,-1
 52 0 l 1,2,-1
 52 417 l 1,3,-1
 160 417 l 1,0,-1
81 531 m 1,4,-1
 81 461 l 1,5,-1
 15 461 l 1,6,-1
 15 531 l 1,7,-1
 81 531 l 1,4,-1
191 531 m 1,8,-1
 191 461 l 1,9,-1
 125 461 l 1,10,-1
 125 531 l 1,11,-1
 191 531 l 1,8,-1
EndSplineSet
EndChar
StartChar: Igrave
Encoding: 204 204 207
Width: 213
Flags: W
Fore
160 417 m 1,0,-1
 160 0 l 1,1,-1
 52 0 l 1,2,-1
 52 417 l 1,3,-1
 160 417 l 1,0,-1
144 456 m 1,4,-1
 90 456 l 1,5,-1
 10 531 l 1,6,-1
 89 531 l 1,7,-1
 144 456 l 1,4,-1
EndSplineSet
EndChar
StartChar: Oacute
Encoding: 211 211 208
Width: 486
Flags: W
Fore
244 347 m 0,0,1
 193 347 193 347 166.5 310.5 c 128,-1,2
 140 274 140 274 140 208 c 256,3,4
 140 142 140 142 166.5 105.5 c 128,-1,5
 193 69 193 69 244 69 c 0,6,7
 292 69 292 69 319.5 105.5 c 128,-1,8
 347 142 347 142 347 208 c 256,9,10
 347 274 347 274 319.5 310.5 c 128,-1,11
 292 347 292 347 244 347 c 0,0,1
244 424 m 256,12,13
 346 424 346 424 401.5 367 c 128,-1,14
 457 310 457 310 457 208 c 256,15,16
 457 106 457 106 401.5 49 c 128,-1,17
 346 -8 346 -8 244 -8 c 256,18,19
 142 -8 142 -8 85 49 c 128,-1,20
 28 106 28 106 28 208 c 256,21,22
 28 310 28 310 85 367 c 128,-1,23
 142 424 142 424 244 424 c 256,12,13
330 531 m 1,24,-1
 251 456 l 1,25,-1
 196 456 l 1,26,-1
 251 531 l 1,27,-1
 330 531 l 1,24,-1
EndSplineSet
EndChar
StartChar: Ocircumflex
Encoding: 212 212 209
Width: 486
Flags: W
Fore
244 347 m 0,0,1
 193 347 193 347 166.5 310.5 c 128,-1,2
 140 274 140 274 140 208 c 256,3,4
 140 142 140 142 166.5 105.5 c 128,-1,5
 193 69 193 69 244 69 c 0,6,7
 292 69 292 69 319.5 105.5 c 128,-1,8
 347 142 347 142 347 208 c 256,9,10
 347 274 347 274 319.5 310.5 c 128,-1,11
 292 347 292 347 244 347 c 0,0,1
244 424 m 256,12,13
 346 424 346 424 401.5 367 c 128,-1,14
 457 310 457 310 457 208 c 256,15,16
 457 106 457 106 401.5 49 c 128,-1,17
 346 -8 346 -8 244 -8 c 256,18,19
 142 -8 142 -8 85 49 c 128,-1,20
 28 106 28 106 28 208 c 256,21,22
 28 310 28 310 85 367 c 128,-1,23
 142 424 142 424 244 424 c 256,12,13
280 531 m 1,24,-1
 342 456 l 1,25,-1
 293 456 l 1,26,-1
 238 501 l 1,27,-1
 181 456 l 1,28,-1
 132 456 l 1,29,-1
 194 531 l 1,30,-1
 280 531 l 1,24,-1
EndSplineSet
EndChar
StartChar: Ograve
Encoding: 210 210 210
Width: 486
Flags: W
Fore
244 347 m 0,0,1
 193 347 193 347 166.5 310.5 c 128,-1,2
 140 274 140 274 140 208 c 256,3,4
 140 142 140 142 166.5 105.5 c 128,-1,5
 193 69 193 69 244 69 c 0,6,7
 292 69 292 69 319.5 105.5 c 128,-1,8
 347 142 347 142 347 208 c 256,9,10
 347 274 347 274 319.5 310.5 c 128,-1,11
 292 347 292 347 244 347 c 0,0,1
244 424 m 256,12,13
 346 424 346 424 401.5 367 c 128,-1,14
 457 310 457 310 457 208 c 256,15,16
 457 106 457 106 401.5 49 c 128,-1,17
 346 -8 346 -8 244 -8 c 256,18,19
 142 -8 142 -8 85 49 c 128,-1,20
 28 106 28 106 28 208 c 256,21,22
 28 310 28 310 85 367 c 128,-1,23
 142 424 142 424 244 424 c 256,12,13
278 456 m 1,24,-1
 224 456 l 1,25,-1
 144 531 l 1,26,-1
 223 531 l 1,27,-1
 278 456 l 1,24,-1
EndSplineSet
EndChar
StartChar: Uacute
Encoding: 218 218 211
Width: 464
Flags: W
Fore
160 417 m 1,0,-1
 160 167 l 2,1,2
 160 116 160 116 177 93 c 128,-1,3
 194 70 194 70 232 70 c 256,4,5
 270 70 270 70 287.5 93 c 128,-1,6
 305 116 305 116 305 167 c 2,7,-1
 305 417 l 1,8,-1
 412 417 l 1,9,-1
 412 167 l 2,10,11
 412 79 412 79 368.5 35.5 c 128,-1,12
 325 -8 325 -8 232 -8 c 0,13,14
 52 -8 52 -8 52 167 c 2,15,-1
 52 417 l 1,16,-1
 160 417 l 1,0,-1
318 531 m 1,17,-1
 239 456 l 1,18,-1
 184 456 l 1,19,-1
 239 531 l 1,20,-1
 318 531 l 1,17,-1
EndSplineSet
EndChar
StartChar: Ucircumflex
Encoding: 219 219 212
Width: 464
Flags: W
Fore
160 417 m 1,0,-1
 160 167 l 2,1,2
 160 116 160 116 177 93 c 128,-1,3
 194 70 194 70 232 70 c 256,4,5
 270 70 270 70 287.5 93 c 128,-1,6
 305 116 305 116 305 167 c 2,7,-1
 305 417 l 1,8,-1
 412 417 l 1,9,-1
 412 167 l 2,10,11
 412 79 412 79 368.5 35.5 c 128,-1,12
 325 -8 325 -8 232 -8 c 0,13,14
 52 -8 52 -8 52 167 c 2,15,-1
 52 417 l 1,16,-1
 160 417 l 1,0,-1
268 531 m 1,17,-1
 330 456 l 1,18,-1
 281 456 l 1,19,-1
 226 501 l 1,20,-1
 169 456 l 1,21,-1
 120 456 l 1,22,-1
 182 531 l 1,23,-1
 268 531 l 1,17,-1
EndSplineSet
EndChar
StartChar: Ugrave
Encoding: 217 217 213
Width: 464
Flags: W
Fore
160 417 m 1,0,-1
 160 167 l 2,1,2
 160 116 160 116 177 93 c 128,-1,3
 194 70 194 70 232 70 c 256,4,5
 270 70 270 70 287.5 93 c 128,-1,6
 305 116 305 116 305 167 c 2,7,-1
 305 417 l 1,8,-1
 412 417 l 1,9,-1
 412 167 l 2,10,11
 412 79 412 79 368.5 35.5 c 128,-1,12
 325 -8 325 -8 232 -8 c 0,13,14
 52 -8 52 -8 52 167 c 2,15,-1
 52 417 l 1,16,-1
 160 417 l 1,0,-1
266 456 m 1,17,-1
 212 456 l 1,18,-1
 132 531 l 1,19,-1
 211 531 l 1,20,-1
 266 456 l 1,17,-1
EndSplineSet
EndChar
StartChar: dotlessi
Encoding: 305 305 214
Width: 195
Flags: W
Fore
149 313 m 1,0,-1
 149 0 l 1,1,-1
 48 0 l 1,2,-1
 48 313 l 1,3,-1
 149 313 l 1,0,-1
EndSplineSet
EndChar
StartChar: circumflex
Encoding: 710 710 215
Width: 286
Flags: W
Fore
177 457 m 1,0,-1
 248 352 l 1,1,-1
 199 352 l 1,2,-1
 144 415 l 1,3,-1
 87 352 l 1,4,-1
 38 352 l 1,5,-1
 109 457 l 1,6,-1
 177 457 l 1,0,-1
EndSplineSet
EndChar
StartChar: tilde
Encoding: 732 732 216
Width: 286
Flags: W
Fore
128 391 m 1,0,-1
 126 393 l 1,1,2
 112 401 112 401 105 401 c 0,3,4
 85 401 85 401 85 368 c 2,5,-1
 85 366 l 1,6,-1
 46 366 l 1,7,8
 46 403 46 403 60.5 424 c 128,-1,9
 75 445 75 445 101 445 c 0,10,11
 110 445 110 445 120.5 441 c 128,-1,12
 131 437 131 437 143 430 c 1,13,-1
 159 417 l 2,14,15
 172 409 172 409 180 409 c 0,16,17
 190 409 190 409 196 418 c 128,-1,18
 202 427 202 427 202 442 c 2,19,-1
 202 444 l 1,20,-1
 241 444 l 1,21,22
 241 407 241 407 226 386 c 128,-1,23
 211 365 211 365 185 365 c 0,24,25
 174 365 174 365 165.5 368 c 128,-1,26
 157 371 157 371 144 380 c 2,27,-1
 128 391 l 1,0,-1
EndSplineSet
EndChar
StartChar: macron
Encoding: 175 175 217
Width: 286
Flags: W
Fore
231 435 m 1,0,-1
 231 381 l 1,1,-1
 55 381 l 1,2,-1
 55 435 l 1,3,-1
 231 435 l 1,0,-1
EndSplineSet
EndChar
StartChar: breve
Encoding: 728 728 218
Width: 286
Flags: W
Fore
88 448 m 1,0,1
 92 430 92 430 106 419.5 c 128,-1,2
 120 409 120 409 144 409 c 0,3,4
 166 409 166 409 180 419.5 c 128,-1,5
 194 430 194 430 196 448 c 1,6,-1
 237 448 l 1,7,8
 235 409 235 409 210.5 387.5 c 128,-1,9
 186 366 186 366 144 366 c 0,10,11
 99 366 99 366 74.5 387.5 c 128,-1,12
 50 409 50 409 49 448 c 1,13,-1
 88 448 l 1,0,1
EndSplineSet
EndChar
StartChar: dotaccent
Encoding: 729 729 219
Width: 286
Flags: W
Fore
181 443 m 1,0,-1
 181 373 l 1,1,-1
 105 373 l 1,2,-1
 105 443 l 1,3,-1
 181 443 l 1,0,-1
EndSplineSet
EndChar
StartChar: ring
Encoding: 730 730 220
Width: 286
Flags: W
Fore
107 429 m 0,0,1
 107 413 107 413 117.5 402.5 c 128,-1,2
 128 392 128 392 144 392 c 0,3,4
 158 392 158 392 169 402.5 c 128,-1,5
 180 413 180 413 180 429 c 0,6,7
 180 443 180 443 169 453.5 c 128,-1,8
 158 464 158 464 144 464 c 0,9,10
 128 464 128 464 117.5 453.5 c 128,-1,11
 107 443 107 443 107 429 c 0,0,1
63 429 m 0,12,13
 63 461 63 461 86.5 484 c 128,-1,14
 110 507 110 507 144 507 c 0,15,16
 159 507 159 507 173.5 501 c 128,-1,17
 188 495 188 495 199 484.5 c 128,-1,18
 210 474 210 474 216.5 459.5 c 128,-1,19
 223 445 223 445 223 429 c 0,20,21
 223 395 223 395 199 371.5 c 128,-1,22
 175 348 175 348 144 348 c 0,23,24
 110 348 110 348 86.5 371.5 c 128,-1,25
 63 395 63 395 63 429 c 0,12,13
EndSplineSet
EndChar
StartChar: cedilla
Encoding: 184 184 221
Width: 286
Flags: W
Fore
168 0 m 1,0,1
 200 -37 200 -37 200 -60 c 0,2,3
 200 -112 200 -112 130 -112 c 0,4,5
 117 -112 117 -112 102 -110 c 128,-1,6
 87 -108 87 -108 74 -105 c 1,7,-1
 73 -62 l 1,8,9
 103 -70 103 -70 120 -70 c 0,10,11
 153 -70 153 -70 153 -47 c 0,12,13
 153 -33 153 -33 130 0 c 1,14,-1
 168 0 l 1,15,-1
 168 0 l 1,0,1
EndSplineSet
EndChar
StartChar: hungarumlaut
Encoding: 733 733 222
Width: 286
Flags: W
Fore
168 457 m 1,0,-1
 100 352 l 1,1,-1
 54 352 l 1,2,-1
 108 457 l 1,3,-1
 168 457 l 1,0,-1
274 457 m 1,4,-1
 198 352 l 1,5,-1
 149 352 l 1,6,-1
 210 457 l 1,7,-1
 274 457 l 1,4,-1
EndSplineSet
EndChar
StartChar: ogonek
Encoding: 731 731 223
Width: 286
Flags: W
Fore
166 0 m 1,0,1
 151 -19 151 -19 146.5 -29.5 c 128,-1,2
 142 -40 142 -40 142 -46 c 0,3,4
 142 -57 142 -57 150 -63.5 c 128,-1,5
 158 -70 158 -70 171 -70 c 0,6,7
 191 -70 191 -70 215 -62 c 1,8,-1
 215 -106 l 1,9,10
 185 -112 185 -112 162 -112 c 0,11,12
 96 -112 96 -112 96 -62 c 0,13,14
 96 -48 96 -48 103 -33 c 128,-1,15
 110 -18 110 -18 127 0 c 1,16,-1
 166 0 l 1,0,1
EndSplineSet
EndChar
StartChar: caron
Encoding: 711 711 224
Width: 286
Flags: W
Fore
38 457 m 1,0,-1
 87 457 l 1,1,-1
 144 394 l 1,2,-1
 199 457 l 1,3,-1
 248 457 l 1,4,-1
 177 352 l 1,5,-1
 109 352 l 1,6,-1
 38 457 l 1,0,-1
EndSplineSet
EndChar
StartChar: Lslash
Encoding: 321 321 225
Width: 367
Flags: W
Fore
163 417 m 1,0,-1
 163 300 l 1,1,-1
 234 352 l 1,2,-1
 274 298 l 1,3,-1
 163 223 l 1,4,-1
 163 81 l 1,5,-1
 351 81 l 1,6,-1
 351 0 l 1,7,-1
 55 0 l 1,8,-1
 55 147 l 1,9,-1
 15 117 l 1,10,-1
 -26 169 l 1,11,-1
 55 225 l 1,12,-1
 55 417 l 1,13,-1
 163 417 l 1,0,-1
EndSplineSet
EndChar
StartChar: lslash
Encoding: 322 322 226
Width: 212
Flags: W
Fore
156 435 m 1,0,-1
 156 294 l 1,1,-1
 192 319 l 1,2,-1
 223 276 l 1,3,-1
 156 231 l 1,4,-1
 156 0 l 1,5,-1
 55 0 l 1,6,-1
 55 179 l 1,7,-1
 21 154 l 1,8,-1
 -11 198 l 1,9,-1
 55 244 l 1,10,-1
 55 435 l 1,11,-1
 156 435 l 1,0,-1
EndSplineSet
EndChar
StartChar: Scaron
Encoding: 352 352 227
Width: 412
Flags: W
Fore
344 316 m 1,0,1
 308 331 308 331 276 339 c 128,-1,2
 244 347 244 347 214 347 c 0,3,4
 174 347 174 347 156.5 336.5 c 128,-1,5
 139 326 139 326 139 304 c 0,6,7
 139 286 139 286 151 276.5 c 128,-1,8
 163 267 163 267 195 261 c 2,9,-1
 242 251 l 2,10,11
 311 238 311 238 340.5 210 c 128,-1,12
 370 182 370 182 370 128 c 0,13,14
 370 -8 370 -8 204 -8 c 0,15,16
 125 -8 125 -8 45 22 c 1,17,-1
 45 112 l 1,18,19
 126 69 126 69 194 69 c 0,20,21
 229 69 229 69 247.5 81.5 c 128,-1,22
 266 94 266 94 266 116 c 0,23,24
 266 134 266 134 254 145 c 128,-1,25
 242 156 242 156 203 164 c 2,26,-1
 161 173 l 2,27,28
 98 187 98 187 70 216.5 c 128,-1,29
 42 246 42 246 42 295 c 0,30,31
 42 358 42 358 81.5 391 c 128,-1,32
 121 424 121 424 196 424 c 0,33,34
 231 424 231 424 267.5 419 c 128,-1,35
 304 414 304 414 344 403 c 1,36,-1
 344 316 l 1,0,1
94 531 m 1,37,-1
 143 531 l 1,38,-1
 200 484 l 1,39,-1
 255 531 l 1,40,-1
 304 531 l 1,41,-1
 242 456 l 1,42,-1
 156 456 l 1,43,-1
 94 531 l 1,37,-1
EndSplineSet
EndChar
StartChar: scaron
Encoding: 353 353 228
Width: 340
Flags: W
Fore
292 227 m 1,0,1
 260 241 260 241 230.5 247 c 128,-1,2
 201 253 201 253 173 253 c 0,3,4
 118 253 118 253 118 225 c 0,5,6
 118 213 118 213 128.5 206.5 c 128,-1,7
 139 200 139 200 166 196 c 2,8,-1
 183 194 l 2,9,10
 261 185 261 185 286 163 c 0,11,12
 313 141 313 141 313 92 c 0,13,14
 313 -8 313 -8 166 -8 c 0,15,16
 136 -8 136 -8 102 -3.5 c 128,-1,17
 68 1 68 1 35 12 c 1,18,-1
 35 87 l 1,19,20
 95 58 95 58 159 58 c 0,21,22
 219 58 219 58 219 90 c 0,23,24
 219 104 219 104 208.5 110.5 c 128,-1,25
 198 117 198 117 167 121 c 2,26,-1
 149 123 l 2,27,28
 83 131 83 131 56 154 c 128,-1,29
 29 177 29 177 29 223 c 0,30,31
 29 320 29 320 168 320 c 0,32,33
 222 320 222 320 292 304 c 1,34,-1
 292 227 l 1,0,1
65 457 m 1,35,-1
 114 457 l 1,36,-1
 171 394 l 1,37,-1
 226 457 l 1,38,-1
 275 457 l 1,39,-1
 204 352 l 1,40,-1
 136 352 l 1,41,-1
 65 457 l 1,35,-1
EndSplineSet
EndChar
StartChar: Zcaron
Encoding: 381 381 229
Width: 415
Flags: W
Fore
382 417 m 1,0,-1
 382 351 l 1,1,-1
 159 81 l 1,2,-1
 389 81 l 1,3,-1
 389 0 l 1,4,-1
 26 0 l 1,5,-1
 26 65 l 1,6,-1
 249 336 l 1,7,-1
 33 336 l 1,8,-1
 33 417 l 1,9,-1
 382 417 l 1,0,-1
96 531 m 1,10,-1
 145 531 l 1,11,-1
 202 484 l 1,12,-1
 257 531 l 1,13,-1
 306 531 l 1,14,-1
 244 456 l 1,15,-1
 158 456 l 1,16,-1
 96 531 l 1,10,-1
EndSplineSet
EndChar
StartChar: zcaron
Encoding: 382 382 230
Width: 333
Flags: W
Fore
306 313 m 1,0,-1
 306 244 l 1,1,-1
 141 71 l 1,2,-1
 306 71 l 1,3,-1
 306 0 l 1,4,-1
 26 0 l 1,5,-1
 26 69 l 1,6,-1
 190 242 l 1,7,-1
 33 242 l 1,8,-1
 33 313 l 1,9,-1
 306 313 l 1,0,-1
61 457 m 1,10,-1
 110 457 l 1,11,-1
 167 394 l 1,12,-1
 222 457 l 1,13,-1
 271 457 l 1,14,-1
 200 352 l 1,15,-1
 132 352 l 1,16,-1
 61 457 l 1,10,-1
EndSplineSet
EndChar
StartChar: brokenbar
Encoding: 166 166 231
Width: 209
Flags: W
Fore
137 188 m 1,0,-1
 73 188 l 1,1,-1
 73 400 l 1,2,-1
 137 400 l 1,3,-1
 137 188 l 1,0,-1
137 -98 m 1,4,-1
 73 -98 l 1,5,-1
 73 113 l 1,6,-1
 137 113 l 1,7,-1
 137 -98 l 1,4,-1
EndSplineSet
EndChar
StartChar: Eth
Encoding: 208 208 232
Width: 479
Flags: W
Fore
165 247 m 1,0,-1
 231 247 l 1,1,-1
 231 173 l 1,2,-1
 165 173 l 1,3,-1
 165 81 l 1,4,-1
 204 81 l 2,5,6
 270 81 270 81 304.5 113.5 c 128,-1,7
 339 146 339 146 339 209 c 256,8,9
 339 272 339 272 304.5 304 c 128,-1,10
 270 336 270 336 204 336 c 2,11,-1
 165 336 l 1,12,-1
 165 247 l 1,0,-1
171 417 m 2,13,14
 264 417 264 417 312 403 c 0,15,16
 358 390 358 390 392 357 c 0,17,18
 450 302 450 302 450 209 c 0,19,20
 450 114 450 114 392 59 c 0,21,22
 356 26 356 26 311 13 c 256,23,24
 266 0 266 0 171 0 c 2,25,-1
 58 0 l 1,26,-1
 58 173 l 1,27,-1
 9 173 l 1,28,-1
 9 247 l 1,29,-1
 58 247 l 1,30,-1
 58 417 l 1,31,-1
 171 417 l 2,13,14
EndSplineSet
EndChar
StartChar: eth
Encoding: 240 240 233
Width: 393
Flags: W
Fore
256 208 m 1,0,1
 242 215 242 215 226.5 219 c 128,-1,2
 211 223 211 223 196 223 c 0,3,4
 164 223 164 223 146.5 204 c 128,-1,5
 129 185 129 185 129 151 c 0,6,7
 129 109 129 109 147 86 c 128,-1,8
 165 63 165 63 196 63 c 0,9,10
 230 63 230 63 247 87 c 128,-1,11
 264 111 264 111 264 156 c 0,12,13
 264 178 264 178 256 208 c 1,0,1
306 307 m 1,14,15
 339 269 339 269 353.5 233.5 c 128,-1,16
 368 198 368 198 368 156 c 0,17,18
 368 78 368 78 322.5 35 c 128,-1,19
 277 -8 277 -8 196 -8 c 256,20,21
 115 -8 115 -8 69.5 35 c 128,-1,22
 24 78 24 78 24 156 c 0,23,24
 24 222 24 222 65.5 258 c 128,-1,25
 107 294 107 294 182 294 c 0,26,27
 206 294 206 294 227 287 c 1,28,-1
 173 348 l 1,29,-1
 69 315 l 1,30,-1
 59 350 l 1,31,-1
 146 378 l 1,32,-1
 92 435 l 1,33,-1
 191 435 l 1,34,-1
 222 402 l 1,35,-1
 327 434 l 1,36,-1
 337 398 l 1,37,-1
 248 371 l 1,38,-1
 306 307 l 1,39,-1
 306 307 l 1,14,15
EndSplineSet
EndChar
StartChar: Yacute
Encoding: 221 221 234
Width: 414
Flags: W
Fore
112 417 m 1,0,-1
 207 268 l 1,1,-1
 303 417 l 1,2,-1
 420 417 l 1,3,-1
 261 175 l 1,4,-1
 261 0 l 1,5,-1
 152 0 l 1,6,-1
 152 175 l 1,7,-1
 -5 417 l 1,8,-1
 112 417 l 1,0,-1
293 531 m 1,9,-1
 214 456 l 1,10,-1
 159 456 l 1,11,-1
 214 531 l 1,12,-1
 293 531 l 1,9,-1
EndSplineSet
EndChar
StartChar: yacute
Encoding: 253 253 235
Width: 372
Flags: W
Fore
107 313 m 1,0,-1
 191 101 l 1,1,-1
 262 313 l 1,2,-1
 362 313 l 1,3,-1
 231 -29 l 2,4,5
 211 -83 211 -83 184.5 -103.5 c 128,-1,6
 158 -124 158 -124 116 -124 c 2,7,-1
 57 -124 l 1,8,-1
 57 -58 l 1,9,-1
 88 -58 l 2,10,11
 113 -58 113 -58 125.5 -50 c 128,-1,12
 138 -42 138 -42 144 -21 c 2,13,-1
 147 -13 l 1,14,-1
 7 313 l 1,15,-1
 107 313 l 1,0,-1
304 457 m 1,16,-1
 201 352 l 1,17,-1
 146 352 l 1,18,-1
 225 457 l 1,19,-1
 304 457 l 1,16,-1
EndSplineSet
EndChar
StartChar: Thorn
Encoding: 222 222 236
Width: 422
Flags: W
Fore
160 0 m 1,0,-1
 52 0 l 1,1,-1
 52 417 l 1,2,-1
 160 417 l 1,3,-1
 160 345 l 1,4,-1
 231 345 l 2,5,6
 312 345 312 345 353.5 309.5 c 128,-1,7
 395 274 395 274 395 208 c 256,8,9
 395 142 395 142 353.5 106.5 c 128,-1,10
 312 71 312 71 231 71 c 2,11,-1
 160 71 l 1,12,-1
 160 0 l 1,0,-1
160 149 m 1,13,-1
 220 149 l 2,14,15
 250 149 250 149 267.5 164.5 c 128,-1,16
 285 180 285 180 285 208 c 256,17,18
 285 236 285 236 267.5 251.5 c 128,-1,19
 250 267 250 267 220 267 c 2,20,-1
 160 267 l 1,21,-1
 160 149 l 1,13,-1
EndSplineSet
EndChar
StartChar: thorn
Encoding: 254 254 237
Width: 410
Flags: W
Fore
149 -119 m 1,0,-1
 48 -119 l 1,1,-1
 48 435 l 1,2,-1
 149 435 l 1,3,-1
 149 267 l 1,4,5
 186 320 186 320 251 320 c 0,6,7
 280 320 280 320 304 308 c 128,-1,8
 328 296 328 296 345.5 274.5 c 128,-1,9
 363 253 363 253 373 222.5 c 128,-1,10
 383 192 383 192 383 156 c 256,11,12
 383 120 383 120 373 90 c 128,-1,13
 363 60 363 60 345.5 38 c 128,-1,14
 328 16 328 16 304 4 c 128,-1,15
 280 -8 280 -8 251 -8 c 0,16,17
 186 -8 186 -8 149 45 c 1,18,-1
 149 -119 l 1,0,-1
214 248 m 0,19,20
 149 248 149 248 149 156 c 256,21,22
 149 64 149 64 214 64 c 0,23,24
 281 64 281 64 281 156 c 256,25,26
 281 248 281 248 214 248 c 0,19,20
EndSplineSet
EndChar
StartChar: minus
Encoding: 8722 8722 238
Width: 479
Flags: W
Fore
418 212 m 1,0,-1
 418 147 l 1,1,-1
 60 147 l 1,2,-1
 60 212 l 1,3,-1
 418 212 l 1,0,-1
EndSplineSet
EndChar
StartChar: multiply
Encoding: 215 215 239
Width: 479
Flags: W
Fore
286 179 m 1,0,-1
 408 58 l 1,1,-1
 360 12 l 1,2,-1
 240 132 l 1,3,-1
 119 12 l 1,4,-1
 71 58 l 1,5,-1
 193 179 l 1,6,-1
 71 300 l 1,7,-1
 119 347 l 1,8,-1
 240 226 l 1,9,-1
 360 347 l 1,10,-1
 408 300 l 1,11,-1
 286 179 l 1,0,-1
EndSplineSet
EndChar
StartChar: onesuperior
Encoding: 185 185 240
Width: 250
Flags: W
Fore
97 231 m 1,0,-1
 97 375 l 1,1,-1
 35 361 l 1,2,-1
 35 407 l 1,3,-1
 99 420 l 1,4,-1
 161 420 l 1,5,-1
 161 231 l 1,6,-1
 219 231 l 1,7,-1
 219 186 l 1,8,-1
 40 186 l 1,9,-1
 40 231 l 1,10,-1
 97 231 l 1,0,-1
EndSplineSet
EndChar
StartChar: twosuperior
Encoding: 178 178 241
Width: 250
Flags: W
Fore
219 234 m 1,0,-1
 219 186 l 1,1,-1
 30 186 l 1,2,-1
 30 230 l 1,3,-1
 118 304 l 2,4,5
 136 318 136 318 142.5 329.5 c 128,-1,6
 149 341 149 341 149 351 c 0,7,8
 149 383 149 383 112 383 c 0,9,10
 96 383 96 383 75.5 376.5 c 128,-1,11
 55 370 55 370 33 357 c 1,12,-1
 33 410 l 1,13,14
 81 424 81 424 123 424 c 0,15,16
 168 424 168 424 192.5 406.5 c 128,-1,17
 217 389 217 389 217 357 c 0,18,19
 217 337 217 337 207.5 320.5 c 128,-1,20
 198 304 198 304 169 279 c 2,21,-1
 116 234 l 1,22,-1
 219 234 l 1,0,-1
EndSplineSet
EndChar
StartChar: threesuperior
Encoding: 179 179 242
Width: 250
Flags: W
Fore
165 313 m 1,0,1
 220 302 220 302 220 254 c 0,2,3
 220 182 220 182 108 182 c 0,4,5
 85 182 85 182 64.5 185.5 c 128,-1,6
 44 189 44 189 25 195 c 1,7,-1
 25 244 l 1,8,9
 44 234 44 234 61.5 228.5 c 128,-1,10
 79 223 79 223 96 223 c 0,11,12
 123 223 123 223 137 232.5 c 128,-1,13
 151 242 151 242 151 257 c 0,14,15
 151 275 151 275 136.5 283.5 c 128,-1,16
 122 292 122 292 89 292 c 2,17,-1
 68 292 l 1,18,-1
 68 331 l 1,19,-1
 92 331 l 2,20,21
 121 331 121 331 133.5 338 c 128,-1,22
 146 345 146 345 146 357 c 0,23,24
 146 383 146 383 101 383 c 0,25,26
 86 383 86 383 69 379 c 128,-1,27
 52 375 52 375 33 368 c 1,28,-1
 33 415 l 1,29,30
 50 419 50 419 71 421.5 c 128,-1,31
 92 424 92 424 118 424 c 0,32,33
 164 424 164 424 188.5 408.5 c 128,-1,34
 213 393 213 393 213 364 c 0,35,36
 213 346 213 346 200.5 332 c 128,-1,37
 188 318 188 318 165 313 c 1,0,1
EndSplineSet
EndChar
StartChar: onequarter
Encoding: 188 188 243
Width: 591
Flags: W
Fore
378 88 m 1,0,-1
 445 88 l 1,1,-1
 445 179 l 1,2,-1
 378 88 l 1,0,-1
510 234 m 1,3,-1
 510 88 l 1,4,-1
 546 88 l 1,5,-1
 546 45 l 1,6,-1
 510 45 l 1,7,-1
 510 0 l 1,8,-1
 445 0 l 1,9,-1
 445 45 l 1,10,-1
 336 45 l 1,11,-1
 336 92 l 1,12,-1
 440 234 l 1,13,-1
 510 234 l 1,3,-1
143 -8 m 1,14,-1
 403 424 l 1,15,-1
 465 424 l 1,16,-1
 205 -8 l 1,17,-1
 143 -8 l 1,14,-1
90 231 m 1,18,-1
 90 375 l 1,19,-1
 28 361 l 1,20,-1
 28 407 l 1,21,-1
 92 420 l 1,22,-1
 153 420 l 1,23,-1
 153 231 l 1,24,-1
 212 231 l 1,25,-1
 212 186 l 1,26,-1
 34 186 l 1,27,-1
 34 231 l 1,28,-1
 90 231 l 1,18,-1
EndSplineSet
Ligature: 0 0 'frac' one fraction four
Ligature: 0 0 'frac' one slash four
EndChar
StartChar: onehalf
Encoding: 189 189 244
Width: 591
Flags: W
Fore
564 47 m 1,0,-1
 564 0 l 1,1,-1
 375 0 l 1,2,-1
 375 44 l 1,3,-1
 463 118 l 2,4,5
 481 132 481 132 488.5 142.5 c 128,-1,6
 496 153 496 153 496 165 c 0,7,8
 496 179 496 179 485.5 187.5 c 128,-1,9
 475 196 475 196 457 196 c 0,10,11
 424 196 424 196 378 171 c 1,12,-1
 378 223 l 1,13,14
 402 231 402 231 425 234.5 c 128,-1,15
 448 238 448 238 468 238 c 0,16,17
 513 238 513 238 537.5 220.5 c 128,-1,18
 562 203 562 203 562 171 c 0,19,20
 562 151 562 151 552 134 c 128,-1,21
 542 117 542 117 515 94 c 2,22,-1
 460 47 l 1,23,-1
 564 47 l 1,0,-1
143 -8 m 1,24,-1
 403 424 l 1,25,-1
 465 424 l 1,26,-1
 205 -8 l 1,27,-1
 143 -8 l 1,24,-1
90 231 m 1,28,-1
 90 375 l 1,29,-1
 28 361 l 1,30,-1
 28 407 l 1,31,-1
 92 420 l 1,32,-1
 153 420 l 1,33,-1
 153 231 l 1,34,-1
 212 231 l 1,35,-1
 212 186 l 1,36,-1
 34 186 l 1,37,-1
 34 231 l 1,38,-1
 90 231 l 1,28,-1
EndSplineSet
Ligature: 0 0 'frac' one fraction two
Ligature: 0 0 'frac' one slash two
EndChar
StartChar: threequarters
Encoding: 190 190 245
Width: 591
Flags: W
Fore
510 234 m 1,0,-1
 510 88 l 1,1,-1
 546 88 l 1,2,-1
 546 45 l 1,3,-1
 510 45 l 1,4,-1
 510 0 l 1,5,-1
 445 0 l 1,6,-1
 445 45 l 1,7,-1
 336 45 l 1,8,-1
 336 92 l 1,9,-1
 440 234 l 1,10,-1
 510 234 l 1,0,-1
378 88 m 1,11,-1
 445 88 l 1,12,-1
 445 179 l 1,13,-1
 378 88 l 1,11,-1
169 313 m 1,14,15
 224 302 224 302 224 254 c 0,16,17
 224 182 224 182 112 182 c 0,18,19
 89 182 89 182 68.5 185.5 c 128,-1,20
 48 189 48 189 29 195 c 1,21,-1
 29 244 l 1,22,23
 48 234 48 234 65.5 228.5 c 128,-1,24
 83 223 83 223 100 223 c 0,25,26
 127 223 127 223 140.5 232.5 c 128,-1,27
 154 242 154 242 154 257 c 0,28,29
 154 275 154 275 140 283.5 c 128,-1,30
 126 292 126 292 94 292 c 2,31,-1
 73 292 l 1,32,-1
 73 331 l 1,33,-1
 97 331 l 2,34,35
 149 331 149 331 149 357 c 256,36,37
 149 383 149 383 105 383 c 0,38,39
 90 383 90 383 73 379 c 128,-1,40
 56 375 56 375 37 368 c 1,41,-1
 37 415 l 1,42,43
 55 419 55 419 76 421.5 c 128,-1,44
 97 424 97 424 122 424 c 0,45,46
 168 424 168 424 192.5 408.5 c 128,-1,47
 217 393 217 393 217 364 c 0,48,49
 217 346 217 346 204.5 332 c 128,-1,50
 192 318 192 318 169 313 c 1,14,15
143 -8 m 1,51,-1
 403 424 l 1,52,-1
 465 424 l 1,53,-1
 205 -8 l 1,54,-1
 143 -8 l 1,51,-1
EndSplineSet
Ligature: 0 0 'frac' three fraction four
Ligature: 0 0 'frac' three slash four
EndChar
StartChar: Gbreve
Encoding: 286 286 246
Width: 470
Flags: W
Fore
428 32 m 1,0,1
 347 -8 347 -8 254 -8 c 0,2,3
 202 -8 202 -8 160 7 c 128,-1,4
 118 22 118 22 89 50 c 128,-1,5
 60 78 60 78 44 118 c 128,-1,6
 28 158 28 158 28 208 c 0,7,8
 28 310 28 310 89.5 367 c 128,-1,9
 151 424 151 424 260 424 c 0,10,11
 346 424 346 424 412 393 c 1,12,-1
 412 307 l 1,13,14
 342 347 342 347 273 347 c 0,15,16
 209 347 209 347 174.5 310.5 c 128,-1,17
 140 274 140 274 140 208 c 256,18,19
 140 142 140 142 173.5 105.5 c 128,-1,20
 207 69 207 69 268 69 c 0,21,22
 303 69 303 69 326 79 c 1,23,-1
 326 159 l 1,24,-1
 260 159 l 1,25,-1
 260 232 l 1,26,-1
 428 232 l 1,27,-1
 428 32 l 1,28,-1
 428 32 l 1,0,1
173 531 m 1,29,30
 187 496 187 496 229 496 c 0,31,32
 270 496 270 496 281 531 c 1,33,-1
 322 531 l 1,34,35
 318 494 318 494 293.5 475 c 128,-1,36
 269 456 269 456 229 456 c 0,37,38
 145 456 145 456 134 531 c 1,39,-1
 173 531 l 1,29,30
EndSplineSet
EndChar
StartChar: gbreve
Encoding: 287 287 247
Width: 410
Flags: W
Fore
261 53 m 1,0,1
 221 0 221 0 158 0 c 0,2,3
 101 0 101 0 63 45 c 0,4,5
 26 89 26 89 26 160 c 256,6,7
 26 231 26 231 63 275 c 0,8,9
 101 320 101 320 158 320 c 0,10,11
 222 320 222 320 261 266 c 1,12,-1
 261 313 l 1,13,-1
 361 313 l 1,14,-1
 361 32 l 2,15,16
 361 -44 361 -44 313.5 -84 c 128,-1,17
 266 -124 266 -124 175 -124 c 0,18,19
 117 -124 117 -124 64 -105 c 1,20,-1
 64 -27 l 1,21,22
 90 -43 90 -43 115.5 -50 c 128,-1,23
 141 -57 141 -57 166 -57 c 0,24,25
 215 -57 215 -57 238 -36.5 c 128,-1,26
 261 -16 261 -16 261 32 c 2,27,-1
 261 53 l 1,28,-1
 261 53 l 1,0,1
195 248 m 0,29,30
 164 248 164 248 147 225 c 128,-1,31
 130 202 130 202 130 160 c 0,32,33
 130 73 130 73 195 73 c 0,34,35
 227 73 227 73 244 95.5 c 128,-1,36
 261 118 261 118 261 160 c 256,37,38
 261 202 261 202 244 225 c 128,-1,39
 227 248 227 248 195 248 c 0,29,30
150 448 m 1,40,41
 154 430 154 430 168 419.5 c 128,-1,42
 182 409 182 409 206 409 c 0,43,44
 228 409 228 409 242 419.5 c 128,-1,45
 256 430 256 430 258 448 c 1,46,-1
 299 448 l 1,47,48
 297 409 297 409 272.5 387.5 c 128,-1,49
 248 366 248 366 206 366 c 0,50,51
 161 366 161 366 136.5 387.5 c 128,-1,52
 112 409 112 409 111 448 c 1,53,-1
 150 448 l 1,40,41
EndSplineSet
EndChar
StartChar: Idotaccent
Encoding: 304 304 248
Width: 213
Flags: W
Fore
160 417 m 1,0,-1
 160 0 l 1,1,-1
 52 0 l 1,2,-1
 52 417 l 1,3,-1
 160 417 l 1,0,-1
141 531 m 1,4,-1
 141 461 l 1,5,-1
 65 461 l 1,6,-1
 65 531 l 1,7,-1
 141 531 l 1,4,-1
EndSplineSet
EndChar
StartChar: Scedilla
Encoding: 350 350 249
Width: 412
Flags: W
Fore
344 316 m 1,0,1
 308 331 308 331 276 339 c 128,-1,2
 244 347 244 347 214 347 c 0,3,4
 174 347 174 347 156.5 336.5 c 128,-1,5
 139 326 139 326 139 304 c 0,6,7
 139 286 139 286 151 276.5 c 128,-1,8
 163 267 163 267 195 261 c 2,9,-1
 242 251 l 2,10,11
 311 238 311 238 340.5 210 c 128,-1,12
 370 182 370 182 370 128 c 0,13,14
 370 -8 370 -8 204 -8 c 0,15,16
 125 -8 125 -8 45 22 c 1,17,-1
 45 112 l 1,18,19
 126 69 126 69 194 69 c 0,20,21
 229 69 229 69 247.5 81.5 c 128,-1,22
 266 94 266 94 266 116 c 0,23,24
 266 134 266 134 254 145 c 128,-1,25
 242 156 242 156 203 164 c 2,26,-1
 161 173 l 2,27,28
 98 187 98 187 70 216.5 c 128,-1,29
 42 246 42 246 42 295 c 0,30,31
 42 358 42 358 81.5 391 c 128,-1,32
 121 424 121 424 196 424 c 0,33,34
 231 424 231 424 267.5 419 c 128,-1,35
 304 414 304 414 344 403 c 1,36,-1
 344 316 l 1,0,1
230 0 m 1,37,38
 262 -37 262 -37 262 -60 c 0,39,40
 262 -112 262 -112 192 -112 c 0,41,42
 179 -112 179 -112 164 -110 c 128,-1,43
 149 -108 149 -108 136 -105 c 1,44,-1
 135 -62 l 1,45,46
 165 -70 165 -70 182 -70 c 0,47,48
 215 -70 215 -70 215 -47 c 0,49,50
 215 -33 215 -33 192 0 c 1,51,-1
 230 0 l 1,52,-1
 230 0 l 1,37,38
EndSplineSet
EndChar
StartChar: scedilla
Encoding: 351 351 250
Width: 340
Flags: W
Fore
292 227 m 1,0,1
 260 241 260 241 230.5 247 c 128,-1,2
 201 253 201 253 173 253 c 0,3,4
 118 253 118 253 118 225 c 0,5,6
 118 213 118 213 128.5 206.5 c 128,-1,7
 139 200 139 200 166 196 c 2,8,-1
 183 194 l 2,9,10
 261 185 261 185 286 163 c 0,11,12
 313 141 313 141 313 92 c 0,13,14
 313 -8 313 -8 166 -8 c 0,15,16
 136 -8 136 -8 102 -3.5 c 128,-1,17
 68 1 68 1 35 12 c 1,18,-1
 35 87 l 1,19,20
 95 58 95 58 159 58 c 0,21,22
 219 58 219 58 219 90 c 0,23,24
 219 104 219 104 208.5 110.5 c 128,-1,25
 198 117 198 117 167 121 c 2,26,-1
 149 123 l 2,27,28
 83 131 83 131 56 154 c 128,-1,29
 29 177 29 177 29 223 c 0,30,31
 29 320 29 320 168 320 c 0,32,33
 222 320 222 320 292 304 c 1,34,-1
 292 227 l 1,0,1
195 0 m 1,35,36
 227 -37 227 -37 227 -60 c 0,37,38
 227 -112 227 -112 157 -112 c 0,39,40
 144 -112 144 -112 129 -110 c 128,-1,41
 114 -108 114 -108 101 -105 c 1,42,-1
 100 -62 l 1,43,44
 130 -70 130 -70 147 -70 c 0,45,46
 180 -70 180 -70 180 -47 c 0,47,48
 180 -33 180 -33 157 0 c 1,49,-1
 195 0 l 1,50,-1
 195 0 l 1,35,36
EndSplineSet
EndChar
StartChar: Cacute
Encoding: 262 262 251
Width: 420
Flags: W
Fore
383 23 m 1,0,1
 324 -8 324 -8 254 -8 c 0,2,3
 202 -8 202 -8 160 7 c 128,-1,4
 118 22 118 22 89 50 c 128,-1,5
 60 78 60 78 44 118 c 128,-1,6
 28 158 28 158 28 208 c 256,7,8
 28 258 28 258 44 298 c 128,-1,9
 60 338 60 338 89 366 c 128,-1,10
 118 394 118 394 160 409 c 128,-1,11
 202 424 202 424 254 424 c 0,12,13
 324 424 324 424 383 393 c 1,14,-1
 383 307 l 1,15,16
 353 328 353 328 324 337.5 c 128,-1,17
 295 347 295 347 263 347 c 0,18,19
 206 347 206 347 173 309.5 c 128,-1,20
 140 272 140 272 140 208 c 256,21,22
 140 144 140 144 173 106.5 c 128,-1,23
 206 69 206 69 263 69 c 0,24,25
 295 69 295 69 324 78.5 c 128,-1,26
 353 88 353 88 383 109 c 1,27,-1
 383 23 l 1,28,-1
 383 23 l 1,0,1
336 531 m 1,29,-1
 257 456 l 1,30,-1
 202 456 l 1,31,-1
 257 531 l 1,32,-1
 336 531 l 1,29,-1
EndSplineSet
EndChar
StartChar: cacute
Encoding: 263 263 252
Width: 339
Flags: W
Fore
300 222 m 1,0,1
 281 236 281 236 260.5 242 c 128,-1,2
 240 248 240 248 217 248 c 0,3,4
 174 248 174 248 151.5 224.5 c 128,-1,5
 129 201 129 201 129 156 c 256,6,7
 129 111 129 111 151.5 87 c 128,-1,8
 174 63 174 63 217 63 c 0,9,10
 241 63 241 63 262 70 c 128,-1,11
 283 77 283 77 300 90 c 1,12,-1
 300 9 l 1,13,14
 277 0 277 0 253 -4 c 128,-1,15
 229 -8 229 -8 205 -8 c 0,16,17
 120 -8 120 -8 72 35 c 128,-1,18
 24 78 24 78 24 156 c 256,19,20
 24 234 24 234 72 277 c 128,-1,21
 120 320 120 320 205 320 c 0,22,23
 255 320 255 320 300 304 c 1,24,-1
 300 222 l 1,0,1
319 457 m 1,25,-1
 216 352 l 1,26,-1
 161 352 l 1,27,-1
 240 457 l 1,28,-1
 319 457 l 1,25,-1
EndSplineSet
EndChar
StartChar: Ccaron
Encoding: 268 268 253
Width: 420
Flags: W
Fore
383 23 m 1,0,1
 324 -8 324 -8 254 -8 c 0,2,3
 202 -8 202 -8 160 7 c 128,-1,4
 118 22 118 22 89 50 c 128,-1,5
 60 78 60 78 44 118 c 128,-1,6
 28 158 28 158 28 208 c 256,7,8
 28 258 28 258 44 298 c 128,-1,9
 60 338 60 338 89 366 c 128,-1,10
 118 394 118 394 160 409 c 128,-1,11
 202 424 202 424 254 424 c 0,12,13
 324 424 324 424 383 393 c 1,14,-1
 383 307 l 1,15,16
 353 328 353 328 324 337.5 c 128,-1,17
 295 347 295 347 263 347 c 0,18,19
 206 347 206 347 173 309.5 c 128,-1,20
 140 272 140 272 140 208 c 256,21,22
 140 144 140 144 173 106.5 c 128,-1,23
 206 69 206 69 263 69 c 0,24,25
 295 69 295 69 324 78.5 c 128,-1,26
 353 88 353 88 383 109 c 1,27,-1
 383 23 l 1,28,-1
 383 23 l 1,0,1
138 531 m 1,29,-1
 187 531 l 1,30,-1
 244 484 l 1,31,-1
 299 531 l 1,32,-1
 348 531 l 1,33,-1
 286 456 l 1,34,-1
 200 456 l 1,35,-1
 138 531 l 1,29,-1
EndSplineSet
EndChar
StartChar: ccaron
Encoding: 269 269 254
Width: 339
Flags: W
Fore
300 222 m 1,0,1
 281 236 281 236 260.5 242 c 128,-1,2
 240 248 240 248 217 248 c 0,3,4
 174 248 174 248 151.5 224.5 c 128,-1,5
 129 201 129 201 129 156 c 256,6,7
 129 111 129 111 151.5 87 c 128,-1,8
 174 63 174 63 217 63 c 0,9,10
 241 63 241 63 262 70 c 128,-1,11
 283 77 283 77 300 90 c 1,12,-1
 300 9 l 1,13,14
 277 0 277 0 253 -4 c 128,-1,15
 229 -8 229 -8 205 -8 c 0,16,17
 120 -8 120 -8 72 35 c 128,-1,18
 24 78 24 78 24 156 c 256,19,20
 24 234 24 234 72 277 c 128,-1,21
 120 320 120 320 205 320 c 0,22,23
 255 320 255 320 300 304 c 1,24,-1
 300 222 l 1,0,1
97 457 m 1,25,-1
 146 457 l 1,26,-1
 203 394 l 1,27,-1
 258 457 l 1,28,-1
 307 457 l 1,29,-1
 236 352 l 1,30,-1
 168 352 l 1,31,-1
 97 457 l 1,25,-1
EndSplineSet
EndChar
StartChar: dcroat
Encoding: 273 273 255
Width: 410
Flags: W
Fore
261 346 m 1,0,-1
 169 346 l 1,1,-1
 169 402 l 1,2,-1
 261 402 l 1,3,-1
 261 435 l 1,4,-1
 361 435 l 1,5,-1
 361 402 l 1,6,-1
 404 402 l 1,7,-1
 404 346 l 1,8,-1
 361 346 l 1,9,-1
 361 0 l 1,10,-1
 261 0 l 1,11,-1
 261 45 l 1,12,13
 221 -8 221 -8 158 -8 c 0,14,15
 129 -8 129 -8 105 4 c 128,-1,16
 81 16 81 16 63.5 38 c 128,-1,17
 46 60 46 60 36 90 c 128,-1,18
 26 120 26 120 26 156 c 256,19,20
 26 192 26 192 36 222.5 c 128,-1,21
 46 253 46 253 63.5 274.5 c 128,-1,22
 81 296 81 296 105 308 c 128,-1,23
 129 320 129 320 158 320 c 0,24,25
 221 320 221 320 261 267 c 1,26,-1
 261 346 l 1,0,-1
195 64 m 0,27,28
 261 64 261 64 261 156 c 256,29,30
 261 248 261 248 195 248 c 0,31,32
 130 248 130 248 130 156 c 256,33,34
 130 64 130 64 195 64 c 0,27,28
EndSplineSet
EndChar
StartChar: sfthyphen
Encoding: 173 173 256
Width: 238
Flags: W
Fore
206 205 m 1,0,-1
 206 124 l 1,1,-1
 32 124 l 1,2,-1
 32 205 l 1,3,-1
 206 205 l 1,0,-1
EndSplineSet
EndChar
StartChar: periodcentered
Encoding: 8729 8729 257
Width: 209
Flags: W
Fore
153 243 m 1,0,-1
 153 139 l 1,1,-1
 56 139 l 1,2,-1
 56 243 l 1,3,-1
 153 243 l 1,0,-1
EndSplineSet
EndChar
StartChar: Euro
Encoding: 8364 8364 258
Width: 398
Flags: W
Fore
359 23 m 1,0,1
 307 -8 307 -8 245 -8 c 0,2,3
 170 -8 170 -8 120 28 c 128,-1,4
 70 64 70 64 50 133 c 1,5,-1
 -11 133 l 1,6,-1
 14 188 l 1,7,-1
 42 188 l 1,8,9
 41 192 41 192 41 208 c 0,10,11
 41 216 41 216 41 220.5 c 128,-1,12
 41 225 41 225 42 230 c 1,13,-1
 -11 230 l 1,14,-1
 14 284 l 1,15,-1
 50 284 l 1,16,17
 70 353 70 353 120 388.5 c 128,-1,18
 170 424 170 424 245 424 c 0,19,20
 307 424 307 424 359 393 c 1,21,-1
 359 307 l 1,22,23
 316 350 316 350 257 350 c 0,24,25
 223 350 223 350 197.5 333.5 c 128,-1,26
 172 317 172 317 160 284 c 1,27,-1
 311 284 l 1,28,-1
 286 230 l 1,29,-1
 149 230 l 1,30,-1
 149 205 l 1,31,-1
 149 188 l 1,32,-1
 268 188 l 1,33,-1
 244 133 l 1,34,-1
 160 133 l 1,35,36
 173 99 173 99 198 82 c 128,-1,37
 223 65 223 65 257 65 c 0,38,39
 286 65 286 65 311 76 c 128,-1,40
 336 87 336 87 359 109 c 1,41,-1
 359 23 l 1,42,-1
 359 23 l 1,0,1
EndSplineSet
EndChar
StartChar: c6459
Encoding: 65539 -1 259
Width: 286
Flags: W
Fore
121 427 m 1,0,-1
 121 357 l 1,1,-1
 55 357 l 1,2,-1
 55 427 l 1,3,-1
 121 427 l 1,0,-1
231 427 m 1,4,-1
 231 357 l 1,5,-1
 165 357 l 1,6,-1
 165 427 l 1,7,-1
 231 427 l 1,4,-1
EndSplineSet
EndChar
StartChar: c6460
Encoding: 65540 -1 260
Width: 286
Flags: W
Fore
236 427 m 1,0,-1
 157 352 l 1,1,-1
 102 352 l 1,2,-1
 157 427 l 1,3,-1
 236 427 l 1,0,-1
EndSplineSet
EndChar
StartChar: c6461
Encoding: 65541 -1 261
Width: 286
Flags: W
Fore
128 375 m 2,0,1
 127 376 127 376 126.5 376 c 128,-1,2
 126 376 126 376 125 377 c 0,3,4
 111 385 111 385 105 385 c 0,5,6
 85 385 85 385 85 353 c 2,7,-1
 85 352 l 1,8,-1
 46 352 l 1,9,-1
 46 360 l 2,10,11
 46 390 46 390 61 408.5 c 128,-1,12
 76 427 76 427 101 427 c 0,13,14
 118 427 118 427 143 413 c 2,15,-1
 159 402 l 2,16,17
 172 394 172 394 180 394 c 0,18,19
 202 394 202 394 202 427 c 1,20,-1
 241 427 l 1,21,22
 241 425 241 425 240.5 422 c 128,-1,23
 240 419 240 419 240 418 c 0,24,25
 240 389 240 389 225 370.5 c 128,-1,26
 210 352 210 352 185 352 c 0,27,28
 174 352 174 352 164 355 c 128,-1,29
 154 358 154 358 144 366 c 1,30,-1
 128 375 l 2,0,1
EndSplineSet
EndChar
StartChar: c6462
Encoding: 65542 -1 262
Width: 286
Flags: W
Fore
184 352 m 1,0,-1
 130 352 l 1,1,-1
 50 427 l 1,2,-1
 129 427 l 1,3,-1
 184 352 l 1,0,-1
EndSplineSet
EndChar
StartChar: c6463
Encoding: 65543 -1 263
Width: 286
Flags: W
Fore
186 427 m 1,0,-1
 248 352 l 1,1,-1
 199 352 l 1,2,-1
 144 397 l 1,3,-1
 87 352 l 1,4,-1
 38 352 l 1,5,-1
 100 427 l 1,6,-1
 186 427 l 1,0,-1
EndSplineSet
EndChar
StartChar: c6466
Encoding: 65544 -1 264
Width: 286
Flags: W
Fore
38 427 m 1,0,-1
 87 427 l 1,1,-1
 144 380 l 1,2,-1
 199 427 l 1,3,-1
 248 427 l 1,4,-1
 186 352 l 1,5,-1
 100 352 l 1,6,-1
 38 427 l 1,0,-1
EndSplineSet
EndChar
StartChar: c6467
Encoding: 65545 -1 265
Width: 286
Flags: W
Fore
88 427 m 1,0,1
 102 392 102 392 144 392 c 0,2,3
 185 392 185 392 196 427 c 1,4,-1
 237 427 l 1,5,6
 233 390 233 390 208.5 371 c 128,-1,7
 184 352 184 352 144 352 c 0,8,9
 60 352 60 352 49 427 c 1,10,-1
 88 427 l 1,0,1
EndSplineSet
EndChar
StartChar: c6468
Encoding: 65546 -1 266
Width: 286
Flags: W
Fore
181 427 m 1,0,-1
 181 357 l 1,1,-1
 105 357 l 1,2,-1
 105 427 l 1,3,-1
 181 427 l 1,0,-1
EndSplineSet
EndChar
StartChar: uni0E99
Encoding: 3737 3737 267
Width: 209
Flags: W
Fore
153 243 m 1,0,-1
 153 139 l 1,1,-1
 56 139 l 1,2,-1
 56 243 l 1,3,-1
 153 243 l 1,0,-1
EndSplineSet
EndChar
StartChar: uni0E01
Encoding: 3585 3585 268
Width: 429
Flags: W
Fore
289 0 m 1,0,-1
 289 251 l 2,1,2
 289 272 289 272 281 287.5 c 128,-1,3
 273 303 273 303 259.5 313.5 c 128,-1,4
 246 324 246 324 228 329 c 128,-1,5
 210 334 210 334 191 334 c 0,6,7
 154 334 154 334 125.5 325 c 128,-1,8
 97 316 97 316 72 287 c 1,9,-1
 154 287 l 1,10,-1
 154 241 l 1,11,12
 137 236 137 236 126.5 226 c 128,-1,13
 116 216 116 216 116 197 c 2,14,-1
 116 0 l 1,15,-1
 35 0 l 1,16,-1
 35 172 l 2,17,18
 35 193 35 193 42.5 208 c 128,-1,19
 50 223 50 223 64 238 c 1,20,-1
 0 238 l 1,21,-1
 0 302 l 1,22,23
 11 306 11 306 20 315 c 0,24,25
 44 336 44 336 61.5 350 c 128,-1,26
 79 364 79 364 97.5 372.5 c 128,-1,27
 116 381 116 381 138 384.5 c 128,-1,28
 160 388 160 388 193 388 c 0,29,30
 225 388 225 388 256.5 378 c 128,-1,31
 288 368 288 368 313 349 c 128,-1,32
 338 330 338 330 353 302 c 128,-1,33
 368 274 368 274 368 239 c 2,34,-1
 368 0 l 1,35,-1
 289 0 l 1,0,-1
EndSplineSet
EndChar
StartChar: uni0E02
Encoding: 3586 3586 269
Width: 391
Flags: W
Fore
82 0 m 1,0,-1
 82 122 l 2,1,2
 82 148 82 148 95 170 c 128,-1,3
 108 192 108 192 124 212 c 128,-1,4
 140 232 140 232 153 250 c 128,-1,5
 166 268 166 268 166 285 c 0,6,7
 166 305 166 305 150.5 320 c 128,-1,8
 135 335 135 335 116 335 c 0,9,10
 106 335 106 335 94 330 c 1,11,12
 114 323 114 323 123 303.5 c 128,-1,13
 132 284 132 284 132 265 c 0,14,15
 132 236 132 236 113 219.5 c 128,-1,16
 94 203 94 203 66 203 c 0,17,18
 31 203 31 203 11.5 222.5 c 128,-1,19
 -8 242 -8 242 -8 277 c 0,20,21
 -8 302 -8 302 1.5 322.5 c 128,-1,22
 11 343 11 343 26.5 357.5 c 128,-1,23
 42 372 42 372 63.5 380 c 128,-1,24
 85 388 85 388 109 388 c 256,25,26
 133 388 133 388 154.5 381.5 c 128,-1,27
 176 375 176 375 193 361.5 c 128,-1,28
 210 348 210 348 220 328.5 c 128,-1,29
 230 309 230 309 230 283 c 0,30,31
 230 262 230 262 219.5 242 c 128,-1,32
 209 222 209 222 196.5 204.5 c 128,-1,33
 184 187 184 187 173.5 172.5 c 128,-1,34
 163 158 163 158 163 146 c 2,35,-1
 163 65 l 1,36,-1
 252 65 l 1,37,-1
 252 384 l 1,38,-1
 331 384 l 1,39,-1
 331 0 l 1,40,-1
 82 0 l 1,0,-1
88 269 m 0,41,42
 88 291 88 291 67 291 c 256,43,44
 46 291 46 291 46 270 c 0,45,46
 46 260 46 260 51 253.5 c 128,-1,47
 56 247 56 247 67 247 c 0,48,49
 77 247 77 247 82.5 253.5 c 128,-1,50
 88 260 88 260 88 269 c 0,41,42
EndSplineSet
EndChar
StartChar: uni0E03
Encoding: 3587 3587 270
Width: 399
Flags: W
Fore
93 0 m 1,0,-1
 93 115 l 2,1,2
 93 139 93 139 108.5 163 c 128,-1,3
 124 187 124 187 143 210.5 c 128,-1,4
 162 234 162 234 177.5 257.5 c 128,-1,5
 193 281 193 281 193 305 c 0,6,7
 193 313 193 313 191 323 c 128,-1,8
 189 333 189 333 178 333 c 0,9,10
 172 333 172 333 168 329.5 c 128,-1,11
 164 326 164 326 159.5 321.5 c 128,-1,12
 155 317 155 317 150 313.5 c 128,-1,13
 145 310 145 310 137 310 c 0,14,15
 126 310 126 310 115 318 c 0,16,17
 106 326 106 326 96.5 332 c 128,-1,18
 87 338 87 338 77 343 c 1,19,-1
 71 322 l 1,20,-1
 68 303 l 1,21,22
 72 304 72 304 75 304.5 c 128,-1,23
 78 305 78 305 82 305 c 0,24,25
 106 305 106 305 123.5 289 c 128,-1,26
 141 273 141 273 141 248 c 0,27,28
 141 219 141 219 122 204 c 128,-1,29
 103 189 103 189 76 189 c 0,30,31
 55 189 55 189 40 198.5 c 128,-1,32
 25 208 25 208 16 223 c 128,-1,33
 7 238 7 238 2.5 256 c 128,-1,34
 -2 274 -2 274 -2 292 c 0,35,36
 -2 307 -2 307 2.5 324 c 128,-1,37
 7 341 7 341 16 355 c 128,-1,38
 25 369 25 369 38 378 c 128,-1,39
 51 387 51 387 69 387 c 0,40,41
 89 387 89 387 99.5 378.5 c 128,-1,42
 110 370 110 370 126 362 c 1,43,44
 134 365 134 365 140 369.5 c 128,-1,45
 152 378.5 l 128,-1,46
 158 383 158 383 164.5 386 c 128,-1,47
 171 389 171 389 181 389 c 0,48,49
 216 389 216 389 234 368 c 128,-1,50
 252 347 252 347 252 314 c 0,51,52
 252 294 252 294 245 273 c 0,53,54
 241 260 241 260 229 241 c 128,-1,55
 205 203 l 128,-1,56
 193 184 193 184 183.5 166.5 c 128,-1,57
 174 149 174 149 174 138 c 2,58,-1
 174 70 l 1,59,-1
 260 70 l 1,60,-1
 260 384 l 1,61,-1
 340 384 l 1,62,-1
 340 0 l 1,63,-1
 93 0 l 1,0,-1
102 247 m 0,64,65
 102 269 102 269 81 269 c 256,66,67
 60 269 60 269 60 248 c 0,68,69
 60 238 60 238 65 231.5 c 128,-1,70
 70 225 70 225 81 225 c 0,71,72
 91 225 91 225 96.5 231.5 c 128,-1,73
 102 238 102 238 102 247 c 0,64,65
EndSplineSet
EndChar
StartChar: uni0E04
Encoding: 3588 3588 271
Width: 434
Flags: W
Fore
295 0 m 1,0,-1
 295 256 l 2,1,2
 295 277 295 277 286.5 292 c 128,-1,3
 278 307 278 307 264 316 c 128,-1,4
 250 325 250 325 232.5 329.5 c 128,-1,5
 215 334 215 334 197 334 c 0,6,7
 146 334 146 334 114 309.5 c 128,-1,8
 82 285 82 285 82 230 c 0,9,10
 82 204 82 204 88.5 179 c 128,-1,11
 95 154 95 154 103 129 c 1,12,13
 107 148 107 148 108 169.5 c 128,-1,14
 109 191 109 191 112.5 211.5 c 128,-1,15
 116 232 116 232 124.5 250 c 128,-1,16
 133 268 133 268 152 279 c 0,17,18
 175 292 175 292 199 292 c 0,19,20
 234 292 234 292 257 272.5 c 128,-1,21
 280 253 280 253 280 217 c 0,22,23
 280 202 280 202 273.5 189 c 128,-1,24
 267 176 267 176 256 165.5 c 128,-1,25
 245 155 245 155 231.5 149 c 128,-1,26
 218 143 218 143 203 143 c 0,27,28
 194 143 194 143 185 145.5 c 128,-1,29
 176 148 176 148 168 153 c 1,30,-1
 151 75 l 2,31,32
 149 65 149 65 145 54.5 c 128,-1,33
 141 44 141 44 141 34 c 2,34,-1
 141 0 l 1,35,-1
 56 0 l 1,36,37
 52 27 52 27 48 54.5 c 128,-1,38
 44 82 44 82 36 108 c 0,39,40
 28 137 28 137 18 166 c 128,-1,41
 8 195 8 195 8 226 c 0,42,43
 8 243 8 243 10 260 c 128,-1,44
 12 277 12 277 19 293 c 0,45,46
 30 319 30 319 49.5 336.5 c 128,-1,47
 69 354 69 354 93 365.5 c 128,-1,48
 117 377 117 377 144 382 c 128,-1,49
 171 387 171 387 196 387 c 0,50,51
 226 387 226 387 257.5 381 c 128,-1,52
 289 375 289 375 315 360 c 128,-1,53
 341 345 341 345 358 321 c 128,-1,54
 375 297 375 297 375 261 c 2,55,-1
 375 0 l 1,56,-1
 295 0 l 1,0,-1
231 218 m 0,57,58
 231 230 231 230 223 237.5 c 128,-1,59
 215 245 215 245 203 245 c 256,60,61
 191 245 191 245 182.5 238 c 128,-1,62
 174 231 174 231 174 218 c 0,63,64
 174 206 174 206 182 198.5 c 128,-1,65
 190 191 190 191 202 191 c 256,66,67
 214 191 214 191 222.5 198 c 128,-1,68
 231 205 231 205 231 218 c 0,57,58
EndSplineSet
EndChar
StartChar: uni0E05
Encoding: 3589 3589 272
Width: 455
Flags: W
Fore
314 0 m 1,0,-1
 314 276 l 2,1,2
 314 289 314 289 311 298.5 c 128,-1,3
 308 308 308 308 295 318 c 0,4,5
 289 322 289 322 283 322 c 0,6,7
 280 322 280 322 273 318.5 c 128,-1,8
 266 315 266 315 257 311.5 c 128,-1,9
 248 308 248 308 238 304.5 c 128,-1,10
 228 301 228 301 219 301 c 0,11,12
 207 301 207 301 196 305 c 128,-1,13
 185 309 185 309 175.5 313.5 c 128,-1,14
 166 318 166 318 156.5 322 c 128,-1,15
 147 326 147 326 138 326 c 0,16,17
 124 326 124 326 114 318.5 c 128,-1,18
 104 311 104 311 97 299.5 c 128,-1,19
 90 288 90 288 87 275 c 128,-1,20
 84 262 84 262 84 250 c 0,21,22
 84 241 84 241 87.5 227 c 128,-1,23
 91 213 91 213 95.5 197 c 128,-1,24
 100 181 100 181 105 166 c 128,-1,25
 110 151 110 151 113 142 c 1,26,27
 118 161 118 161 123 182.5 c 128,-1,28
 128 204 128 204 137 222.5 c 128,-1,29
 146 241 146 241 161.5 253 c 128,-1,30
 177 265 177 265 202 265 c 0,31,32
 240 265 240 265 259.5 249.5 c 128,-1,33
 279 234 279 234 279 195 c 0,34,35
 279 182 279 182 273.5 169 c 128,-1,36
 268 156 268 156 258.5 146 c 128,-1,37
 249 136 249 136 236.5 130 c 128,-1,38
 224 124 224 124 211 124 c 0,39,40
 203 124 203 124 190.5 126.5 c 128,-1,41
 178 129 178 129 172 136 c 1,42,43
 164 102 164 102 156 68.5 c 128,-1,44
 148 35 148 35 143 0 c 1,45,-1
 73 0 l 1,46,47
 69 22 69 22 68 43.5 c 128,-1,48
 67 65 67 65 59 86 c 0,49,50
 52 106 52 106 43.5 125.5 c 128,-1,51
 35 145 35 145 28 165 c 128,-1,52
 21 185 21 185 16 205.5 c 128,-1,53
 11 226 11 226 11 248 c 0,54,55
 11 275 11 275 21 300 c 128,-1,56
 31 325 31 325 49 345 c 128,-1,57
 67 365 67 365 91 377 c 128,-1,58
 115 389 115 389 142 389 c 0,59,60
 154 389 154 389 164 384.5 c 128,-1,61
 174 380 174 380 182.5 375 c 128,-1,62
 191 370 191 370 199.5 365.5 c 128,-1,63
 208 361 208 361 217 361 c 0,64,65
 229 361 229 361 239.5 365.5 c 128,-1,66
 250 370 250 370 260 375.5 c 128,-1,67
 270 381 270 381 278.5 385.5 c 128,-1,68
 287 390 287 390 294 390 c 0,69,70
 308 390 308 390 323.5 382 c 128,-1,71
 339 374 339 374 352.5 362 c 128,-1,72
 366 350 366 350 376 336 c 128,-1,73
 386 322 386 322 389 309 c 0,74,75
 392 298 392 298 394 285 c 128,-1,76
 396 272 396 272 396 260 c 2,77,-1
 396 0 l 1,78,-1
 314 0 l 1,0,-1
233 196 m 256,79,80
 233 207 233 207 225.5 214 c 128,-1,81
 218 221 218 221 207 221 c 256,82,83
 196 221 196 221 188 214 c 128,-1,84
 180 207 180 207 180 196 c 256,85,86
 180 185 180 185 188 178 c 128,-1,87
 196 171 196 171 207 171 c 256,88,89
 218 171 218 171 225.5 178 c 128,-1,90
 233 185 233 185 233 196 c 256,79,80
EndSplineSet
EndChar
StartChar: uni0E06
Encoding: 3590 3590 273
Width: 456
Flags: W
Fore
323 0 m 1,0,1
 292 28 292 28 258 53 c 128,-1,2
 224 78 224 78 189 101 c 1,3,-1
 189 38 l 2,4,5
 189 33 189 33 185 27 c 1,6,-1
 184 26 l 1,7,8
 172 7 172 7 151 1.5 c 128,-1,9
 130 -4 130 -4 110 -4 c 0,10,11
 71 -4 71 -4 47 23 c 128,-1,12
 23 50 23 50 23 88 c 0,13,14
 23 106 23 106 31 121 c 128,-1,15
 39 136 39 136 52 146.5 c 128,-1,16
 65 157 65 157 81.5 163.5 c 128,-1,17
 98 170 98 170 114 172 c 1,18,-1
 114 180 l 2,19,20
 114 188 114 188 116 192 c 0,21,22
 120 200 120 200 126 206 c 128,-1,23
 132 212 132 212 138 217 c 0,24,25
 159 236 159 236 179 261 c 128,-1,26
 199 286 199 286 199 316 c 0,27,28
 199 324 199 324 195.5 331 c 128,-1,29
 192 338 192 338 182 338 c 0,30,31
 168 338 168 338 156 331.5 c 128,-1,32
 144 325 144 325 130 325 c 0,33,34
 121 325 121 325 114.5 328 c 128,-1,35
 108 331 108 331 103 334 c 128,-1,36
 98 337 98 337 92 340 c 128,-1,37
 86 343 86 343 77 343 c 0,38,39
 72 343 72 343 71.5 337 c 128,-1,40
 71 331 71 331 69 327 c 1,41,-1
 68 314 l 1,42,43
 76 318 76 318 89 318 c 0,44,45
 112 318 112 318 127 302.5 c 128,-1,46
 142 287 142 287 142 264 c 0,47,48
 142 232 142 232 119 217.5 c 128,-1,49
 96 203 96 203 68 203 c 0,50,51
 31 203 31 203 15.5 227.5 c 128,-1,52
 0 252 0 252 0 285 c 0,53,54
 0 299 0 299 3.5 317.5 c 128,-1,55
 7 336 7 336 15 352.5 c 128,-1,56
 23 369 23 369 35.5 380 c 128,-1,57
 48 391 48 391 66 391 c 0,58,59
 75 391 75 391 83.5 387.5 c 128,-1,60
 92 384 92 384 99.5 379.5 c 128,-1,61
 107 375 107 375 114 371.5 c 128,-1,62
 121 368 121 368 128 368 c 0,63,64
 136 368 136 368 143.5 372 c 128,-1,65
 151 376 151 376 158.5 380.5 c 128,-1,66
 166 385 166 385 174 388.5 c 128,-1,67
 182 392 182 392 192 392 c 0,68,69
 227 392 227 392 245.5 370 c 128,-1,70
 264 348 264 348 264 315 c 0,71,72
 264 302 264 302 259 287 c 128,-1,73
 254 272 254 272 246 257.5 c 128,-1,74
 238 243 238 243 228.5 230 c 128,-1,75
 219 217 219 217 210 207 c 0,76,77
 202 199 l 128,-1,78
 198 195 198 195 195 190 c 0,79,80
 191 185 191 185 190 180 c 128,-1,81
 189 175 189 175 189 168 c 1,82,83
 202 160 202 160 213 154 c 128,-1,84
 224 148 224 148 235 141 c 2,85,-1
 317 89 l 1,86,-1
 317 384 l 1,87,-1
 396 384 l 1,88,-1
 396 0 l 1,89,-1
 323 0 l 1,0,1
99 261 m 256,90,91
 99 270 99 270 93 276 c 128,-1,92
 87 282 87 282 78 282 c 0,93,94
 70 282 70 282 63.5 276.5 c 128,-1,95
 57 271 57 271 57 262 c 256,96,97
 57 253 57 253 63 247 c 128,-1,98
 69 241 69 241 78 241 c 0,99,100
 86 241 86 241 92.5 246.5 c 128,-1,101
 99 252 99 252 99 261 c 256,90,91
113 122 m 1,102,103
 81 117 81 117 81 85 c 0,104,105
 81 74 81 74 88.5 63.5 c 128,-1,106
 96 53 96 53 109 53 c 0,107,108
 111 53 111 53 112 57 c 128,-1,109
 113 61 113 61 113 63 c 2,110,-1
 113 122 l 1,102,103
EndSplineSet
EndChar
StartChar: uni0E07
Encoding: 3591 3591 274
Width: 318
Flags: W
Fore
261 18 m 1,0,1
 261 11 261 11 255 5.5 c 128,-1,2
 249 0 249 0 244 0 c 2,3,-1
 160 0 l 1,4,5
 136 30 l 128,-1,6
 124 45 124 45 113 61 c 0,7,8
 89 95 89 95 65.5 129 c 128,-1,9
 42 163 42 163 19 197 c 1,10,-1
 89 197 l 1,11,-1
 186 68 l 1,12,-1
 186 238 l 1,13,-1
 175 237 l 2,14,15
 143 237 143 237 121.5 257.5 c 128,-1,16
 100 278 100 278 100 311 c 0,17,18
 100 346 100 346 124 366.5 c 128,-1,19
 148 387 148 387 181 387 c 256,20,21
 214 387 214 387 237.5 367 c 128,-1,22
 261 347 261 347 261 312 c 2,23,-1
 261 18 l 1,24,-1
 261 18 l 1,0,1
204 314 m 256,25,26
 204 325 204 325 196 333 c 128,-1,27
 188 341 188 341 177 341 c 256,28,29
 166 341 166 341 158 333 c 128,-1,30
 150 325 150 325 150 314 c 256,31,32
 150 303 150 303 158 295 c 128,-1,33
 166 287 166 287 177 287 c 256,34,35
 188 287 188 287 196 295 c 128,-1,36
 204 303 204 303 204 314 c 256,25,26
EndSplineSet
EndChar
StartChar: uni0E08
Encoding: 3592 3592 275
Width: 363
Flags: W
Fore
316 242 m 1,0,-1
 302 0 l 1,1,-1
 165 0 l 1,2,-1
 137 126 l 1,3,4
 122 120 122 120 106 120 c 0,5,6
 73 120 73 120 48 141 c 128,-1,7
 23 162 23 162 23 197 c 0,8,9
 23 217 23 217 31 231 c 128,-1,10
 39 245 39 245 52 254 c 128,-1,11
 65 263 65 263 81.5 267.5 c 128,-1,12
 98 272 98 272 115 272 c 0,13,14
 137 272 137 272 151 265 c 128,-1,15
 165 258 165 258 173.5 246 c 128,-1,16
 182 234 182 234 187 218 c 128,-1,17
 192 202 192 202 196 184 c 2,18,-1
 221 66 l 1,19,-1
 235 66 l 1,20,21
 235 71 235 71 236 96 c 128,-1,22
 237 121 237 121 238.5 151.5 c 128,-1,23
 240 182 240 182 241 211.5 c 128,-1,24
 242 241 242 241 242 255 c 2,25,-1
 242 264 l 2,26,27
 240 282 240 282 232.5 293.5 c 128,-1,28
 225 305 225 305 213.5 312.5 c 128,-1,29
 202 320 202 320 188 323 c 128,-1,30
 174 326 174 326 159 326 c 0,31,32
 127 326 127 326 104.5 318 c 128,-1,33
 82 310 82 310 64.5 296.5 c 128,-1,34
 47 283 47 283 31.5 265.5 c 128,-1,35
 16 248 16 248 -1 230 c 1,36,-1
 -1 323 l 1,37,38
 9 342 9 342 28 354.5 c 128,-1,39
 47 367 47 367 70 374.5 c 128,-1,40
 93 382 93 382 117 385 c 128,-1,41
 141 388 141 388 160 388 c 0,42,43
 193 388 193 388 221.5 380.5 c 128,-1,44
 250 373 250 373 271 356.5 c 128,-1,45
 292 340 292 340 304 314.5 c 128,-1,46
 316 289 316 289 316 253 c 2,47,-1
 316 242 l 1,0,-1
135 197 m 0,48,49
 135 209 135 209 127 217 c 128,-1,50
 119 225 119 225 107 225 c 0,51,52
 94 225 94 225 86 217.5 c 128,-1,53
 78 210 78 210 78 197 c 0,54,55
 78 185 78 185 86 177 c 128,-1,56
 94 169 94 169 106 169 c 0,57,58
 119 169 119 169 127 176.5 c 128,-1,59
 135 184 135 184 135 197 c 0,48,49
EndSplineSet
EndChar
StartChar: uni0E09
Encoding: 3593 3593 276
Width: 417
Flags: W
Fore
394 69 m 0,0,1
 394 52 394 52 387 38 c 128,-1,2
 380 24 380 24 368 14.5 c 128,-1,3
 356 5 356 5 341 -0.5 c 128,-1,4
 326 -6 326 -6 310 -6 c 0,5,6
 278 -6 278 -6 254 10.5 c 128,-1,7
 230 27 230 27 230 62 c 1,8,9
 210 51 210 51 195.5 35.5 c 128,-1,10
 181 20 181 20 168 0 c 1,11,-1
 94 0 l 1,12,-1
 94 107 l 1,13,14
 89 106 89 106 83.5 105.5 c 128,-1,15
 78 105 78 105 73 105 c 0,16,17
 44 105 44 105 27 123 c 128,-1,18
 10 141 10 141 10 170 c 0,19,20
 10 202 10 202 31 226 c 128,-1,21
 52 250 52 250 91 250 c 2,22,-1
 93 250 l 2,23,24
 122 250 122 250 139 240.5 c 128,-1,25
 156 231 156 231 164.5 218.5 c 128,-1,26
 173 206 173 206 175 193 c 128,-1,27
 177 180 177 180 177 174 c 2,28,-1
 177 106 l 1,29,30
 185 113 185 113 194 118 c 0,31,32
 202 123 202 123 210.5 127.5 c 128,-1,33
 219 132 219 132 227 135 c 0,34,35
 241 140 241 140 252.5 142.5 c 128,-1,36
 264 145 264 145 272 149 c 0,37,38
 277 151 277 151 277 156 c 2,39,-1
 277 247 l 2,40,41
 277 294 277 294 253 309.5 c 128,-1,42
 229 325 229 325 186 325 c 0,43,44
 159 325 159 325 134 316.5 c 128,-1,45
 109 308 109 308 86 295 c 128,-1,46
 63 282 63 282 41 266 c 128,-1,47
 19 250 19 250 -2 235 c 1,48,-1
 -2 327 l 1,49,50
 37 356 37 356 86.5 372.5 c 128,-1,51
 136 389 136 389 184 389 c 0,52,53
 205 389 205 389 227 387 c 128,-1,54
 249 385 249 385 270 378.5 c 128,-1,55
 291 372 291 372 309 360.5 c 128,-1,56
 327 349 327 349 339 329 c 0,57,58
 348 314 348 314 353.5 296.5 c 128,-1,59
 359 279 359 279 359 262 c 2,60,-1
 359 152 l 2,61,62
 359 140 359 140 353 131 c 1,63,64
 372 122 372 122 383 106 c 128,-1,65
 394 90 394 90 394 69 c 0,0,1
340 69 m 0,66,67
 340 82 340 82 331.5 90 c 128,-1,68
 323 98 323 98 310 98 c 256,69,70
 297 98 297 98 289 90 c 128,-1,71
 281 82 281 82 281 69 c 1,72,-1
 281 70 l 1,73,74
 281 57 281 57 289 49.5 c 128,-1,75
 297 42 297 42 310 42 c 0,76,77
 321 42 321 42 330.5 49.5 c 128,-1,78
 340 57 340 57 340 69 c 0,66,67
117 176 m 256,79,80
 117 187 117 187 109 195 c 128,-1,81
 101 203 101 203 90 203 c 256,82,83
 79 203 79 203 71 195 c 128,-1,84
 63 187 63 187 63 176 c 256,85,86
 63 165 63 165 71 157 c 128,-1,87
 79 149 79 149 90 149 c 256,88,89
 101 149 101 149 109 157 c 128,-1,90
 117 165 117 165 117 176 c 256,79,80
EndSplineSet
EndChar
StartChar: uni0E0A
Encoding: 3594 3594 277
Width: 399
Flags: W
Fore
403 400 m 1,0,1
 400 388 400 388 394 376 c 0,2,3
 389 365 389 365 380.5 352 c 128,-1,4
 372 339 372 339 360 326 c 0,5,6
 352 317 352 317 340 309.5 c 128,-1,7
 328 302 328 302 318 294 c 1,8,9
 338 278 338 278 349.5 259 c 128,-1,10
 361 240 361 240 361 214 c 2,11,-1
 361 0 l 1,12,-1
 90 0 l 1,13,-1
 90 139 l 2,14,15
 90 162 90 162 103.5 182 c 128,-1,16
 117 202 117 202 132.5 220 c 128,-1,17
 148 238 148 238 161.5 254 c 128,-1,18
 175 270 175 270 175 285 c 0,19,20
 175 311 175 311 157.5 326.5 c 128,-1,21
 140 342 140 342 116 342 c 0,22,23
 103 342 103 342 97.5 339.5 c 128,-1,24
 92 337 92 337 85 333 c 2,25,-1
 83 332 l 1,26,27
 107 329 107 329 121 312.5 c 128,-1,28
 135 296 135 296 135 273 c 0,29,30
 135 246 135 246 118 226.5 c 128,-1,31
 101 207 101 207 73 207 c 0,32,33
 38 207 38 207 16.5 225.5 c 128,-1,34
 -5 244 -5 244 -5 281 c 0,35,36
 -5 307 -5 307 5 327 c 128,-1,37
 15 347 15 347 31.5 361 c 128,-1,38
 48 375 48 375 70 382.5 c 128,-1,39
 92 390 92 390 116 390 c 0,40,41
 142 390 142 390 164 384.5 c 128,-1,42
 186 379 186 379 203 367 c 128,-1,43
 220 355 220 355 229.5 335.5 c 128,-1,44
 239 316 239 316 239 287 c 0,45,46
 239 263 239 263 228.5 242.5 c 128,-1,47
 218 222 218 222 205.5 203.5 c 128,-1,48
 193 185 193 185 182.5 168 c 128,-1,49
 172 151 172 151 172 135 c 2,50,-1
 172 65 l 1,51,-1
 280 65 l 1,52,-1
 280 232 l 2,53,54
 280 246 280 246 273.5 253 c 128,-1,55
 267 260 267 260 254 265 c 1,56,-1
 254 320 l 1,57,58
 262 325 262 325 268.5 328.5 c 128,-1,59
 275 332 275 332 283 339 c 0,60,61
 288 344 288 344 294.5 351 c 128,-1,62
 301 358 301 358 307 366.5 c 128,-1,63
 313 375 313 375 318 384 c 128,-1,64
 323 393 323 393 324 400 c 1,65,-1
 403 400 l 1,66,-1
 403 400 l 1,0,1
90 269 m 0,67,68
 90 290 90 290 69 290 c 256,69,70
 48 290 48 290 48 270 c 0,71,72
 48 260 48 260 53 253.5 c 128,-1,73
 58 247 58 247 69 247 c 0,74,75
 79 247 79 247 84.5 253.5 c 128,-1,76
 90 260 90 260 90 269 c 0,67,68
EndSplineSet
EndChar
StartChar: uni0E0B
Encoding: 3595 3595 278
Width: 417
Flags: W
Fore
418 400 m 1,0,1
 418 388 418 388 408 372.5 c 128,-1,2
 398 357 398 357 384 341.5 c 128,-1,3
 370 326 370 326 355 313 c 128,-1,4
 340 300 340 300 331 293 c 1,5,6
 350 279 350 279 362.5 259 c 128,-1,7
 375 239 375 239 375 215 c 2,8,-1
 375 0 l 1,9,-1
 102 0 l 1,10,-1
 102 125 l 2,11,12
 102 151 102 151 116.5 175.5 c 128,-1,13
 131 200 131 200 149 223.5 c 128,-1,14
 167 247 167 247 181.5 269 c 128,-1,15
 196 291 196 291 196 312 c 0,16,17
 196 320 196 320 191.5 328 c 128,-1,18
 187 336 187 336 178 336 c 0,19,20
 163 336 163 336 153.5 328 c 128,-1,21
 144 320 144 320 127 320 c 0,22,23
 119 320 119 320 111 324 c 128,-1,24
 103 328 103 328 96 332.5 c 128,-1,25
 89 337 89 337 83 340.5 c 128,-1,26
 77 344 77 344 72 344 c 0,27,28
 64 344 64 344 59.5 331 c 128,-1,29
 55 318 55 318 55 311 c 1,30,31
 62 314 62 314 69 314.5 c 128,-1,32
 76 315 76 315 84 315 c 0,33,34
 110 315 110 315 125.5 299 c 128,-1,35
 141 283 141 283 141 257 c 0,36,37
 141 226 141 226 121 208.5 c 128,-1,38
 101 191 101 191 71 191 c 0,39,40
 50 191 50 191 34.5 199.5 c 128,-1,41
 19 208 19 208 9 222.5 c 128,-1,42
 -1 237 -1 237 -5.5 255 c 128,-1,43
 -10 273 -10 273 -10 292 c 0,44,45
 -10 309 -10 309 -5.5 326 c 128,-1,46
 -1 343 -1 343 8 357.5 c 128,-1,47
 17 372 17 372 31 381 c 128,-1,48
 45 390 45 390 64 390 c 0,49,50
 75 390 75 390 83.5 386.5 c 128,-1,51
 92 383 92 383 99 379 c 128,-1,52
 106 375 106 375 112.5 371.5 c 128,-1,53
 119 368 119 368 125 368 c 0,54,55
 133 368 133 368 139.5 371.5 c 128,-1,56
 146 375 146 375 153 379 c 128,-1,57
 160 383 160 383 167 386.5 c 128,-1,58
 174 390 174 390 183 390 c 0,59,60
 221 390 221 390 236.5 365 c 128,-1,61
 252 340 252 340 252 306 c 0,62,63
 252 279 252 279 241.5 256.5 c 128,-1,64
 231 234 231 234 218.5 214 c 128,-1,65
 206 194 206 194 195.5 175.5 c 128,-1,66
 185 157 185 157 185 136 c 2,67,-1
 185 65 l 1,68,-1
 292 65 l 1,69,-1
 292 220 l 2,70,71
 292 239 292 239 287.5 247 c 128,-1,72
 283 255 283 255 266 263 c 1,73,-1
 266 322 l 1,74,75
 289 336 289 336 307 356.5 c 128,-1,76
 325 377 325 377 339 400 c 1,77,-1
 418 400 l 1,78,-1
 418 400 l 1,0,1
93 255 m 0,79,80
 93 276 93 276 72 276 c 256,81,82
 51 276 51 276 51 256 c 0,83,84
 51 246 51 246 56 239.5 c 128,-1,85
 61 233 61 233 72 233 c 0,86,87
 82 233 82 233 87.5 239.5 c 128,-1,88
 93 246 93 246 93 255 c 0,79,80
EndSplineSet
EndChar
StartChar: uni0E0C
Encoding: 3596 3596 279
Width: 568
Flags: W
Fore
454 0 m 1,0,1
 430 30 430 30 406 48.5 c 128,-1,2
 382 67 382 67 348 86 c 1,3,-1
 348 61 l 2,4,5
 348 29 348 29 327 12.5 c 128,-1,6
 306 -4 306 -4 277 -4 c 0,7,8
 242 -4 242 -4 224.5 15.5 c 128,-1,9
 207 35 207 35 207 69 c 0,10,11
 207 102 207 102 224.5 124.5 c 128,-1,12
 242 147 242 147 274 156 c 1,13,-1
 274 252 l 2,14,15
 274 262 274 262 273 274.5 c 128,-1,16
 272 287 272 287 268 296 c 0,17,18
 259 317 259 317 233.5 326.5 c 128,-1,19
 208 336 208 336 178 336 c 0,20,21
 149 336 149 336 121.5 323.5 c 128,-1,22
 94 311 94 311 71 294 c 1,23,-1
 151 294 l 1,24,-1
 151 251 l 1,25,26
 139 249 139 249 127.5 241 c 128,-1,27
 116 233 116 233 116 219 c 2,28,-1
 116 141 l 1,29,30
 125 144 125 144 136 144 c 0,31,32
 151 144 151 144 162.5 137.5 c 128,-1,33
 174 131 174 131 182 120.5 c 128,-1,34
 190 110 190 110 194.5 97 c 128,-1,35
 199 84 199 84 199 71 c 0,36,37
 199 42 199 42 179.5 19.5 c 128,-1,38
 160 -3 160 -3 128 -3 c 0,39,40
 112 -3 112 -3 96.5 2.5 c 128,-1,41
 81 8 81 8 68.5 19 c 128,-1,42
 56 30 56 30 48.5 47.5 c 128,-1,43
 41 65 41 65 41 89 c 2,44,-1
 41 195 l 2,45,46
 41 207 41 207 42 214 c 128,-1,47
 43 221 43 221 46 226 c 128,-1,48
 49 231 49 231 53.5 236.5 c 128,-1,49
 58 242 58 242 65 251 c 1,50,-1
 0 251 l 1,51,-1
 0 297 l 1,52,53
 16 304 16 304 27 316 c 128,-1,54
 38 328 38 328 51 339 c 0,55,56
 81 362 81 362 117 374.5 c 128,-1,57
 153 387 153 387 190 387 c 0,58,59
 213 387 213 387 240 380.5 c 128,-1,60
 267 374 267 374 291 360.5 c 128,-1,61
 315 347 315 347 331 326.5 c 128,-1,62
 347 306 347 306 347 278 c 2,63,-1
 347 152 l 1,64,65
 369 141 369 141 390.5 130.5 c 128,-1,66
 412 120 412 120 432 106 c 1,67,-1
 432 384 l 1,68,-1
 506 384 l 1,69,-1
 506 0 l 1,70,-1
 454 0 l 1,0,1
278 107 m 1,71,72
 266 105 266 105 260.5 95.5 c 128,-1,73
 255 86 255 86 255 75 c 0,74,75
 255 67 255 67 257 54 c 128,-1,76
 259 41 259 41 270 41 c 0,77,78
 276 41 276 41 277 44.5 c 128,-1,79
 278 48 278 48 278 53 c 2,80,-1
 278 107 l 1,81,-1
 278 107 l 1,71,72
157 68 m 256,82,83
 157 79 157 79 149 87 c 128,-1,84
 141 95 141 95 130 95 c 256,85,86
 119 95 119 95 111 87 c 128,-1,87
 103 79 103 79 103 68 c 256,88,89
 103 57 103 57 111 49 c 128,-1,90
 119 41 119 41 130 41 c 256,91,92
 141 41 141 41 149 49 c 128,-1,93
 157 57 157 57 157 68 c 256,82,83
EndSplineSet
EndChar
StartChar: uni0E0D
Encoding: 3597 3597 280
Width: 590
Flags: W
Fore
264 0 m 1,0,-1
 264 247 l 2,1,2
 264 289 264 289 244.5 312 c 128,-1,3
 225 335 225 335 181 335 c 0,4,5
 149 335 149 335 123 325 c 128,-1,6
 97 315 97 315 71 299 c 1,7,-1
 156 299 l 1,8,-1
 156 246 l 1,9,10
 142 240 142 240 128 230 c 128,-1,11
 114 220 114 220 114 203 c 2,12,-1
 114 143 l 1,13,14
 127 150 127 150 143 150 c 0,15,16
 173 150 173 150 194 127.5 c 128,-1,17
 215 105 215 105 215 76 c 0,18,19
 215 33 215 33 187 14 c 128,-1,20
 159 -5 159 -5 120 -5 c 0,21,22
 103 -5 103 -5 86.5 1.5 c 128,-1,23
 70 8 70 8 57.5 19.5 c 128,-1,24
 45 31 45 31 37.5 46.5 c 128,-1,25
 30 62 30 62 30 80 c 2,26,-1
 30 174 l 2,27,28
 30 194 30 194 38.5 213.5 c 128,-1,29
 47 233 47 233 62 243 c 1,30,-1
 -3 243 l 1,31,-1
 -3 319 l 1,32,33
 11 324 11 324 23.5 332.5 c 128,-1,34
 36 341 36 341 48 350 c 2,35,-1
 53 353 l 2,36,37
 83 374 83 374 116 383 c 128,-1,38
 149 392 149 392 185 392 c 0,39,40
 220 392 220 392 249.5 384 c 128,-1,41
 279 376 279 376 300.5 358.5 c 128,-1,42
 322 341 322 341 334.5 314.5 c 128,-1,43
 347 288 347 288 347 251 c 2,44,-1
 347 67 l 1,45,-1
 446 67 l 1,46,-1
 446 384 l 1,47,-1
 529 384 l 1,48,-1
 529 0 l 1,49,-1
 264 0 l 1,0,-1
531 -41 m 1,50,51
 530 -70 530 -70 525 -92 c 128,-1,52
 520 -114 520 -114 509 -130.5 c 128,-1,53
 498 -147 498 -147 479.5 -158.5 c 128,-1,54
 461 -170 461 -170 432 -178 c 0,55,56
 415 -183 415 -183 397.5 -184.5 c 128,-1,57
 380 -186 380 -186 363 -186 c 0,58,59
 349 -186 349 -186 335 -184.5 c 128,-1,60
 321 -183 321 -183 308 -178 c 0,61,62
 285 -169 285 -169 268.5 -150.5 c 128,-1,63
 252 -132 252 -132 252 -106 c 0,64,65
 252 -70 252 -70 275 -50 c 128,-1,66
 298 -30 298 -30 333 -30 c 0,67,68
 348 -30 348 -30 362 -34.5 c 128,-1,69
 376 -39 376 -39 387.5 -47.5 c 128,-1,70
 399 -56 399 -56 406 -68.5 c 128,-1,71
 413 -81 413 -81 413 -97 c 0,72,73
 413 -102 413 -102 412.5 -107.5 c 128,-1,74
 412 -113 412 -113 410 -118 c 1,75,76
 432 -112 432 -112 439.5 -92.5 c 128,-1,77
 447 -73 447 -73 447 -55 c 2,78,-1
 447 -51 l 2,79,80
 447 -44 447 -44 446 -41 c 1,81,-1
 531 -41 l 1,82,-1
 531 -41 l 1,50,51
362 -103 m 256,83,84
 362 -92 362 -92 354 -85 c 128,-1,85
 346 -78 346 -78 335 -78 c 256,86,87
 324 -78 324 -78 316 -85 c 128,-1,88
 308 -92 308 -92 308 -103 c 256,89,90
 308 -114 308 -114 316 -121.5 c 128,-1,91
 324 -129 324 -129 335 -129 c 256,92,93
 346 -129 346 -129 354 -121.5 c 128,-1,94
 362 -114 362 -114 362 -103 c 256,83,84
158 70 m 0,95,96
 158 82 158 82 150 90 c 128,-1,97
 142 98 142 98 130 98 c 0,98,99
 117 98 117 98 109 90.5 c 128,-1,100
 101 83 101 83 101 70 c 0,101,102
 101 58 101 58 109 50.5 c 128,-1,103
 117 43 117 43 129 43 c 256,104,105
 141 43 141 43 149.5 50 c 128,-1,106
 158 57 158 57 158 70 c 0,95,96
EndSplineSet
Substitution: 0 65534 'L019' uni0E0D.alt1
Substitution: 0 65534 'L019' uni0E0D.alt1
EndChar
StartChar: uni0E0E
Encoding: 3598 3598 281
Width: 479
Flags: W
Fore
352 -162 m 1,0,1
 332 -150 332 -150 311 -139.5 c 128,-1,2
 290 -129 290 -129 269 -118 c 1,3,4
 256 -145 256 -145 230 -156.5 c 128,-1,5
 204 -168 204 -168 175 -168 c 0,6,7
 159 -168 159 -168 142.5 -164 c 128,-1,8
 126 -160 126 -160 113 -151.5 c 128,-1,9
 100 -143 100 -143 92 -129.5 c 128,-1,10
 84 -116 84 -116 84 -97 c 0,11,12
 84 -60 84 -60 109 -43 c 128,-1,13
 134 -26 134 -26 168 -26 c 0,14,15
 177 -26 177 -26 186 -26.5 c 128,-1,16
 195 -27 195 -27 204 -30 c 1,17,-1
 204 9 l 1,18,-1
 282 9 l 1,19,-1
 282 -51 l 1,20,-1
 339 -81 l 1,21,-1
 339 282 l 2,22,23
 337 298 337 298 326 307.5 c 128,-1,24
 315 317 315 317 300 322.5 c 128,-1,25
 285 328 285 328 268.5 330 c 128,-1,26
 252 332 252 332 240 332 c 0,27,28
 212 332 212 332 184 323.5 c 128,-1,29
 156 315 156 315 134 297 c 1,30,-1
 211 297 l 1,31,-1
 211 250 l 1,32,33
 203 246 203 246 195 241 c 128,-1,34
 187 236 187 236 183 227 c 0,35,36
 180 218 180 218 180 208 c 2,37,-1
 180 113 l 2,38,39
 180 100 180 100 179.5 85.5 c 128,-1,40
 179 71 179 71 176 58 c 128,-1,41
 173 45 173 45 166 33.5 c 128,-1,42
 159 22 159 22 147 13 c 0,43,44
 121 -4 121 -4 89 -4 c 0,45,46
 54 -4 54 -4 29 16.5 c 128,-1,47
 4 37 4 37 4 73 c 0,48,49
 4 106 4 106 26 128 c 128,-1,50
 48 150 48 150 81 150 c 0,51,52
 91 150 91 150 98 146 c 1,53,-1
 98 175 l 2,54,55
 98 196 98 196 102 213 c 128,-1,56
 106 230 106 230 122 246 c 1,57,-1
 60 246 l 1,58,-1
 60 307 l 1,59,60
 74 313 74 313 84 323.5 c 128,-1,61
 94 334 94 334 105 344 c 0,62,63
 132 367 132 367 167.5 377.5 c 128,-1,64
 203 388 203 388 238 388 c 0,65,66
 266 388 266 388 298 383 c 128,-1,67
 330 378 330 378 357 365 c 128,-1,68
 384 352 384 352 402 329.5 c 128,-1,69
 420 307 420 307 420 272 c 2,70,-1
 420 -162 l 1,71,-1
 352 -162 l 1,0,1
116 74 m 256,72,73
 116 85 116 85 108 92.5 c 128,-1,74
 100 100 100 100 89 100 c 256,75,76
 78 100 78 100 70 93 c 128,-1,77
 62 86 62 86 62 75 c 256,78,79
 62 64 62 64 70 56 c 128,-1,80
 78 48 78 48 89 48 c 256,81,82
 100 48 100 48 108 55.5 c 128,-1,83
 116 63 116 63 116 74 c 256,72,73
204 -89 m 1,84,85
 196 -86 196 -86 184 -81 c 128,-1,86
 172 -76 172 -76 164 -76 c 256,87,88
 156 -76 156 -76 148.5 -80.5 c 128,-1,89
 141 -85 141 -85 141 -94 c 0,90,91
 141 -106 141 -106 150.5 -111.5 c 128,-1,92
 160 -117 160 -117 171 -117 c 0,93,94
 187 -117 187 -117 193 -110 c 128,-1,95
 199 -103 199 -103 204 -89 c 1,84,85
EndSplineSet
Substitution: 0 65534 'L019' uni0E0E.alt1
Substitution: 0 65534 'L019' uni0E0E.alt1
EndChar
StartChar: uni0E0F
Encoding: 3599 3599 282
Width: 486
Flags: W
Fore
347 -165 m 1,0,-1
 304 -124 l 1,1,-1
 262 -165 l 1,2,-1
 228 -165 l 1,3,4
 223 -157 223 -157 216 -150.5 c 128,-1,5
 209 -144 209 -144 203 -137 c 1,6,7
 189 -156 189 -156 167.5 -162.5 c 128,-1,8
 146 -169 146 -169 123 -169 c 0,9,10
 107 -169 107 -169 90.5 -164 c 128,-1,11
 74 -159 74 -159 60.5 -149.5 c 128,-1,12
 47 -140 47 -140 38.5 -126.5 c 128,-1,13
 30 -113 30 -113 30 -95 c 0,14,15
 30 -79 30 -79 37.5 -66.5 c 128,-1,16
 45 -54 45 -54 56.5 -45 c 128,-1,17
 68 -36 68 -36 82.5 -31.5 c 128,-1,18
 97 -27 97 -27 111 -27 c 0,19,20
 145 -27 145 -27 173 -43 c 1,21,-1
 173 0 l 1,22,-1
 254 0 l 1,23,24
 252 -20 252 -20 246.5 -39 c 128,-1,25
 241 -58 241 -58 236 -78 c 1,26,-1
 258 -92 l 1,27,-1
 303 -34 l 1,28,-1
 343 -78 l 1,29,-1
 343 256 l 2,30,31
 343 264 343 264 342.5 273 c 128,-1,32
 342 282 342 282 339 290 c 0,33,34
 334 304 334 304 323 312.5 c 128,-1,35
 312 321 312 321 298 326 c 128,-1,36
 284 331 284 331 269 333 c 128,-1,37
 254 335 254 335 241 335 c 0,38,39
 214 335 214 335 186 327.5 c 128,-1,40
 158 320 158 320 137 302 c 1,41,-1
 217 302 l 1,42,-1
 217 251 l 1,43,44
 203 243 203 243 194 231.5 c 128,-1,45
 185 220 185 220 185 203 c 2,46,-1
 185 99 l 2,47,48
 185 53 185 53 167 24 c 128,-1,49
 149 -5 149 -5 98 -5 c 0,50,51
 63 -5 63 -5 36.5 14 c 128,-1,52
 10 33 10 33 10 71 c 0,53,54
 10 106 10 106 32 127.5 c 128,-1,55
 54 149 54 149 89 149 c 0,56,57
 97 149 97 149 103 146 c 1,58,-1
 103 203 l 2,59,60
 103 217 103 217 110.5 229 c 128,-1,61
 118 241 118 241 129 249 c 1,62,-1
 65 249 l 1,63,-1
 65 314 l 1,64,65
 79 319 79 319 89.5 329.5 c 128,-1,66
 100 340 100 340 112 349 c 0,67,68
 142 372 142 372 176.5 380.5 c 128,-1,69
 211 389 211 389 248 389 c 0,70,71
 268 389 268 389 291.5 385.5 c 128,-1,72
 315 382 315 382 337.5 374.5 c 128,-1,73
 360 367 360 367 379 354.5 c 128,-1,74
 398 342 398 342 409 324 c 0,75,76
 420 305 420 305 423 284 c 128,-1,77
 426 263 426 263 426 242 c 2,78,-1
 426 -165 l 1,79,-1
 347 -165 l 1,0,-1
121 74 m 256,80,81
 121 85 121 85 113 92.5 c 128,-1,82
 105 100 105 100 94 100 c 256,83,84
 83 100 83 100 75 93 c 128,-1,85
 67 86 67 86 67 75 c 256,86,87
 67 64 67 64 75 56 c 128,-1,88
 83 48 83 48 94 48 c 256,89,90
 105 48 105 48 113 55.5 c 128,-1,91
 121 63 121 63 121 74 c 256,80,81
159 -98 m 1,92,93
 148 -90 148 -90 137 -83.5 c 128,-1,94
 126 -77 126 -77 114 -77 c 0,95,96
 106 -77 106 -77 99.5 -82 c 128,-1,97
 93 -87 93 -87 93 -95 c 0,98,99
 93 -107 93 -107 103 -111.5 c 128,-1,100
 113 -116 113 -116 123 -116 c 0,101,102
 135 -116 135 -116 143 -111.5 c 128,-1,103
 151 -107 151 -107 159 -98 c 1,92,93
EndSplineSet
Substitution: 0 65534 'L019' uni0E0F.alt1
Substitution: 0 65534 'L019' uni0E0F.alt1
EndChar
StartChar: uni0E10
Encoding: 3600 3600 283
Width: 374
Flags: W
Fore
350 300 m 1,0,1
 335 295 335 295 319 294 c 128,-1,2
 303 293 303 293 287 293 c 0,3,4
 260 293 260 293 235 300 c 128,-1,5
 210 307 210 307 185 315 c 0,6,7
 177 318 177 318 166 321 c 128,-1,8
 155 324 155 324 147 324 c 0,9,10
 125 324 125 324 117.5 316 c 128,-1,11
 110 308 110 308 99 294 c 1,12,13
 122 294 122 294 145 293 c 128,-1,14
 168 292 168 292 191 289 c 2,15,-1
 202 288 l 2,16,17
 224 285 224 285 247 280.5 c 128,-1,18
 270 276 270 276 289.5 266.5 c 128,-1,19
 309 257 309 257 321.5 240.5 c 128,-1,20
 334 224 334 224 334 196 c 0,21,22
 334 174 334 174 329 149 c 2,23,-1
 298 -1 l 1,24,-1
 197 -1 l 1,25,-1
 153 92 l 1,26,27
 131 80 131 80 104 80 c 0,28,29
 73 80 73 80 53.5 97.5 c 128,-1,30
 34 115 34 115 34 147 c 0,31,32
 34 167 34 167 41.5 180.5 c 128,-1,33
 49 194 49 194 61.5 202.5 c 128,-1,34
 74 211 74 211 90.5 215 c 128,-1,35
 107 219 107 219 124 219 c 0,36,37
 157 219 157 219 175 197.5 c 128,-1,38
 193 176 193 176 205 149 c 2,39,-1
 237 76 l 1,40,-1
 248 136 l 2,41,42
 248 138 248 138 249 145 c 128,-1,43
 250 152 250 152 251 160.5 c 128,-1,44
 253 177.5 l 128,-1,45
 254 186 254 186 254 191 c 2,46,-1
 254 195 l 1,47,48
 250 212 250 212 233 220.5 c 128,-1,49
 216 229 216 229 195 232 c 128,-1,50
 174 235 174 235 153.5 235.5 c 128,-1,51
 133 236 133 236 121 236 c 2,52,-1
 -10 231 l 1,53,54
 -3 261 -3 261 9.5 289.5 c 128,-1,55
 22 318 22 318 40.5 340 c 128,-1,56
 59 362 59 362 85.5 375.5 c 128,-1,57
 112 389 112 389 146 389 c 0,58,59
 166 389 166 389 184.5 384.5 c 128,-1,60
 203 380 203 380 222 372 c 0,61,62
 246 361 246 361 269 361 c 256,63,64
 292 361 292 361 311 369 c 128,-1,65
 330 377 330 377 350 387 c 1,66,-1
 350 300 l 1,67,-1
 350 300 l 1,0,1
313 -143 m 1,68,69
 313 -173 313 -173 291 -184.5 c 128,-1,70
 269 -196 269 -196 243 -196 c 2,71,-1
 206 -196 l 1,72,-1
 162 -161 l 1,73,-1
 131 -189 l 1,74,75
 126 -183 126 -183 121.5 -175.5 c 128,-1,76
 117 -168 117 -168 111 -163 c 1,77,78
 98 -175 98 -175 83 -186.5 c 128,-1,79
 68 -198 68 -198 49 -198 c 0,80,81
 13 -198 13 -198 -9 -180 c 128,-1,82
 -31 -162 -31 -162 -31 -124 c 0,83,84
 -31 -108 -31 -108 -23.5 -96 c 128,-1,85
 -16 -84 -16 -84 -4.5 -76.5 c 128,-1,86
 7 -69 7 -69 21.5 -65.5 c 128,-1,87
 36 -62 36 -62 50 -62 c 0,88,89
 61 -62 61 -62 69.5 -66 c 128,-1,90
 78 -70 78 -70 87 -75 c 1,91,-1
 87 -32 l 1,92,-1
 155 -32 l 1,93,-1
 155 -41 l 2,94,95
 155 -57 155 -57 150.5 -72.5 c 128,-1,96
 146 -88 146 -88 141 -103 c 1,97,-1
 167 -86 l 1,98,-1
 212 -134 l 2,99,100
 216 -138 216 -138 229.5 -138.5 c 128,-1,101
 243 -139 243 -139 248 -139 c 1,102,-1
 248 -120 l 1,103,-1
 234 -120 l 2,104,105
 216 -120 216 -120 204.5 -106.5 c 128,-1,106
 193 -93 193 -93 193 -76 c 0,107,108
 193 -50 193 -50 213 -38.5 c 128,-1,109
 233 -27 233 -27 256 -27 c 0,110,111
 288 -27 288 -27 300.5 -47.5 c 128,-1,112
 313 -68 313 -68 313 -97 c 2,113,-1
 313 -143 l 1,114,-1
 313 -143 l 1,68,69
136 150 m 0,115,116
 136 175 136 175 111 175 c 256,117,118
 86 175 86 175 86 151 c 0,119,120
 86 126 86 126 111 126 c 256,121,122
 136 126 136 126 136 150 c 0,115,116
269 -78 m 0,123,124
 269 -60 269 -60 252 -60 c 256,125,126
 235 -60 235 -60 235 -76 c 0,127,128
 235 -91 235 -91 252 -91 c 0,129,130
 259 -91 259 -91 264 -88.5 c 128,-1,131
 269 -86 269 -86 269 -78 c 0,123,124
68 -128 m 0,132,133
 68 -118 68 -118 59 -112.5 c 128,-1,134
 50 -107 50 -107 41 -107 c 256,135,136
 32 -107 32 -107 25.5 -113 c 128,-1,137
 19 -119 19 -119 19 -128 c 0,138,139
 19 -138 19 -138 26 -144.5 c 128,-1,140
 33 -151 33 -151 43 -151 c 0,141,142
 54 -151 54 -151 61 -145 c 128,-1,143
 68 -139 68 -139 68 -128 c 0,132,133
EndSplineSet
Substitution: 0 65534 'L019' uni0E10.alt1
Substitution: 0 65534 'L019' uni0E10.alt1
EndChar
StartChar: uni0E11
Encoding: 3601 3601 284
Width: 521
Flags: W
Fore
380 0 m 1,0,-1
 380 299 l 2,1,2
 380 307 380 307 376.5 316.5 c 128,-1,3
 373 326 373 326 363 326 c 0,4,5
 357 326 357 326 349.5 317 c 128,-1,6
 342 308 342 308 335.5 296.5 c 128,-1,7
 329 285 329 285 324 274 c 128,-1,8
 319 263 319 263 317 258 c 2,9,-1
 221 25 l 2,10,11
 219 19 219 19 216 14 c 128,-1,12
 213 9 213 9 210 0 c 1,13,-1
 127 0 l 1,14,-1
 127 139 l 2,15,16
 127 165 127 165 137.5 188.5 c 128,-1,17
 148 212 148 212 161 233 c 128,-1,18
 174 254 174 254 184.5 274 c 128,-1,19
 195 294 195 294 195 313 c 0,20,21
 195 324 195 324 193 329.5 c 128,-1,22
 191 335 191 335 180 335 c 1,23,-1
 125 316 l 1,24,25
 115 316 115 316 107.5 319.5 c 128,-1,26
 100 323 100 323 94.5 327 c 128,-1,27
 89 331 89 331 84 334.5 c 128,-1,28
 79 338 79 338 74 338 c 256,29,30
 69 338 69 338 66.5 333.5 c 128,-1,31
 64 329 64 329 62.5 322.5 c 128,-1,32
 61 316 61 316 60.5 310 c 128,-1,33
 60 304 60 304 60 301 c 1,34,35
 67 303 67 303 74 306 c 128,-1,36
 81 309 81 309 88 309 c 0,37,38
 114 309 114 309 130.5 294 c 128,-1,39
 147 279 147 279 147 253 c 0,40,41
 147 223 147 223 126.5 205 c 128,-1,42
 106 187 106 187 77 187 c 0,43,44
 53 187 53 187 37.5 196 c 128,-1,45
 22 205 22 205 12 219.5 c 128,-1,46
 2 234 2 234 -2 253 c 128,-1,47
 -6 272 -6 272 -6 293 c 0,48,49
 -6 309 -6 309 -2.5 326 c 128,-1,50
 1 343 1 343 8.5 357 c 128,-1,51
 16 371 16 371 29.5 380 c 128,-1,52
 43 389 43 389 62 389 c 0,53,54
 73 389 73 389 82 385.5 c 128,-1,55
 91 382 91 382 98 378 c 128,-1,56
 105 374 105 374 111.5 370.5 c 128,-1,57
 118 367 118 367 124 367 c 256,58,59
 130 367 130 367 136.5 370.5 c 128,-1,60
 143 374 143 374 151.5 378.5 c 128,-1,61
 160 383 160 383 169 386.5 c 128,-1,62
 178 390 178 390 188 390 c 0,63,64
 221 390 221 390 239 371.5 c 128,-1,65
 257 353 257 353 257 321 c 256,66,67
 257 289 257 289 243.5 265 c 128,-1,68
 230 241 230 241 217 214 c 0,69,70
 213 205 213 205 212 188.5 c 128,-1,71
 211 172 211 172 211 156 c 2,72,-1
 211 111 l 1,73,74
 213 116 213 116 215 120.5 c 128,-1,75
 217 125 217 125 219 131 c 0,76,77
 230 161 230 161 247 204 c 128,-1,78
 264 247 264 247 283.5 287.5 c 128,-1,79
 303 328 303 328 324 356.5 c 128,-1,80
 345 385 345 385 364 385 c 0,81,82
 404 385 404 385 433 368 c 128,-1,83
 462 351 462 351 462 306 c 2,84,-1
 462 0 l 1,85,-1
 380 0 l 1,0,-1
100 249 m 256,86,87
 100 258 100 258 93.5 263 c 128,-1,88
 87 268 87 268 79 268 c 256,89,90
 71 268 71 268 64.5 263 c 128,-1,91
 58 258 58 258 58 249 c 256,92,93
 58 240 58 240 64.5 235 c 128,-1,94
 71 230 71 230 79 230 c 256,95,96
 87 230 87 230 93.5 235 c 128,-1,97
 100 240 100 240 100 249 c 256,86,87
EndSplineSet
EndChar
StartChar: uni0E12
Encoding: 3602 3602 285
Width: 594
Flags: W
Fore
468 0 m 1,0,-1
 389 66 l 1,1,2
 389 -7 389 -7 318 -7 c 0,3,4
 280 -7 280 -7 254.5 12 c 128,-1,5
 229 31 229 31 229 72 c 0,6,7
 229 106 229 106 252 127 c 128,-1,8
 275 148 275 148 307 153 c 1,9,-1
 307 282 l 2,10,11
 307 287 307 287 304.5 294 c 128,-1,12
 302 301 302 301 297.5 307 c 128,-1,13
 293 313 293 313 288 317.5 c 128,-1,14
 283 322 283 322 277 322 c 0,15,16
 267 322 267 322 251 311.5 c 128,-1,17
 235 301 235 301 211 301 c 0,18,19
 201 301 201 301 189 304.5 c 128,-1,20
 177 308 177 308 166 312.5 c 128,-1,21
 155 317 155 317 146 320.5 c 128,-1,22
 137 324 137 324 132 324 c 0,23,24
 119 324 119 324 109.5 315 c 128,-1,25
 100 306 100 306 94 292.5 c 128,-1,26
 88 279 88 279 85 265 c 128,-1,27
 82 251 82 251 82 240 c 0,28,29
 82 217 82 217 91 196 c 128,-1,30
 100 175 100 175 108 155 c 0,31,32
 116 136 116 136 120.5 117 c 128,-1,33
 125 98 125 98 128 78 c 1,34,-1
 172 146 l 1,35,36
 151 153 151 153 133.5 171.5 c 128,-1,37
 116 190 116 190 116 213 c 0,38,39
 116 232 116 232 124 245.5 c 128,-1,40
 132 259 132 259 144.5 267.5 c 128,-1,41
 157 276 157 276 173.5 280 c 128,-1,42
 190 284 190 284 206 284 c 0,43,44
 235 284 235 284 259 270.5 c 128,-1,45
 283 257 283 257 283 223 c 0,46,47
 283 194 283 194 267.5 170 c 128,-1,48
 252 146 252 146 237 123 c 2,49,-1
 155 0 l 1,50,-1
 64 0 l 1,51,52
 60 30 60 30 50 61.5 c 128,-1,53
 30 124.5 l 128,-1,54
 20 156 20 156 12 186.5 c 128,-1,55
 4 217 4 217 4 247 c 0,56,57
 4 271 4 271 15 295.5 c 128,-1,58
 26 320 26 320 44 340.5 c 128,-1,59
 62 361 62 361 85.5 374 c 128,-1,60
 109 387 109 387 133 387 c 0,61,62
 146 387 146 387 156 382.5 c 128,-1,63
 166 378 166 378 174.5 373 c 128,-1,64
 183 368 183 368 191 363.5 c 128,-1,65
 199 359 199 359 207 359 c 0,66,67
 218 359 218 359 235.5 370 c 128,-1,68
 253 381 253 381 262 388 c 1,69,70
 311 388 311 388 350 358 c 0,71,72
 373 341 373 341 381.5 315 c 128,-1,73
 390 289 390 289 390 261 c 2,74,-1
 390 142 l 1,75,76
 406 132 406 132 421 121.5 c 128,-1,77
 436 111 436 111 452 100 c 1,78,-1
 452 383 l 1,79,-1
 536 383 l 1,80,-1
 536 0 l 1,81,-1
 468 0 l 1,0,-1
228 215 m 256,82,83
 228 226 228 226 220.5 233 c 128,-1,84
 213 240 213 240 202 240 c 256,85,86
 191 240 191 240 183 233 c 128,-1,87
 175 226 175 226 175 215 c 256,88,89
 175 204 175 204 182.5 197 c 128,-1,90
 190 190 190 190 201 190 c 256,91,92
 212 190 212 190 220 197 c 128,-1,93
 228 204 228 204 228 215 c 256,82,83
309 103 m 1,94,95
 286 95 286 95 286 71 c 0,96,97
 286 60 286 60 292.5 52.5 c 128,-1,98
 299 45 299 45 309 42 c 1,99,-1
 309 103 l 1,94,95
EndSplineSet
EndChar
StartChar: uni0E13
Encoding: 3603 3603 286
Width: 581
Flags: W
Fore
557 69 m 0,0,1
 557 35 557 35 532.5 15.5 c 128,-1,2
 508 -4 508 -4 476 -4 c 0,3,4
 463 -4 463 -4 449.5 0 c 128,-1,5
 436 4 436 4 425 11.5 c 128,-1,6
 414 19 414 19 407 30.5 c 128,-1,7
 400 42 400 42 400 57 c 1,8,-1
 375 46 l 2,9,10
 356 35 356 35 351 26 c 128,-1,11
 346 17 346 17 338 0 c 1,12,-1
 267 0 l 1,13,-1
 267 250 l 2,14,15
 267 277 267 277 260.5 293.5 c 128,-1,16
 254 310 254 310 241.5 319 c 128,-1,17
 229 328 229 328 210 331 c 128,-1,18
 191 334 191 334 167 334 c 0,19,20
 139 334 139 334 116.5 326.5 c 128,-1,21
 94 319 94 319 71 303 c 1,22,-1
 143 303 l 1,23,-1
 143 255 l 1,24,25
 130 247 130 247 121 235.5 c 128,-1,26
 112 224 112 224 112 208 c 2,27,-1
 112 143 l 1,28,29
 119 146 119 146 126 146.5 c 128,-1,30
 133 147 133 147 141 147 c 0,31,32
 173 147 173 147 194 125.5 c 128,-1,33
 215 104 215 104 215 72 c 0,34,35
 215 56 215 56 207 42 c 128,-1,36
 199 28 199 28 187 18 c 128,-1,37
 175 8 175 8 160.5 2.5 c 128,-1,38
 146 -3 146 -3 134 -3 c 256,39,40
 122 -3 122 -3 103.5 0.5 c 128,-1,41
 85 4 85 4 68.5 12.5 c 128,-1,42
 52 21 52 21 40 35.5 c 128,-1,43
 28 50 28 50 28 71 c 2,44,-1
 28 197 l 2,45,46
 28 213 28 213 35.5 227 c 128,-1,47
 43 241 43 241 54 252 c 1,48,-1
 -5 252 l 1,49,-1
 -5 318 l 1,50,51
 9 323 9 323 21.5 332 c 128,-1,52
 34 341 34 341 46 350 c 0,53,54
 77 373 77 373 115.5 381 c 128,-1,55
 154 389 154 389 191 389 c 0,56,57
 217 389 217 389 244.5 383.5 c 128,-1,58
 272 378 272 378 296 366 c 0,59,60
 321 352 321 352 336 331.5 c 128,-1,61
 351 311 351 311 351 282 c 2,62,-1
 351 109 l 1,63,64
 358 112 358 112 370 116 c 128,-1,65
 382 120 382 120 394.5 124.5 c 128,-1,66
 407 129 407 129 417.5 133 c 128,-1,67
 428 137 428 137 432 141 c 0,68,69
 438 146 438 146 439 150 c 128,-1,70
 440 154 440 154 440 162 c 2,71,-1
 440 384 l 1,72,-1
 524 384 l 1,73,-1
 524 156 l 2,74,75
 524 148 524 148 523 141 c 128,-1,76
 522 134 522 134 518 127 c 1,77,78
 535 118 535 118 546 103.5 c 128,-1,79
 557 89 557 89 557 69 c 0,0,1
505 63 m 0,80,81
 505 73 505 73 496.5 79 c 128,-1,82
 488 85 488 85 479 85 c 256,83,84
 470 85 470 85 461.5 79 c 128,-1,85
 453 73 453 73 453 63 c 0,86,87
 453 52 453 52 461 46 c 128,-1,88
 469 40 469 40 479 40 c 0,89,90
 490 40 490 40 497.5 46 c 128,-1,91
 505 52 505 52 505 63 c 0,80,81
159 70 m 256,92,93
 159 81 159 81 151 88 c 128,-1,94
 143 95 143 95 132 95 c 256,95,96
 121 95 121 95 113 88 c 128,-1,97
 105 81 105 81 105 70 c 256,98,99
 105 59 105 59 113 52 c 128,-1,100
 121 45 121 45 132 45 c 256,101,102
 143 45 143 45 151 52 c 128,-1,103
 159 59 159 59 159 70 c 256,92,93
EndSplineSet
EndChar
StartChar: uni0E14
Encoding: 3604 3604 287
Width: 443
Flags: W
Fore
303 0 m 1,0,-1
 303 256 l 2,1,2
 303 279 303 279 293 293.5 c 128,-1,3
 283 308 283 308 267 316 c 128,-1,4
 251 324 251 324 232 327.5 c 128,-1,5
 213 331 213 331 195 331 c 0,6,7
 173 331 173 331 152.5 326 c 128,-1,8
 132 321 132 321 116.5 309.5 c 128,-1,9
 101 298 101 298 92 280.5 c 128,-1,10
 83 263 83 263 83 237 c 0,11,12
 83 218 83 218 87.5 197.5 c 128,-1,13
 92 177 92 177 99 156.5 c 128,-1,14
 106 136 106 136 113.5 116 c 128,-1,15
 121 96 121 96 127 78 c 1,16,-1
 175 144 l 1,17,18
 149 150 149 150 132.5 166.5 c 128,-1,19
 116 183 116 183 116 211 c 0,20,21
 116 228 116 228 123 242 c 128,-1,22
 130 256 130 256 142 266 c 128,-1,23
 154 276 154 276 169 281.5 c 128,-1,24
 184 287 184 287 200 287 c 0,25,26
 232 287 232 287 257.5 270 c 128,-1,27
 283 253 283 253 283 218 c 0,28,29
 283 195 283 195 270 172 c 0,30,31
 246 126 246 126 215 84 c 128,-1,32
 153 0 l 1,33,-1
 62 0 l 1,34,35
 57 21 57 21 54.5 42.5 c 128,-1,36
 52 64 52 64 44 84 c 0,37,38
 39 99 39 99 32 119 c 128,-1,39
 25 139 25 139 19 160 c 128,-1,40
 13 181 13 181 8.5 201 c 128,-1,41
 4 221 4 221 4 236 c 0,42,43
 4 277 4 277 21 305.5 c 128,-1,44
 38 334 38 334 65 352 c 128,-1,45
 92 370 92 370 126 378.5 c 128,-1,46
 160 387 160 387 195 387 c 0,47,48
 228 387 228 387 261.5 381.5 c 128,-1,49
 295 376 295 376 322 361 c 128,-1,50
 349 346 349 346 366.5 320.5 c 128,-1,51
 384 295 384 295 384 255 c 2,52,-1
 384 0 l 1,53,-1
 303 0 l 1,0,-1
229 215 m 256,54,55
 229 226 229 226 221 233 c 128,-1,56
 213 240 213 240 202 240 c 256,57,58
 191 240 191 240 183 233 c 128,-1,59
 175 226 175 226 175 215 c 256,60,61
 175 204 175 204 183 197 c 128,-1,62
 191 190 191 190 202 190 c 256,63,64
 213 190 213 190 221 197 c 128,-1,65
 229 204 229 204 229 215 c 256,54,55
EndSplineSet
EndChar
